<svg xmlns="http://www.w3.org/2000/svg" xmlns:xlink="http://www.w3.org/1999/xlink" xmlns:s="https://github.com/nturley/netlistsvg" width="1069" height="482.5">
  <style>svg {
    stroke:#000;
    fill:none;
  }
  text {
    fill:#000;
    stroke:none;
    font-size:10px;
    font-weight: bold;
    font-family: "Courier New", monospace;
  }
  .nodelabel {
    text-anchor: middle;
  }
  .inputPortLabel {
    text-anchor: end;
  }
  .splitjoinBody {
    fill:#000;
  }</style>
  <g s:type="and" transform="translate(243,203)" s:width="30" s:height="25" id="cell_$flatten\io_sum_adder.$and$generators/generated/verilog_yosys_elaborated/BehavioralAdder4.v:25$2">
    <s:alias val="$and"/>
    <s:alias val="$logic_and"/>
    <s:alias val="$_AND_"/>
    <path d="M0,0 L0,25 L15,25 A15 12.5 0 0 0 15,0 Z" class="cell_$flatten\io_sum_adder.$and$generators/generated/verilog_yosys_elaborated/BehavioralAdder4.v:25$2"/>
    <g s:x="0" s:y="5" s:pid="A"/>
    <g s:x="0" s:y="20" s:pid="B"/>
    <g s:x="30" s:y="12.5" s:pid="Y"/>
  </g>
  <g s:type="and" transform="translate(441,248)" s:width="30" s:height="25" id="cell_$flatten\io_sum_adder.$and$generators/generated/verilog_yosys_elaborated/BehavioralAdder4.v:28$7">
    <s:alias val="$and"/>
    <s:alias val="$logic_and"/>
    <s:alias val="$_AND_"/>
    <path d="M0,0 L0,25 L15,25 A15 12.5 0 0 0 15,0 Z" class="cell_$flatten\io_sum_adder.$and$generators/generated/verilog_yosys_elaborated/BehavioralAdder4.v:28$7"/>
    <g s:x="0" s:y="5" s:pid="A"/>
    <g s:x="0" s:y="20" s:pid="B"/>
    <g s:x="30" s:y="12.5" s:pid="Y"/>
  </g>
  <g s:type="and" transform="translate(441,308)" s:width="30" s:height="25" id="cell_$flatten\io_sum_adder.$and$generators/generated/verilog_yosys_elaborated/BehavioralAdder4.v:29$10">
    <s:alias val="$and"/>
    <s:alias val="$logic_and"/>
    <s:alias val="$_AND_"/>
    <path d="M0,0 L0,25 L15,25 A15 12.5 0 0 0 15,0 Z" class="cell_$flatten\io_sum_adder.$and$generators/generated/verilog_yosys_elaborated/BehavioralAdder4.v:29$10"/>
    <g s:x="0" s:y="5" s:pid="A"/>
    <g s:x="0" s:y="20" s:pid="B"/>
    <g s:x="30" s:y="12.5" s:pid="Y"/>
  </g>
  <g s:type="and" transform="translate(571,300.5)" s:width="30" s:height="25" id="cell_$flatten\io_sum_adder.$and$generators/generated/verilog_yosys_elaborated/BehavioralAdder4.v:30$12">
    <s:alias val="$and"/>
    <s:alias val="$logic_and"/>
    <s:alias val="$_AND_"/>
    <path d="M0,0 L0,25 L15,25 A15 12.5 0 0 0 15,0 Z" class="cell_$flatten\io_sum_adder.$and$generators/generated/verilog_yosys_elaborated/BehavioralAdder4.v:30$12"/>
    <g s:x="0" s:y="5" s:pid="A"/>
    <g s:x="0" s:y="20" s:pid="B"/>
    <g s:x="30" s:y="12.5" s:pid="Y"/>
  </g>
  <g s:type="and" transform="translate(704,328)" s:width="30" s:height="25" id="cell_$flatten\io_sum_adder.$and$generators/generated/verilog_yosys_elaborated/BehavioralAdder4.v:33$17">
    <s:alias val="$and"/>
    <s:alias val="$logic_and"/>
    <s:alias val="$_AND_"/>
    <path d="M0,0 L0,25 L15,25 A15 12.5 0 0 0 15,0 Z" class="cell_$flatten\io_sum_adder.$and$generators/generated/verilog_yosys_elaborated/BehavioralAdder4.v:33$17"/>
    <g s:x="0" s:y="5" s:pid="A"/>
    <g s:x="0" s:y="20" s:pid="B"/>
    <g s:x="30" s:y="12.5" s:pid="Y"/>
  </g>
  <g s:type="and" transform="translate(704,388)" s:width="30" s:height="25" id="cell_$flatten\io_sum_adder.$and$generators/generated/verilog_yosys_elaborated/BehavioralAdder4.v:34$20">
    <s:alias val="$and"/>
    <s:alias val="$logic_and"/>
    <s:alias val="$_AND_"/>
    <path d="M0,0 L0,25 L15,25 A15 12.5 0 0 0 15,0 Z" class="cell_$flatten\io_sum_adder.$and$generators/generated/verilog_yosys_elaborated/BehavioralAdder4.v:34$20"/>
    <g s:x="0" s:y="5" s:pid="A"/>
    <g s:x="0" s:y="20" s:pid="B"/>
    <g s:x="30" s:y="12.5" s:pid="Y"/>
  </g>
  <g s:type="and" transform="translate(838,380.5)" s:width="30" s:height="25" id="cell_$flatten\io_sum_adder.$and$generators/generated/verilog_yosys_elaborated/BehavioralAdder4.v:35$22">
    <s:alias val="$and"/>
    <s:alias val="$logic_and"/>
    <s:alias val="$_AND_"/>
    <path d="M0,0 L0,25 L15,25 A15 12.5 0 0 0 15,0 Z" class="cell_$flatten\io_sum_adder.$and$generators/generated/verilog_yosys_elaborated/BehavioralAdder4.v:35$22"/>
    <g s:x="0" s:y="5" s:pid="A"/>
    <g s:x="0" s:y="20" s:pid="B"/>
    <g s:x="30" s:y="12.5" s:pid="Y"/>
  </g>
  <g s:type="not" transform="translate(308,205.5)" s:width="30" s:height="20" id="cell_$flatten\io_sum_adder.$not$generators/generated/verilog_yosys_elaborated/BehavioralAdder4.v:25$3">
    <s:alias val="$_NOT_"/>
    <s:alias val="$not"/>
    <s:alias val="$logic_not"/>
    <path d="M0,0 L0,20 L20,10 Z" class="cell_$flatten\io_sum_adder.$not$generators/generated/verilog_yosys_elaborated/BehavioralAdder4.v:25$3"/>
    <circle cx="23" cy="10" r="3" class="cell_$flatten\io_sum_adder.$not$generators/generated/verilog_yosys_elaborated/BehavioralAdder4.v:25$3"/>
    <g s:x="0" s:y="10" s:pid="A"/>
    <g s:x="25" s:y="10" s:pid="Y"/>
  </g>
  <g s:type="not" transform="translate(906.5,72)" s:width="30" s:height="20" id="cell_$flatten\io_sum_adder.$not$generators/generated/verilog_yosys_elaborated/BehavioralAdder4.v:26$5">
    <s:alias val="$_NOT_"/>
    <s:alias val="$not"/>
    <s:alias val="$logic_not"/>
    <path d="M0,0 L0,20 L20,10 Z" class="cell_$flatten\io_sum_adder.$not$generators/generated/verilog_yosys_elaborated/BehavioralAdder4.v:26$5"/>
    <circle cx="23" cy="10" r="3" class="cell_$flatten\io_sum_adder.$not$generators/generated/verilog_yosys_elaborated/BehavioralAdder4.v:26$5"/>
    <g s:x="0" s:y="10" s:pid="A"/>
    <g s:x="25" s:y="10" s:pid="Y"/>
  </g>
  <g s:type="not" transform="translate(506,250.5)" s:width="30" s:height="20" id="cell_$flatten\io_sum_adder.$not$generators/generated/verilog_yosys_elaborated/BehavioralAdder4.v:28$8">
    <s:alias val="$_NOT_"/>
    <s:alias val="$not"/>
    <s:alias val="$logic_not"/>
    <path d="M0,0 L0,20 L20,10 Z" class="cell_$flatten\io_sum_adder.$not$generators/generated/verilog_yosys_elaborated/BehavioralAdder4.v:28$8"/>
    <circle cx="23" cy="10" r="3" class="cell_$flatten\io_sum_adder.$not$generators/generated/verilog_yosys_elaborated/BehavioralAdder4.v:28$8"/>
    <g s:x="0" s:y="10" s:pid="A"/>
    <g s:x="25" s:y="10" s:pid="Y"/>
  </g>
  <g s:type="not" transform="translate(374.5,318)" s:width="30" s:height="20" id="cell_$flatten\io_sum_adder.$not$generators/generated/verilog_yosys_elaborated/BehavioralAdder4.v:29$9">
    <s:alias val="$_NOT_"/>
    <s:alias val="$not"/>
    <s:alias val="$logic_not"/>
    <path d="M0,0 L0,20 L20,10 Z" class="cell_$flatten\io_sum_adder.$not$generators/generated/verilog_yosys_elaborated/BehavioralAdder4.v:29$9"/>
    <circle cx="23" cy="10" r="3" class="cell_$flatten\io_sum_adder.$not$generators/generated/verilog_yosys_elaborated/BehavioralAdder4.v:29$9"/>
    <g s:x="0" s:y="10" s:pid="A"/>
    <g s:x="25" s:y="10" s:pid="Y"/>
  </g>
  <g s:type="not" transform="translate(506,310.5)" s:width="30" s:height="20" id="cell_$flatten\io_sum_adder.$not$generators/generated/verilog_yosys_elaborated/BehavioralAdder4.v:30$11">
    <s:alias val="$_NOT_"/>
    <s:alias val="$not"/>
    <s:alias val="$logic_not"/>
    <path d="M0,0 L0,20 L20,10 Z" class="cell_$flatten\io_sum_adder.$not$generators/generated/verilog_yosys_elaborated/BehavioralAdder4.v:30$11"/>
    <circle cx="23" cy="10" r="3" class="cell_$flatten\io_sum_adder.$not$generators/generated/verilog_yosys_elaborated/BehavioralAdder4.v:30$11"/>
    <g s:x="0" s:y="10" s:pid="A"/>
    <g s:x="25" s:y="10" s:pid="Y"/>
  </g>
  <g s:type="not" transform="translate(906.5,132)" s:width="30" s:height="20" id="cell_$flatten\io_sum_adder.$not$generators/generated/verilog_yosys_elaborated/BehavioralAdder4.v:31$14">
    <s:alias val="$_NOT_"/>
    <s:alias val="$not"/>
    <s:alias val="$logic_not"/>
    <path d="M0,0 L0,20 L20,10 Z" class="cell_$flatten\io_sum_adder.$not$generators/generated/verilog_yosys_elaborated/BehavioralAdder4.v:31$14"/>
    <circle cx="23" cy="10" r="3" class="cell_$flatten\io_sum_adder.$not$generators/generated/verilog_yosys_elaborated/BehavioralAdder4.v:31$14"/>
    <g s:x="0" s:y="10" s:pid="A"/>
    <g s:x="25" s:y="10" s:pid="Y"/>
  </g>
  <g s:type="not" transform="translate(838.5,448)" s:width="30" s:height="20" id="cell_$flatten\io_sum_adder.$not$generators/generated/verilog_yosys_elaborated/BehavioralAdder4.v:32$16">
    <s:alias val="$_NOT_"/>
    <s:alias val="$not"/>
    <s:alias val="$logic_not"/>
    <path d="M0,0 L0,20 L20,10 Z" class="cell_$flatten\io_sum_adder.$not$generators/generated/verilog_yosys_elaborated/BehavioralAdder4.v:32$16"/>
    <circle cx="23" cy="10" r="3" class="cell_$flatten\io_sum_adder.$not$generators/generated/verilog_yosys_elaborated/BehavioralAdder4.v:32$16"/>
    <g s:x="0" s:y="10" s:pid="A"/>
    <g s:x="25" s:y="10" s:pid="Y"/>
  </g>
  <g s:type="not" transform="translate(770.5,330.5)" s:width="30" s:height="20" id="cell_$flatten\io_sum_adder.$not$generators/generated/verilog_yosys_elaborated/BehavioralAdder4.v:33$18">
    <s:alias val="$_NOT_"/>
    <s:alias val="$not"/>
    <s:alias val="$logic_not"/>
    <path d="M0,0 L0,20 L20,10 Z" class="cell_$flatten\io_sum_adder.$not$generators/generated/verilog_yosys_elaborated/BehavioralAdder4.v:33$18"/>
    <circle cx="23" cy="10" r="3" class="cell_$flatten\io_sum_adder.$not$generators/generated/verilog_yosys_elaborated/BehavioralAdder4.v:33$18"/>
    <g s:x="0" s:y="10" s:pid="A"/>
    <g s:x="25" s:y="10" s:pid="Y"/>
  </g>
  <g s:type="not" transform="translate(637.5,398)" s:width="30" s:height="20" id="cell_$flatten\io_sum_adder.$not$generators/generated/verilog_yosys_elaborated/BehavioralAdder4.v:34$19">
    <s:alias val="$_NOT_"/>
    <s:alias val="$not"/>
    <s:alias val="$logic_not"/>
    <path d="M0,0 L0,20 L20,10 Z" class="cell_$flatten\io_sum_adder.$not$generators/generated/verilog_yosys_elaborated/BehavioralAdder4.v:34$19"/>
    <circle cx="23" cy="10" r="3" class="cell_$flatten\io_sum_adder.$not$generators/generated/verilog_yosys_elaborated/BehavioralAdder4.v:34$19"/>
    <g s:x="0" s:y="10" s:pid="A"/>
    <g s:x="25" s:y="10" s:pid="Y"/>
  </g>
  <g s:type="not" transform="translate(770.5,390.5)" s:width="30" s:height="20" id="cell_$flatten\io_sum_adder.$not$generators/generated/verilog_yosys_elaborated/BehavioralAdder4.v:35$21">
    <s:alias val="$_NOT_"/>
    <s:alias val="$not"/>
    <s:alias val="$logic_not"/>
    <path d="M0,0 L0,20 L20,10 Z" class="cell_$flatten\io_sum_adder.$not$generators/generated/verilog_yosys_elaborated/BehavioralAdder4.v:35$21"/>
    <circle cx="23" cy="10" r="3" class="cell_$flatten\io_sum_adder.$not$generators/generated/verilog_yosys_elaborated/BehavioralAdder4.v:35$21"/>
    <g s:x="0" s:y="10" s:pid="A"/>
    <g s:x="25" s:y="10" s:pid="Y"/>
  </g>
  <g s:type="reduce_xor" transform="translate(373,218)" s:width="33" s:height="25" id="cell_$flatten\io_sum_adder.$xor$generators/generated/verilog_yosys_elaborated/BehavioralAdder4.v:24$1">
    <s:alias val="$xor"/>
    <s:alias val="$reduce_xor"/>
    <s:alias val="$_XOR_"/>
    <path d="M3,0 A30 25 0 0 1 3,25 A30 25 0 0 0 33,12.5 A30 25 0 0 0 3,0" class="cell_$flatten\io_sum_adder.$xor$generators/generated/verilog_yosys_elaborated/BehavioralAdder4.v:24$1"/>
    <path d="M0,0 A30 25 0 0 1 0,25" class="cell_$flatten\io_sum_adder.$xor$generators/generated/verilog_yosys_elaborated/BehavioralAdder4.v:24$1"/>
    <g s:x="3" s:y="5" s:pid="A"/>
    <g s:x="3" s:y="20" s:pid="B"/>
    <g s:x="33" s:y="12.5" s:pid="Y"/>
  </g>
  <g s:type="reduce_xor" transform="translate(837,69.5)" s:width="33" s:height="25" id="cell_$flatten\io_sum_adder.$xor$generators/generated/verilog_yosys_elaborated/BehavioralAdder4.v:26$4">
    <s:alias val="$xor"/>
    <s:alias val="$reduce_xor"/>
    <s:alias val="$_XOR_"/>
    <path d="M3,0 A30 25 0 0 1 3,25 A30 25 0 0 0 33,12.5 A30 25 0 0 0 3,0" class="cell_$flatten\io_sum_adder.$xor$generators/generated/verilog_yosys_elaborated/BehavioralAdder4.v:26$4"/>
    <path d="M0,0 A30 25 0 0 1 0,25" class="cell_$flatten\io_sum_adder.$xor$generators/generated/verilog_yosys_elaborated/BehavioralAdder4.v:26$4"/>
    <g s:x="3" s:y="5" s:pid="A"/>
    <g s:x="3" s:y="20" s:pid="B"/>
    <g s:x="33" s:y="12.5" s:pid="Y"/>
  </g>
  <g s:type="reduce_xor" transform="translate(636,137)" s:width="33" s:height="25" id="cell_$flatten\io_sum_adder.$xor$generators/generated/verilog_yosys_elaborated/BehavioralAdder4.v:27$6">
    <s:alias val="$xor"/>
    <s:alias val="$reduce_xor"/>
    <s:alias val="$_XOR_"/>
    <path d="M3,0 A30 25 0 0 1 3,25 A30 25 0 0 0 33,12.5 A30 25 0 0 0 3,0" class="cell_$flatten\io_sum_adder.$xor$generators/generated/verilog_yosys_elaborated/BehavioralAdder4.v:27$6"/>
    <path d="M0,0 A30 25 0 0 1 0,25" class="cell_$flatten\io_sum_adder.$xor$generators/generated/verilog_yosys_elaborated/BehavioralAdder4.v:27$6"/>
    <g s:x="3" s:y="5" s:pid="A"/>
    <g s:x="3" s:y="20" s:pid="B"/>
    <g s:x="33" s:y="12.5" s:pid="Y"/>
  </g>
  <g s:type="reduce_xor" transform="translate(837,129.5)" s:width="33" s:height="25" id="cell_$flatten\io_sum_adder.$xor$generators/generated/verilog_yosys_elaborated/BehavioralAdder4.v:31$13">
    <s:alias val="$xor"/>
    <s:alias val="$reduce_xor"/>
    <s:alias val="$_XOR_"/>
    <path d="M3,0 A30 25 0 0 1 3,25 A30 25 0 0 0 33,12.5 A30 25 0 0 0 3,0" class="cell_$flatten\io_sum_adder.$xor$generators/generated/verilog_yosys_elaborated/BehavioralAdder4.v:31$13"/>
    <path d="M0,0 A30 25 0 0 1 0,25" class="cell_$flatten\io_sum_adder.$xor$generators/generated/verilog_yosys_elaborated/BehavioralAdder4.v:31$13"/>
    <g s:x="3" s:y="5" s:pid="A"/>
    <g s:x="3" s:y="20" s:pid="B"/>
    <g s:x="33" s:y="12.5" s:pid="Y"/>
  </g>
  <g s:type="reduce_xor" transform="translate(769,445.5)" s:width="33" s:height="25" id="cell_$flatten\io_sum_adder.$xor$generators/generated/verilog_yosys_elaborated/BehavioralAdder4.v:32$15">
    <s:alias val="$xor"/>
    <s:alias val="$reduce_xor"/>
    <s:alias val="$_XOR_"/>
    <path d="M3,0 A30 25 0 0 1 3,25 A30 25 0 0 0 33,12.5 A30 25 0 0 0 3,0" class="cell_$flatten\io_sum_adder.$xor$generators/generated/verilog_yosys_elaborated/BehavioralAdder4.v:32$15"/>
    <path d="M0,0 A30 25 0 0 1 0,25" class="cell_$flatten\io_sum_adder.$xor$generators/generated/verilog_yosys_elaborated/BehavioralAdder4.v:32$15"/>
    <g s:x="3" s:y="5" s:pid="A"/>
    <g s:x="3" s:y="20" s:pid="B"/>
    <g s:x="33" s:y="12.5" s:pid="Y"/>
  </g>
  <g s:type="reduce_xor" transform="translate(905,438)" s:width="33" s:height="25" id="cell_$flatten\io_sum_adder.$xor$generators/generated/verilog_yosys_elaborated/BehavioralAdder4.v:36$23">
    <s:alias val="$xor"/>
    <s:alias val="$reduce_xor"/>
    <s:alias val="$_XOR_"/>
    <path d="M3,0 A30 25 0 0 1 3,25 A30 25 0 0 0 33,12.5 A30 25 0 0 0 3,0" class="cell_$flatten\io_sum_adder.$xor$generators/generated/verilog_yosys_elaborated/BehavioralAdder4.v:36$23"/>
    <path d="M0,0 A30 25 0 0 1 0,25" class="cell_$flatten\io_sum_adder.$xor$generators/generated/verilog_yosys_elaborated/BehavioralAdder4.v:36$23"/>
    <g s:x="3" s:y="5" s:pid="A"/>
    <g s:x="3" s:y="20" s:pid="B"/>
    <g s:x="33" s:y="12.5" s:pid="Y"/>
  </g>
  <g s:type="reduce_xor" transform="translate(905,12)" s:width="33" s:height="25" id="cell_$flatten\io_sum_adder.$xor$generators/generated/verilog_yosys_elaborated/BehavioralAdder4.v:37$24">
    <s:alias val="$xor"/>
    <s:alias val="$reduce_xor"/>
    <s:alias val="$_XOR_"/>
    <path d="M3,0 A30 25 0 0 1 3,25 A30 25 0 0 0 33,12.5 A30 25 0 0 0 3,0" class="cell_$flatten\io_sum_adder.$xor$generators/generated/verilog_yosys_elaborated/BehavioralAdder4.v:37$24"/>
    <path d="M0,0 A30 25 0 0 1 0,25" class="cell_$flatten\io_sum_adder.$xor$generators/generated/verilog_yosys_elaborated/BehavioralAdder4.v:37$24"/>
    <g s:x="3" s:y="5" s:pid="A"/>
    <g s:x="3" s:y="20" s:pid="B"/>
    <g s:x="33" s:y="12.5" s:pid="Y"/>
  </g>
  <g s:type="inputExt" transform="translate(12,22)" s:width="30" s:height="20" id="cell_clock">
    <text x="15" y="-4" class="nodelabel cell_clock" s:attribute="ref">clock</text>
    <s:alias val="$_inputExt_"/>
    <path d="M0,0 L0,20 L15,20 L30,10 L15,0 Z" class="cell_clock"/>
    <g s:x="28" s:y="10" s:pid="Y"/>
  </g>
  <g s:type="inputExt" transform="translate(54,22)" s:width="30" s:height="20" id="cell_reset">
    <text x="15" y="-4" class="nodelabel cell_reset" s:attribute="ref">reset</text>
    <s:alias val="$_inputExt_"/>
    <path d="M0,0 L0,20 L15,20 L30,10 L15,0 Z" class="cell_reset"/>
    <g s:x="28" s:y="10" s:pid="Y"/>
  </g>
  <g s:type="inputExt" transform="translate(96,133)" s:width="30" s:height="20" id="cell_io_a">
    <text x="15" y="-4" class="nodelabel cell_io_a" s:attribute="ref">io_a</text>
    <s:alias val="$_inputExt_"/>
    <path d="M0,0 L0,20 L15,20 L30,10 L15,0 Z" class="cell_io_a"/>
    <g s:x="28" s:y="10" s:pid="Y"/>
  </g>
  <g s:type="inputExt" transform="translate(96,248)" s:width="30" s:height="20" id="cell_io_b">
    <text x="15" y="-4" class="nodelabel cell_io_b" s:attribute="ref">io_b</text>
    <s:alias val="$_inputExt_"/>
    <path d="M0,0 L0,20 L15,20 L30,10 L15,0 Z" class="cell_io_b"/>
    <g s:x="28" s:y="10" s:pid="Y"/>
  </g>
  <g s:type="outputExt" transform="translate(1021,102)" s:width="30" s:height="20" id="cell_io_sum">
    <text x="15" y="-4" class="nodelabel cell_io_sum" s:attribute="ref">io_sum</text>
    <s:alias val="$_outputExt_"/>
    <path d="M30,0 L30,20 L15,20 L0,10 L15,0 Z" class="cell_io_sum"/>
    <g s:x="0" s:y="10" s:pid="A"/>
  </g>
  <g s:type="join" transform="translate(980,91.5)" s:width="4" s:height="40" id="cell_$join$,12,13,14,15,">
    <rect width="5" height="80" class="splitjoinBody" s:generic="body"/>
    <s:alias val="$_join_"/>
    <g s:x="5" s:y="20" s:pid="out"/>
    <g transform="translate(0,10)" s:x="0" s:y="10" s:pid="in0">
      <text x="-3" y="-4" class="inputPortLabel">0</text>
    </g>
    <g transform="translate(0,30)" s:x="0" s:y="10" s:pid="in0">
      <text x="-3" y="-4" class="inputPortLabel">1</text>
    </g>
    <g transform="translate(0,50)" s:x="0" s:y="10" s:pid="in0">
      <text x="-3" y="-4" class="inputPortLabel">2</text>
    </g>
    <g transform="translate(0,70)" s:x="0" s:y="10" s:pid="in0">
      <text x="-3" y="-4" class="inputPortLabel">3</text>
    </g>
  </g>
  <g s:type="split" transform="translate(161,122.5)" s:width="5" s:height="40" id="cell_$split$,4,5,6,7,">
    <rect width="5" height="80" class="splitjoinBody" s:generic="body"/>
    <s:alias val="$_split_"/>
    <g s:x="0" s:y="20" s:pid="in"/>
    <g transform="translate(4,10)" s:x="4" s:y="10" s:pid="out0">
      <text x="5" y="-4">0</text>
    </g>
    <g transform="translate(4,30)" s:x="4" s:y="10" s:pid="out0">
      <text x="5" y="-4">1</text>
    </g>
    <g transform="translate(4,50)" s:x="4" s:y="10" s:pid="out0">
      <text x="5" y="-4">2</text>
    </g>
    <g transform="translate(4,70)" s:x="4" s:y="10" s:pid="out0">
      <text x="5" y="-4">3</text>
    </g>
  </g>
  <g s:type="split" transform="translate(161,237.5)" s:width="5" s:height="40" id="cell_$split$,8,9,10,11,">
    <rect width="5" height="80" class="splitjoinBody" s:generic="body"/>
    <s:alias val="$_split_"/>
    <g s:x="0" s:y="20" s:pid="in"/>
    <g transform="translate(4,10)" s:x="4" s:y="10" s:pid="out0">
      <text x="5" y="-4">0</text>
    </g>
    <g transform="translate(4,30)" s:x="4" s:y="10" s:pid="out0">
      <text x="5" y="-4">1</text>
    </g>
    <g transform="translate(4,50)" s:x="4" s:y="10" s:pid="out0">
      <text x="5" y="-4">2</text>
    </g>
    <g transform="translate(4,70)" s:x="4" s:y="10" s:pid="out0">
      <text x="5" y="-4">3</text>
    </g>
  </g>
  <line x1="166" x2="213" y1="133" y2="133" class="net_4"/>
  <line x1="213" x2="213" y1="133" y2="208" class="net_4"/>
  <circle cx="213" cy="133" r="2" style="fill:#000" class="net_4"/>
  <line x1="213" x2="243" y1="208" y2="208" class="net_4"/>
  <line x1="166" x2="213" y1="133" y2="133" class="net_4"/>
  <line x1="213" x2="213" y1="133" y2="17" class="net_4"/>
  <line x1="213" x2="908" y1="17" y2="17" class="net_4"/>
  <line x1="166" x2="223" y1="248" y2="248" class="net_8"/>
  <line x1="223" x2="223" y1="248" y2="223" class="net_8"/>
  <circle cx="223" cy="223" r="2" style="fill:#000" class="net_8"/>
  <line x1="223" x2="243" y1="223" y2="223" class="net_8"/>
  <line x1="166" x2="223" y1="248" y2="248" class="net_8"/>
  <line x1="223" x2="223" y1="248" y2="32" class="net_8"/>
  <line x1="223" x2="908" y1="32" y2="32" class="net_8"/>
  <line x1="166" x2="203" y1="153" y2="153" class="net_5"/>
  <line x1="203" x2="203" y1="153" y2="253" class="net_5"/>
  <circle cx="203" cy="153" r="2" style="fill:#000" class="net_5"/>
  <line x1="203" x2="441" y1="253" y2="253" class="net_5"/>
  <line x1="166" x2="358" y1="153" y2="153" class="net_5"/>
  <line x1="358" x2="358" y1="153" y2="223" class="net_5"/>
  <line x1="358" x2="376" y1="223" y2="223" class="net_5"/>
  <line x1="166" x2="441" y1="268" y2="268" class="net_9"/>
  <line x1="166" x2="233" y1="268" y2="268" class="net_9"/>
  <line x1="233" x2="233" y1="268" y2="238" class="net_9"/>
  <circle cx="233" cy="268" r="2" style="fill:#000" class="net_9"/>
  <line x1="233" x2="376" y1="238" y2="238" class="net_9"/>
  <line x1="406" x2="416" y1="230.5" y2="230.5" class="net_18"/>
  <line x1="416" x2="416" y1="230.5" y2="313" class="net_18"/>
  <circle cx="416" cy="230.5" r="2" style="fill:#000" class="net_18"/>
  <line x1="416" x2="441" y1="313" y2="313" class="net_18"/>
  <line x1="406" x2="416" y1="230.5" y2="230.5" class="net_18"/>
  <line x1="416" x2="416" y1="230.5" y2="89.5" class="net_18"/>
  <line x1="416" x2="840" y1="89.5" y2="89.5" class="net_18"/>
  <line x1="399.5" x2="441" y1="328" y2="328" class="net_19"/>
  <line x1="531" x2="546" y1="260.5" y2="260.5" class="net_21"/>
  <line x1="546" x2="546" y1="260.5" y2="305.5" class="net_21"/>
  <line x1="546" x2="571" y1="305.5" y2="305.5" class="net_21"/>
  <line x1="531" x2="571" y1="320.5" y2="320.5" class="net_22"/>
  <line x1="166" x2="183" y1="173" y2="173" class="net_6"/>
  <line x1="183" x2="183" y1="173" y2="142" class="net_6"/>
  <line x1="183" x2="621" y1="142" y2="142" class="net_6"/>
  <line x1="621" x2="621" y1="142" y2="126" class="net_6"/>
  <line x1="621" x2="689" y1="126" y2="126" class="net_6"/>
  <line x1="689" x2="689" y1="126" y2="333" class="net_6"/>
  <circle cx="621" cy="142" r="2" style="fill:#000" class="net_6"/>
  <line x1="689" x2="704" y1="333" y2="333" class="net_6"/>
  <line x1="166" x2="183" y1="173" y2="173" class="net_6"/>
  <line x1="183" x2="183" y1="173" y2="142" class="net_6"/>
  <line x1="183" x2="639" y1="142" y2="142" class="net_6"/>
  <line x1="166" x2="203" y1="288" y2="288" class="net_10"/>
  <line x1="203" x2="203" y1="288" y2="348" class="net_10"/>
  <line x1="203" x2="704" y1="348" y2="348" class="net_10"/>
  <line x1="166" x2="203" y1="288" y2="288" class="net_10"/>
  <line x1="203" x2="203" y1="288" y2="348" class="net_10"/>
  <line x1="203" x2="621" y1="348" y2="348" class="net_10"/>
  <line x1="621" x2="621" y1="348" y2="157" class="net_10"/>
  <circle cx="621" cy="348" r="2" style="fill:#000" class="net_10"/>
  <line x1="621" x2="639" y1="157" y2="157" class="net_10"/>
  <line x1="669" x2="679" y1="149.5" y2="149.5" class="net_25"/>
  <line x1="679" x2="679" y1="149.5" y2="393" class="net_25"/>
  <circle cx="679" cy="149.5" r="2" style="fill:#000" class="net_25"/>
  <line x1="679" x2="704" y1="393" y2="393" class="net_25"/>
  <line x1="669" x2="840" y1="149.5" y2="149.5" class="net_25"/>
  <line x1="662.5" x2="704" y1="408" y2="408" class="net_26"/>
  <line x1="795.5" x2="812" y1="340.5" y2="340.5" class="net_28"/>
  <line x1="812" x2="812" y1="340.5" y2="385.5" class="net_28"/>
  <line x1="812" x2="838" y1="385.5" y2="385.5" class="net_28"/>
  <line x1="795.5" x2="838" y1="400.5" y2="400.5" class="net_29"/>
  <line x1="273" x2="308" y1="215.5" y2="215.5" class="net_16"/>
  <line x1="870" x2="906.5" y1="82" y2="82" class="net_32"/>
  <line x1="471" x2="506" y1="260.5" y2="260.5" class="net_17"/>
  <line x1="333" x2="348" y1="215.5" y2="215.5" class="net_31"/>
  <line x1="348" x2="348" y1="215.5" y2="328" class="net_31"/>
  <circle cx="348" cy="215.5" r="2" style="fill:#000" class="net_31"/>
  <line x1="348" x2="374.5" y1="328" y2="328" class="net_31"/>
  <line x1="333" x2="348" y1="215.5" y2="215.5" class="net_31"/>
  <line x1="348" x2="348" y1="215.5" y2="74.5" class="net_31"/>
  <line x1="348" x2="840" y1="74.5" y2="74.5" class="net_31"/>
  <line x1="471" x2="506" y1="320.5" y2="320.5" class="net_20"/>
  <line x1="870" x2="906.5" y1="142" y2="142" class="net_33"/>
  <line x1="802" x2="838.5" y1="458" y2="458" class="net_34"/>
  <line x1="734" x2="770.5" y1="340.5" y2="340.5" class="net_24"/>
  <line x1="601" x2="611" y1="313" y2="313" class="net_23"/>
  <line x1="611" x2="611" y1="313" y2="408" class="net_23"/>
  <circle cx="611" cy="313" r="2" style="fill:#000" class="net_23"/>
  <line x1="611" x2="637.5" y1="408" y2="408" class="net_23"/>
  <line x1="601" x2="611" y1="313" y2="313" class="net_23"/>
  <line x1="611" x2="611" y1="313" y2="115" class="net_23"/>
  <line x1="611" x2="812" y1="115" y2="115" class="net_23"/>
  <line x1="812" x2="812" y1="115" y2="134.5" class="net_23"/>
  <line x1="812" x2="840" y1="134.5" y2="134.5" class="net_23"/>
  <line x1="734" x2="770.5" y1="400.5" y2="400.5" class="net_27"/>
  <line x1="166" x2="193" y1="193" y2="193" class="net_7"/>
  <line x1="193" x2="193" y1="193" y2="450.5" class="net_7"/>
  <line x1="193" x2="772" y1="450.5" y2="450.5" class="net_7"/>
  <line x1="166" x2="183" y1="308" y2="308" class="net_11"/>
  <line x1="183" x2="183" y1="308" y2="465.5" class="net_11"/>
  <line x1="183" x2="772" y1="465.5" y2="465.5" class="net_11"/>
  <line x1="868" x2="880" y1="393" y2="393" class="net_30"/>
  <line x1="880" x2="880" y1="393" y2="443" class="net_30"/>
  <line x1="880" x2="908" y1="443" y2="443" class="net_30"/>
  <line x1="863.5" x2="908" y1="458" y2="458" class="net_35"/>
  <line x1="986" x2="1021" y1="112" y2="112" class="net_12,13,14,15"/>
  <line x1="938" x2="958" y1="24.5" y2="24.5" class="net_12"/>
  <line x1="958" x2="958" y1="24.5" y2="102" class="net_12"/>
  <line x1="958" x2="980" y1="102" y2="102" class="net_12"/>
  <line x1="931.5" x2="948" y1="82" y2="82" class="net_13"/>
  <line x1="948" x2="948" y1="82" y2="122" class="net_13"/>
  <line x1="948" x2="980" y1="122" y2="122" class="net_13"/>
  <line x1="931.5" x2="980" y1="142" y2="142" class="net_14"/>
  <line x1="938" x2="980.5" y1="450.5" y2="450.5" class="net_15"/>
  <line x1="980.5" x2="980.5" y1="450.5" y2="162.5" class="net_15"/>
  <line x1="124" x2="161" y1="143" y2="143" class="net_4,5,6,7"/>
  <line x1="124" x2="161" y1="258" y2="258" class="net_8,9,10,11"/>
</svg>
