<svg xmlns="http://www.w3.org/2000/svg" xmlns:xlink="http://www.w3.org/1999/xlink" xmlns:s="https://github.com/nturley/netlistsvg" width="779" height="482.5">
  <style>svg {
    stroke:#000;
    fill:none;
  }
  text {
    fill:#000;
    stroke:none;
    font-size:10px;
    font-weight: bold;
    font-family: "Courier New", monospace;
  }
  .nodelabel {
    text-anchor: middle;
  }
  .inputPortLabel {
    text-anchor: end;
  }
  .splitjoinBody {
    fill:#000;
  }</style>
  <g s:type="reduce_xor" transform="translate(244,195)" s:width="33" s:height="25" id="cell_$flatten\io_sum_adder.$abc$134$auto$blifparse.cc:396:parse_blif$135">
    <s:alias val="$xor"/>
    <s:alias val="$reduce_xor"/>
    <s:alias val="$_XOR_"/>
    <path d="M3,0 A30 25 0 0 1 3,25 A30 25 0 0 0 33,12.5 A30 25 0 0 0 3,0" class="cell_$flatten\io_sum_adder.$abc$134$auto$blifparse.cc:396:parse_blif$135"/>
    <path d="M0,0 A30 25 0 0 1 0,25" class="cell_$flatten\io_sum_adder.$abc$134$auto$blifparse.cc:396:parse_blif$135"/>
    <g s:x="3" s:y="5" s:pid="A"/>
    <g s:x="3" s:y="20" s:pid="B"/>
    <g s:x="33" s:y="12.5" s:pid="Y"/>
  </g>
  <g s:type="nand" transform="translate(243,255)" s:width="30" s:height="25" id="cell_$flatten\io_sum_adder.$abc$134$auto$blifparse.cc:396:parse_blif$136">
    <s:alias val="$nand"/>
    <s:alias val="$logic_nand"/>
    <s:alias val="$_NAND_"/>
    <s:alias val="$_ANDNOT_"/>
    <path d="M0,0 L0,25 L15,25 A15 12.5 0 0 0 15,0 Z" class="cell_$flatten\io_sum_adder.$abc$134$auto$blifparse.cc:396:parse_blif$136"/>
    <circle cx="34" cy="12.5" r="3" class="cell_$flatten\io_sum_adder.$abc$134$auto$blifparse.cc:396:parse_blif$136"/>
    <g s:x="0" s:y="5" s:pid="A"/>
    <g s:x="0" s:y="20" s:pid="B"/>
    <g s:x="36" s:y="12.5" s:pid="Y"/>
  </g>
  <g s:type="reduce_nxor" transform="translate(610,72)" s:width="33" s:height="25" id="cell_$flatten\io_sum_adder.$abc$134$auto$blifparse.cc:396:parse_blif$137">
    <s:alias val="$xnor"/>
    <s:alias val="$reduce_xnor"/>
    <s:alias val="$_XNOR_"/>
    <path d="M3,0 A30 25 0 0 1 3,25 A30 25 0 0 0 33,12.5 A30 25 0 0 0 3,0" class="cell_$flatten\io_sum_adder.$abc$134$auto$blifparse.cc:396:parse_blif$137"/>
    <path d="M0,0 A30 25 0 0 1 0,25" class="cell_$flatten\io_sum_adder.$abc$134$auto$blifparse.cc:396:parse_blif$137"/>
    <circle cx="35" cy="12.5" r="3" class="cell_$flatten\io_sum_adder.$abc$134$auto$blifparse.cc:396:parse_blif$137"/>
    <g s:x="3" s:y="5" s:pid="A"/>
    <g s:x="3" s:y="20" s:pid="B"/>
    <g s:x="38" s:y="12.5" s:pid="Y"/>
  </g>
  <g s:type="reduce_xor" transform="translate(391,300)" s:width="33" s:height="25" id="cell_$flatten\io_sum_adder.$abc$134$auto$blifparse.cc:396:parse_blif$138">
    <s:alias val="$xor"/>
    <s:alias val="$reduce_xor"/>
    <s:alias val="$_XOR_"/>
    <path d="M3,0 A30 25 0 0 1 3,25 A30 25 0 0 0 33,12.5 A30 25 0 0 0 3,0" class="cell_$flatten\io_sum_adder.$abc$134$auto$blifparse.cc:396:parse_blif$138"/>
    <path d="M0,0 A30 25 0 0 1 0,25" class="cell_$flatten\io_sum_adder.$abc$134$auto$blifparse.cc:396:parse_blif$138"/>
    <g s:x="3" s:y="5" s:pid="A"/>
    <g s:x="3" s:y="20" s:pid="B"/>
    <g s:x="33" s:y="12.5" s:pid="Y"/>
  </g>
  <g s:type="nand" transform="translate(319,179)" s:width="30" s:height="25" id="cell_$flatten\io_sum_adder.$abc$134$auto$blifparse.cc:396:parse_blif$139">
    <s:alias val="$nand"/>
    <s:alias val="$logic_nand"/>
    <s:alias val="$_NAND_"/>
    <s:alias val="$_ANDNOT_"/>
    <path d="M0,0 L0,25 L15,25 A15 12.5 0 0 0 15,0 Z" class="cell_$flatten\io_sum_adder.$abc$134$auto$blifparse.cc:396:parse_blif$139"/>
    <circle cx="34" cy="12.5" r="3" class="cell_$flatten\io_sum_adder.$abc$134$auto$blifparse.cc:396:parse_blif$139"/>
    <g s:x="0" s:y="5" s:pid="A"/>
    <g s:x="0" s:y="20" s:pid="B"/>
    <g s:x="36" s:y="12.5" s:pid="Y"/>
  </g>
  <g s:type="nand" transform="translate(319,247.5)" s:width="30" s:height="25" id="cell_$flatten\io_sum_adder.$abc$134$auto$blifparse.cc:396:parse_blif$140">
    <s:alias val="$nand"/>
    <s:alias val="$logic_nand"/>
    <s:alias val="$_NAND_"/>
    <s:alias val="$_ANDNOT_"/>
    <path d="M0,0 L0,25 L15,25 A15 12.5 0 0 0 15,0 Z" class="cell_$flatten\io_sum_adder.$abc$134$auto$blifparse.cc:396:parse_blif$140"/>
    <circle cx="34" cy="12.5" r="3" class="cell_$flatten\io_sum_adder.$abc$134$auto$blifparse.cc:396:parse_blif$140"/>
    <g s:x="0" s:y="5" s:pid="A"/>
    <g s:x="0" s:y="20" s:pid="B"/>
    <g s:x="36" s:y="12.5" s:pid="Y"/>
  </g>
  <g s:type="nand" transform="translate(390,240)" s:width="30" s:height="25" id="cell_$flatten\io_sum_adder.$abc$134$auto$blifparse.cc:396:parse_blif$141">
    <s:alias val="$nand"/>
    <s:alias val="$logic_nand"/>
    <s:alias val="$_NAND_"/>
    <s:alias val="$_ANDNOT_"/>
    <path d="M0,0 L0,25 L15,25 A15 12.5 0 0 0 15,0 Z" class="cell_$flatten\io_sum_adder.$abc$134$auto$blifparse.cc:396:parse_blif$141"/>
    <circle cx="34" cy="12.5" r="3" class="cell_$flatten\io_sum_adder.$abc$134$auto$blifparse.cc:396:parse_blif$141"/>
    <g s:x="0" s:y="5" s:pid="A"/>
    <g s:x="0" s:y="20" s:pid="B"/>
    <g s:x="36" s:y="12.5" s:pid="Y"/>
  </g>
  <g s:type="reduce_nxor" transform="translate(610,132)" s:width="33" s:height="25" id="cell_$flatten\io_sum_adder.$abc$134$auto$blifparse.cc:396:parse_blif$142">
    <s:alias val="$xnor"/>
    <s:alias val="$reduce_xnor"/>
    <s:alias val="$_XNOR_"/>
    <path d="M3,0 A30 25 0 0 1 3,25 A30 25 0 0 0 33,12.5 A30 25 0 0 0 3,0" class="cell_$flatten\io_sum_adder.$abc$134$auto$blifparse.cc:396:parse_blif$142"/>
    <path d="M0,0 A30 25 0 0 1 0,25" class="cell_$flatten\io_sum_adder.$abc$134$auto$blifparse.cc:396:parse_blif$142"/>
    <circle cx="35" cy="12.5" r="3" class="cell_$flatten\io_sum_adder.$abc$134$auto$blifparse.cc:396:parse_blif$142"/>
    <g s:x="3" s:y="5" s:pid="A"/>
    <g s:x="3" s:y="20" s:pid="B"/>
    <g s:x="38" s:y="12.5" s:pid="Y"/>
  </g>
  <g s:type="reduce_nxor" transform="translate(537,441)" s:width="33" s:height="25" id="cell_$flatten\io_sum_adder.$abc$134$auto$blifparse.cc:396:parse_blif$143">
    <s:alias val="$xnor"/>
    <s:alias val="$reduce_xnor"/>
    <s:alias val="$_XNOR_"/>
    <path d="M3,0 A30 25 0 0 1 3,25 A30 25 0 0 0 33,12.5 A30 25 0 0 0 3,0" class="cell_$flatten\io_sum_adder.$abc$134$auto$blifparse.cc:396:parse_blif$143"/>
    <path d="M0,0 A30 25 0 0 1 0,25" class="cell_$flatten\io_sum_adder.$abc$134$auto$blifparse.cc:396:parse_blif$143"/>
    <circle cx="35" cy="12.5" r="3" class="cell_$flatten\io_sum_adder.$abc$134$auto$blifparse.cc:396:parse_blif$143"/>
    <g s:x="3" s:y="5" s:pid="A"/>
    <g s:x="3" s:y="20" s:pid="B"/>
    <g s:x="38" s:y="12.5" s:pid="Y"/>
  </g>
  <g s:type="nand" transform="translate(466,163)" s:width="30" s:height="25" id="cell_$flatten\io_sum_adder.$abc$134$auto$blifparse.cc:396:parse_blif$144">
    <s:alias val="$nand"/>
    <s:alias val="$logic_nand"/>
    <s:alias val="$_NAND_"/>
    <s:alias val="$_ANDNOT_"/>
    <path d="M0,0 L0,25 L15,25 A15 12.5 0 0 0 15,0 Z" class="cell_$flatten\io_sum_adder.$abc$134$auto$blifparse.cc:396:parse_blif$144"/>
    <circle cx="34" cy="12.5" r="3" class="cell_$flatten\io_sum_adder.$abc$134$auto$blifparse.cc:396:parse_blif$144"/>
    <g s:x="0" s:y="5" s:pid="A"/>
    <g s:x="0" s:y="20" s:pid="B"/>
    <g s:x="36" s:y="12.5" s:pid="Y"/>
  </g>
  <g s:type="nand" transform="translate(466,307.5)" s:width="30" s:height="25" id="cell_$flatten\io_sum_adder.$abc$134$auto$blifparse.cc:396:parse_blif$145">
    <s:alias val="$nand"/>
    <s:alias val="$logic_nand"/>
    <s:alias val="$_NAND_"/>
    <s:alias val="$_ANDNOT_"/>
    <path d="M0,0 L0,25 L15,25 A15 12.5 0 0 0 15,0 Z" class="cell_$flatten\io_sum_adder.$abc$134$auto$blifparse.cc:396:parse_blif$145"/>
    <circle cx="34" cy="12.5" r="3" class="cell_$flatten\io_sum_adder.$abc$134$auto$blifparse.cc:396:parse_blif$145"/>
    <g s:x="0" s:y="5" s:pid="A"/>
    <g s:x="0" s:y="20" s:pid="B"/>
    <g s:x="36" s:y="12.5" s:pid="Y"/>
  </g>
  <g s:type="nand" transform="translate(539,300)" s:width="30" s:height="25" id="cell_$flatten\io_sum_adder.$abc$134$auto$blifparse.cc:396:parse_blif$146">
    <s:alias val="$nand"/>
    <s:alias val="$logic_nand"/>
    <s:alias val="$_NAND_"/>
    <s:alias val="$_ANDNOT_"/>
    <path d="M0,0 L0,25 L15,25 A15 12.5 0 0 0 15,0 Z" class="cell_$flatten\io_sum_adder.$abc$134$auto$blifparse.cc:396:parse_blif$146"/>
    <circle cx="34" cy="12.5" r="3" class="cell_$flatten\io_sum_adder.$abc$134$auto$blifparse.cc:396:parse_blif$146"/>
    <g s:x="0" s:y="5" s:pid="A"/>
    <g s:x="0" s:y="20" s:pid="B"/>
    <g s:x="36" s:y="12.5" s:pid="Y"/>
  </g>
  <g s:type="reduce_xor" transform="translate(611.6666666666666,433.5)" s:width="33" s:height="25" id="cell_$flatten\io_sum_adder.$abc$134$auto$blifparse.cc:396:parse_blif$147">
    <s:alias val="$xor"/>
    <s:alias val="$reduce_xor"/>
    <s:alias val="$_XOR_"/>
    <path d="M3,0 A30 25 0 0 1 3,25 A30 25 0 0 0 33,12.5 A30 25 0 0 0 3,0" class="cell_$flatten\io_sum_adder.$abc$134$auto$blifparse.cc:396:parse_blif$147"/>
    <path d="M0,0 A30 25 0 0 1 0,25" class="cell_$flatten\io_sum_adder.$abc$134$auto$blifparse.cc:396:parse_blif$147"/>
    <g s:x="3" s:y="5" s:pid="A"/>
    <g s:x="3" s:y="20" s:pid="B"/>
    <g s:x="33" s:y="12.5" s:pid="Y"/>
  </g>
  <g s:type="reduce_xor" transform="translate(611.6666666666666,12)" s:width="33" s:height="25" id="cell_$flatten\io_sum_adder.$abc$134$auto$blifparse.cc:396:parse_blif$148">
    <s:alias val="$xor"/>
    <s:alias val="$reduce_xor"/>
    <s:alias val="$_XOR_"/>
    <path d="M3,0 A30 25 0 0 1 3,25 A30 25 0 0 0 33,12.5 A30 25 0 0 0 3,0" class="cell_$flatten\io_sum_adder.$abc$134$auto$blifparse.cc:396:parse_blif$148"/>
    <path d="M0,0 A30 25 0 0 1 0,25" class="cell_$flatten\io_sum_adder.$abc$134$auto$blifparse.cc:396:parse_blif$148"/>
    <g s:x="3" s:y="5" s:pid="A"/>
    <g s:x="3" s:y="20" s:pid="B"/>
    <g s:x="33" s:y="12.5" s:pid="Y"/>
  </g>
  <g s:type="inputExt" transform="translate(12,22)" s:width="30" s:height="20" id="cell_clock">
    <text x="15" y="-4" class="nodelabel cell_clock" s:attribute="ref">clock</text>
    <s:alias val="$_inputExt_"/>
    <path d="M0,0 L0,20 L15,20 L30,10 L15,0 Z" class="cell_clock"/>
    <g s:x="28" s:y="10" s:pid="Y"/>
  </g>
  <g s:type="inputExt" transform="translate(54,22)" s:width="30" s:height="20" id="cell_reset">
    <text x="15" y="-4" class="nodelabel cell_reset" s:attribute="ref">reset</text>
    <s:alias val="$_inputExt_"/>
    <path d="M0,0 L0,20 L15,20 L30,10 L15,0 Z" class="cell_reset"/>
    <g s:x="28" s:y="10" s:pid="Y"/>
  </g>
  <g s:type="inputExt" transform="translate(96,286)" s:width="30" s:height="20" id="cell_io_a">
    <text x="15" y="-4" class="nodelabel cell_io_a" s:attribute="ref">io_a</text>
    <s:alias val="$_inputExt_"/>
    <path d="M0,0 L0,20 L15,20 L30,10 L15,0 Z" class="cell_io_a"/>
    <g s:x="28" s:y="10" s:pid="Y"/>
  </g>
  <g s:type="inputExt" transform="translate(96,401)" s:width="30" s:height="20" id="cell_io_b">
    <text x="15" y="-4" class="nodelabel cell_io_b" s:attribute="ref">io_b</text>
    <s:alias val="$_inputExt_"/>
    <path d="M0,0 L0,20 L15,20 L30,10 L15,0 Z" class="cell_io_b"/>
    <g s:x="28" s:y="10" s:pid="Y"/>
  </g>
  <g s:type="outputExt" transform="translate(731,64.5)" s:width="30" s:height="20" id="cell_io_sum">
    <text x="15" y="-4" class="nodelabel cell_io_sum" s:attribute="ref">io_sum</text>
    <s:alias val="$_outputExt_"/>
    <path d="M30,0 L30,20 L15,20 L0,10 L15,0 Z" class="cell_io_sum"/>
    <g s:x="0" s:y="10" s:pid="A"/>
  </g>
  <g s:type="join" transform="translate(690,54)" s:width="4" s:height="40" id="cell_$join$,12,13,14,15,">
    <rect width="5" height="80" class="splitjoinBody" s:generic="body"/>
    <s:alias val="$_join_"/>
    <g s:x="5" s:y="20" s:pid="out"/>
    <g transform="translate(0,10)" s:x="0" s:y="10" s:pid="in0">
      <text x="-3" y="-4" class="inputPortLabel">0</text>
    </g>
    <g transform="translate(0,30)" s:x="0" s:y="10" s:pid="in0">
      <text x="-3" y="-4" class="inputPortLabel">1</text>
    </g>
    <g transform="translate(0,50)" s:x="0" s:y="10" s:pid="in0">
      <text x="-3" y="-4" class="inputPortLabel">2</text>
    </g>
    <g transform="translate(0,70)" s:x="0" s:y="10" s:pid="in0">
      <text x="-3" y="-4" class="inputPortLabel">3</text>
    </g>
  </g>
  <g s:type="split" transform="translate(161,275.5)" s:width="5" s:height="40" id="cell_$split$,4,5,6,7,">
    <rect width="5" height="80" class="splitjoinBody" s:generic="body"/>
    <s:alias val="$_split_"/>
    <g s:x="0" s:y="20" s:pid="in"/>
    <g transform="translate(4,10)" s:x="4" s:y="10" s:pid="out0">
      <text x="5" y="-4">1</text>
    </g>
    <g transform="translate(4,30)" s:x="4" s:y="10" s:pid="out0">
      <text x="5" y="-4">0</text>
    </g>
    <g transform="translate(4,50)" s:x="4" s:y="10" s:pid="out0">
      <text x="5" y="-4">2</text>
    </g>
    <g transform="translate(4,70)" s:x="4" s:y="10" s:pid="out0">
      <text x="5" y="-4">3</text>
    </g>
  </g>
  <g s:type="split" transform="translate(161,390.5)" s:width="5" s:height="40" id="cell_$split$,8,9,10,11,">
    <rect width="5" height="80" class="splitjoinBody" s:generic="body"/>
    <s:alias val="$_split_"/>
    <g s:x="0" s:y="20" s:pid="in"/>
    <g transform="translate(4,10)" s:x="4" s:y="10" s:pid="out0">
      <text x="5" y="-4">1</text>
    </g>
    <g transform="translate(4,30)" s:x="4" s:y="10" s:pid="out0">
      <text x="5" y="-4">0</text>
    </g>
    <g transform="translate(4,50)" s:x="4" s:y="10" s:pid="out0">
      <text x="5" y="-4">2</text>
    </g>
    <g transform="translate(4,70)" s:x="4" s:y="10" s:pid="out0">
      <text x="5" y="-4">3</text>
    </g>
  </g>
  <line x1="166" x2="203" y1="286" y2="286" class="net_5"/>
  <line x1="203" x2="203" y1="286" y2="200" class="net_5"/>
  <circle cx="203" cy="200" r="2" style="fill:#000" class="net_5"/>
  <line x1="203" x2="247" y1="200" y2="200" class="net_5"/>
  <line x1="166" x2="203" y1="286" y2="286" class="net_5"/>
  <line x1="203" x2="203" y1="286" y2="184" class="net_5"/>
  <line x1="203" x2="319" y1="184" y2="184" class="net_5"/>
  <line x1="166" x2="223" y1="401" y2="401" class="net_9"/>
  <line x1="223" x2="223" y1="401" y2="215" class="net_9"/>
  <line x1="223" x2="247" y1="215" y2="215" class="net_9"/>
  <line x1="166" x2="223" y1="401" y2="401" class="net_9"/>
  <line x1="223" x2="223" y1="401" y2="294" class="net_9"/>
  <line x1="223" x2="309" y1="294" y2="294" class="net_9"/>
  <line x1="309" x2="309" y1="294" y2="199" class="net_9"/>
  <circle cx="223" cy="294" r="2" style="fill:#000" class="net_9"/>
  <line x1="309" x2="319" y1="199" y2="199" class="net_9"/>
  <line x1="166" x2="183" y1="306" y2="306" class="net_4"/>
  <line x1="183" x2="183" y1="306" y2="260" class="net_4"/>
  <circle cx="183" cy="260" r="2" style="fill:#000" class="net_4"/>
  <line x1="183" x2="243" y1="260" y2="260" class="net_4"/>
  <line x1="166" x2="183" y1="306" y2="306" class="net_4"/>
  <line x1="183" x2="183" y1="306" y2="21" class="net_4"/>
  <line x1="183" x2="585" y1="21" y2="21" class="net_4"/>
  <line x1="585" x2="585" y1="21" y2="17" class="net_4"/>
  <line x1="585" x2="614.6666666666666" y1="17" y2="17" class="net_4"/>
  <line x1="166" x2="213" y1="421" y2="421" class="net_8"/>
  <line x1="213" x2="213" y1="421" y2="275" class="net_8"/>
  <circle cx="213" cy="275" r="2" style="fill:#000" class="net_8"/>
  <line x1="213" x2="243" y1="275" y2="275" class="net_8"/>
  <line x1="166" x2="213" y1="421" y2="421" class="net_8"/>
  <line x1="213" x2="213" y1="421" y2="32" class="net_8"/>
  <line x1="213" x2="614.6666666666666" y1="32" y2="32" class="net_8"/>
  <line x1="279" x2="289" y1="267.5" y2="267.5" class="net_17"/>
  <line x1="289" x2="289" y1="267.5" y2="81" class="net_17"/>
  <line x1="289" x2="585" y1="81" y2="81" class="net_17"/>
  <line x1="585" x2="585" y1="81" y2="77" class="net_17"/>
  <circle cx="289" cy="267.5" r="2" style="fill:#000" class="net_17"/>
  <line x1="585" x2="613" y1="77" y2="77" class="net_17"/>
  <line x1="279" x2="319" y1="267.5" y2="267.5" class="net_17"/>
  <line x1="277" x2="299" y1="207.5" y2="207.5" class="net_16"/>
  <line x1="299" x2="299" y1="207.5" y2="92" class="net_16"/>
  <circle cx="299" cy="207.5" r="2" style="fill:#000" class="net_16"/>
  <line x1="299" x2="613" y1="92" y2="92" class="net_16"/>
  <line x1="277" x2="299" y1="207.5" y2="207.5" class="net_16"/>
  <line x1="299" x2="299" y1="207.5" y2="252.5" class="net_16"/>
  <line x1="299" x2="319" y1="252.5" y2="252.5" class="net_16"/>
  <line x1="166" x2="193" y1="326" y2="326" class="net_6"/>
  <line x1="193" x2="193" y1="326" y2="305" class="net_6"/>
  <circle cx="193" cy="305" r="2" style="fill:#000" class="net_6"/>
  <line x1="193" x2="394" y1="305" y2="305" class="net_6"/>
  <line x1="166" x2="193" y1="326" y2="326" class="net_6"/>
  <line x1="193" x2="193" y1="326" y2="168" class="net_6"/>
  <line x1="193" x2="466" y1="168" y2="168" class="net_6"/>
  <line x1="166" x2="233" y1="441" y2="441" class="net_10"/>
  <line x1="233" x2="233" y1="441" y2="335" class="net_10"/>
  <line x1="233" x2="365" y1="335" y2="335" class="net_10"/>
  <line x1="365" x2="365" y1="335" y2="320" class="net_10"/>
  <circle cx="365" cy="335" r="2" style="fill:#000" class="net_10"/>
  <line x1="365" x2="394" y1="320" y2="320" class="net_10"/>
  <line x1="166" x2="233" y1="441" y2="441" class="net_10"/>
  <line x1="233" x2="233" y1="441" y2="335" class="net_10"/>
  <line x1="233" x2="456" y1="335" y2="335" class="net_10"/>
  <line x1="456" x2="456" y1="335" y2="183" class="net_10"/>
  <line x1="456" x2="466" y1="183" y2="183" class="net_10"/>
  <line x1="355" x2="365" y1="191.5" y2="191.5" class="net_19"/>
  <line x1="365" x2="365" y1="191.5" y2="245" class="net_19"/>
  <line x1="365" x2="390" y1="245" y2="245" class="net_19"/>
  <line x1="355" x2="390" y1="260" y2="260" class="net_20"/>
  <line x1="426" x2="436" y1="252.5" y2="252.5" class="net_21"/>
  <line x1="436" x2="436" y1="252.5" y2="141" class="net_21"/>
  <line x1="436" x2="585" y1="141" y2="141" class="net_21"/>
  <line x1="585" x2="585" y1="141" y2="137" class="net_21"/>
  <circle cx="436" cy="252.5" r="2" style="fill:#000" class="net_21"/>
  <line x1="585" x2="613" y1="137" y2="137" class="net_21"/>
  <line x1="426" x2="436" y1="252.5" y2="252.5" class="net_21"/>
  <line x1="436" x2="436" y1="252.5" y2="327.5" class="net_21"/>
  <line x1="436" x2="466" y1="327.5" y2="327.5" class="net_21"/>
  <line x1="424" x2="446" y1="312.5" y2="312.5" class="net_18"/>
  <line x1="446" x2="446" y1="312.5" y2="152" class="net_18"/>
  <circle cx="446" cy="312.5" r="2" style="fill:#000" class="net_18"/>
  <line x1="446" x2="613" y1="152" y2="152" class="net_18"/>
  <line x1="424" x2="466" y1="312.5" y2="312.5" class="net_18"/>
  <line x1="166" x2="512" y1="346" y2="346" class="net_7"/>
  <line x1="512" x2="512" y1="346" y2="446" class="net_7"/>
  <line x1="512" x2="540" y1="446" y2="446" class="net_7"/>
  <line x1="166" x2="540" y1="461" y2="461" class="net_11"/>
  <line x1="502" x2="512" y1="175.5" y2="175.5" class="net_23"/>
  <line x1="512" x2="512" y1="175.5" y2="305" class="net_23"/>
  <line x1="512" x2="539" y1="305" y2="305" class="net_23"/>
  <line x1="502" x2="539" y1="320" y2="320" class="net_24"/>
  <line x1="575" x2="585" y1="312.5" y2="312.5" class="net_25"/>
  <line x1="585" x2="585" y1="312.5" y2="438.5" class="net_25"/>
  <line x1="585" x2="614.6666666666666" y1="438.5" y2="438.5" class="net_25"/>
  <line x1="575" x2="614.6666666666666" y1="453.5" y2="453.5" class="net_22"/>
  <line x1="696" x2="731" y1="74.5" y2="74.5" class="net_12,13,14,15"/>
  <line x1="644.6666666666666" x2="658" y1="24.5" y2="24.5" class="net_12"/>
  <line x1="658" x2="658" y1="24.5" y2="64.5" class="net_12"/>
  <line x1="658" x2="690" y1="64.5" y2="64.5" class="net_12"/>
  <line x1="648" x2="690" y1="84.5" y2="84.5" class="net_13"/>
  <line x1="648" x2="658" y1="144.5" y2="144.5" class="net_14"/>
  <line x1="658" x2="658" y1="144.5" y2="104.5" class="net_14"/>
  <line x1="658" x2="690" y1="104.5" y2="104.5" class="net_14"/>
  <line x1="644.6666666666666" x2="690.5" y1="446" y2="446" class="net_15"/>
  <line x1="690.5" x2="690.5" y1="446" y2="125" class="net_15"/>
  <line x1="124" x2="161" y1="296" y2="296" class="net_4,5,6,7"/>
  <line x1="124" x2="161" y1="411" y2="411" class="net_8,9,10,11"/>
</svg>
