<svg xmlns="http://www.w3.org/2000/svg" xmlns:xlink="http://www.w3.org/1999/xlink" xmlns:s="https://github.com/nturley/netlistsvg" width="257" height="161.5">
  <style>svg {
    stroke:#000;
    fill:none;
  }
  text {
    fill:#000;
    stroke:none;
    font-size:10px;
    font-weight: bold;
    font-family: "Courier New", monospace;
  }
  .nodelabel {
    text-anchor: middle;
  }
  .inputPortLabel {
    text-anchor: end;
  }
  .splitjoinBody {
    fill:#000;
  }</style>
  <g s:type="generic" transform="translate(102,64)" s:width="30" s:height="40" id="cell_io_sum_adder">
    <text x="15" y="-4" class="nodelabel cell_io_sum_adder" s:attribute="ref">BehavioralAdder</text>
    <rect width="30" height="40" s:generic="body" class="cell_io_sum_adder"/>
    <g transform="translate(0,10)" s:x="0" s:y="10" s:pid="in0" id="port_io_sum_adder~io_a">
      <text x="-3" y="-4" class="inputPortLabel cell_io_sum_adder">io_a</text>
    </g>
    <g transform="translate(0,30)" s:x="0" s:y="10" s:pid="in0" id="port_io_sum_adder~io_b">
      <text x="-3" y="-4" class="inputPortLabel cell_io_sum_adder">io_b</text>
    </g>
    <g transform="translate(30,10)" s:x="30" s:y="10" s:pid="out0" id="port_io_sum_adder~io_sum">
      <text x="5" y="-4" style="fill:#000; stroke:none" class="cell_io_sum_adder">io_sum</text>
    </g>
  </g>
  <g s:type="inputExt" transform="translate(12,22)" s:width="30" s:height="20" id="cell_clock">
    <text x="15" y="-4" class="nodelabel cell_clock" s:attribute="ref">clock</text>
    <s:alias val="$_inputExt_"/>
    <path d="M0,0 L0,20 L15,20 L30,10 L15,0 Z" class="cell_clock"/>
    <g s:x="28" s:y="10" s:pid="Y"/>
  </g>
  <g s:type="inputExt" transform="translate(54,22)" s:width="30" s:height="20" id="cell_reset">
    <text x="15" y="-4" class="nodelabel cell_reset" s:attribute="ref">reset</text>
    <s:alias val="$_inputExt_"/>
    <path d="M0,0 L0,20 L15,20 L30,10 L15,0 Z" class="cell_reset"/>
    <g s:x="28" s:y="10" s:pid="Y"/>
  </g>
  <g s:type="inputExt" transform="translate(12,64.5)" s:width="30" s:height="20" id="cell_io_a">
    <text x="15" y="-4" class="nodelabel cell_io_a" s:attribute="ref">io_a</text>
    <s:alias val="$_inputExt_"/>
    <path d="M0,0 L0,20 L15,20 L30,10 L15,0 Z" class="cell_io_a"/>
    <g s:x="28" s:y="10" s:pid="Y"/>
  </g>
  <g s:type="inputExt" transform="translate(12,129.5)" s:width="30" s:height="20" id="cell_io_b">
    <text x="15" y="-4" class="nodelabel cell_io_b" s:attribute="ref">io_b</text>
    <s:alias val="$_inputExt_"/>
    <path d="M0,0 L0,20 L15,20 L30,10 L15,0 Z" class="cell_io_b"/>
    <g s:x="28" s:y="10" s:pid="Y"/>
  </g>
  <g s:type="outputExt" transform="translate(209,64.5)" s:width="30" s:height="20" id="cell_io_sum">
    <text x="15" y="-4" class="nodelabel cell_io_sum" s:attribute="ref">io_sum</text>
    <s:alias val="$_outputExt_"/>
    <path d="M30,0 L30,20 L15,20 L0,10 L15,0 Z" class="cell_io_sum"/>
    <g s:x="0" s:y="10" s:pid="A"/>
  </g>
  <line x1="40" x2="102" y1="74.5" y2="74.5" class="net_4,5,6,7"/>
  <line x1="40" x2="52" y1="139.5" y2="139.5" class="net_8,9,10,11"/>
  <line x1="52" x2="52" y1="139.5" y2="94.5" class="net_8,9,10,11"/>
  <line x1="52" x2="102" y1="94.5" y2="94.5" class="net_8,9,10,11"/>
  <line x1="133" x2="209" y1="74.5" y2="74.5" class="net_12,13,14,15"/>
</svg>
