<svg xmlns="http://www.w3.org/2000/svg" xmlns:xlink="http://www.w3.org/1999/xlink" xmlns:s="https://github.com/nturley/netlistsvg" width="411" height="229">
  <style>svg {
    stroke:#000;
    fill:none;
  }
  text {
    fill:#000;
    stroke:none;
    font-size:10px;
    font-weight: bold;
    font-family: "Courier New", monospace;
  }
  .nodelabel {
    text-anchor: middle;
  }
  .inputPortLabel {
    text-anchor: end;
  }
  .splitjoinBody {
    fill:#000;
  }</style>
  <g s:type="reduce_nor" transform="translate(226,12)" s:width="33" s:height="25" id="cell_$abc$110$auto$blifparse.cc:396:parse_blif$111">
    <s:alias val="$nor"/>
    <s:alias val="$reduce_nor"/>
    <s:alias val="$_NOR_"/>
    <s:alias val="$_ORNOT_"/>
    <path d="M0,25 L0,25 L15,25 A15 12.5 0 0 0 15,0 L0,0" class="cell_$abc$110$auto$blifparse.cc:396:parse_blif$111"/>
    <path d="M0,0 A30 25 0 0 1 0,25" class="cell_$abc$110$auto$blifparse.cc:396:parse_blif$111"/>
    <circle cx="34" cy="12.5" r="3" class="cell_$abc$110$auto$blifparse.cc:396:parse_blif$111"/>
    <g s:x="3" s:y="5" s:pid="A"/>
    <g s:x="3" s:y="20" s:pid="B"/>
    <g s:x="36" s:y="12.5" s:pid="Y"/>
  </g>
  <g s:type="nand" transform="translate(226,72)" s:width="30" s:height="25" id="cell_$abc$110$auto$blifparse.cc:396:parse_blif$112">
    <s:alias val="$nand"/>
    <s:alias val="$logic_nand"/>
    <s:alias val="$_NAND_"/>
    <s:alias val="$_ANDNOT_"/>
    <path d="M0,0 L0,25 L15,25 A15 12.5 0 0 0 15,0 Z" class="cell_$abc$110$auto$blifparse.cc:396:parse_blif$112"/>
    <circle cx="34" cy="12.5" r="3" class="cell_$abc$110$auto$blifparse.cc:396:parse_blif$112"/>
    <g s:x="0" s:y="5" s:pid="A"/>
    <g s:x="0" s:y="20" s:pid="B"/>
    <g s:x="36" s:y="12.5" s:pid="Y"/>
  </g>
  <g s:type="nand" transform="translate(226,132)" s:width="30" s:height="25" id="cell_$abc$110$auto$blifparse.cc:396:parse_blif$113">
    <s:alias val="$nand"/>
    <s:alias val="$logic_nand"/>
    <s:alias val="$_NAND_"/>
    <s:alias val="$_ANDNOT_"/>
    <path d="M0,0 L0,25 L15,25 A15 12.5 0 0 0 15,0 Z" class="cell_$abc$110$auto$blifparse.cc:396:parse_blif$113"/>
    <circle cx="34" cy="12.5" r="3" class="cell_$abc$110$auto$blifparse.cc:396:parse_blif$113"/>
    <g s:x="0" s:y="5" s:pid="A"/>
    <g s:x="0" s:y="20" s:pid="B"/>
    <g s:x="36" s:y="12.5" s:pid="Y"/>
  </g>
  <g s:type="and" transform="translate(228,192)" s:width="30" s:height="25" id="cell_$abc$110$auto$blifparse.cc:396:parse_blif$114">
    <s:alias val="$and"/>
    <s:alias val="$logic_and"/>
    <s:alias val="$_AND_"/>
    <path d="M0,0 L0,25 L15,25 A15 12.5 0 0 0 15,0 Z" class="cell_$abc$110$auto$blifparse.cc:396:parse_blif$114"/>
    <g s:x="0" s:y="5" s:pid="A"/>
    <g s:x="0" s:y="20" s:pid="B"/>
    <g s:x="30" s:y="12.5" s:pid="Y"/>
  </g>
  <g s:type="inputExt" transform="translate(12,22)" s:width="30" s:height="20" id="cell_clock">
    <text x="15" y="-4" class="nodelabel cell_clock" s:attribute="ref">clock</text>
    <s:alias val="$_inputExt_"/>
    <path d="M0,0 L0,20 L15,20 L30,10 L15,0 Z" class="cell_clock"/>
    <g s:x="28" s:y="10" s:pid="Y"/>
  </g>
  <g s:type="inputExt" transform="translate(54,22)" s:width="30" s:height="20" id="cell_reset">
    <text x="15" y="-4" class="nodelabel cell_reset" s:attribute="ref">reset</text>
    <s:alias val="$_inputExt_"/>
    <path d="M0,0 L0,20 L15,20 L30,10 L15,0 Z" class="cell_reset"/>
    <g s:x="28" s:y="10" s:pid="Y"/>
  </g>
  <g s:type="inputExt" transform="translate(96,92)" s:width="30" s:height="20" id="cell_io_input">
    <text x="15" y="-4" class="nodelabel cell_io_input" s:attribute="ref">io_input</text>
    <s:alias val="$_inputExt_"/>
    <path d="M0,0 L0,20 L15,20 L30,10 L15,0 Z" class="cell_io_input"/>
    <g s:x="28" s:y="10" s:pid="Y"/>
  </g>
  <g s:type="outputExt" transform="translate(345,24.5)" s:width="30" s:height="20" id="cell_io_output">
    <text x="15" y="-4" class="nodelabel cell_io_output" s:attribute="ref">io_output</text>
    <s:alias val="$_outputExt_"/>
    <path d="M30,0 L30,20 L15,20 L0,10 L15,0 Z" class="cell_io_output"/>
    <g s:x="0" s:y="10" s:pid="A"/>
  </g>
  <g s:type="join" transform="translate(304,14)" s:width="4" s:height="40" id="cell_$join$,6,7,8,9,">
    <rect width="5" height="80" class="splitjoinBody" s:generic="body"/>
    <s:alias val="$_join_"/>
    <g s:x="5" s:y="20" s:pid="out"/>
    <g transform="translate(0,10)" s:x="0" s:y="10" s:pid="in0">
      <text x="-3" y="-4" class="inputPortLabel">0</text>
    </g>
    <g transform="translate(0,30)" s:x="0" s:y="10" s:pid="in0">
      <text x="-3" y="-4" class="inputPortLabel">1</text>
    </g>
    <g transform="translate(0,50)" s:x="0" s:y="10" s:pid="in0">
      <text x="-3" y="-4" class="inputPortLabel">2</text>
    </g>
    <g transform="translate(0,70)" s:x="0" s:y="10" s:pid="in0">
      <text x="-3" y="-4" class="inputPortLabel">3</text>
    </g>
  </g>
  <g s:type="split" transform="translate(179,81.5)" s:width="5" s:height="40" id="cell_$split$,4,5,">
    <rect width="5" height="40" class="splitjoinBody" s:generic="body"/>
    <s:alias val="$_split_"/>
    <g s:x="0" s:y="20" s:pid="in"/>
    <g transform="translate(4,10)" s:x="4" s:y="10" s:pid="out0">
      <text x="5" y="-4">1</text>
    </g>
    <g transform="translate(4,30)" s:x="4" s:y="10" s:pid="out0">
      <text x="5" y="-4">0</text>
    </g>
  </g>
  <line x1="184" x2="211" y1="92" y2="92" class="net_5"/>
  <line x1="211" x2="211" y1="92" y2="17" class="net_5"/>
  <circle cx="211" cy="92" r="2" style="fill:#000" class="net_5"/>
  <line x1="211" x2="229" y1="17" y2="17" class="net_5"/>
  <line x1="184" x2="226" y1="92" y2="92" class="net_5"/>
  <line x1="184" x2="211" y1="92" y2="92" class="net_5"/>
  <line x1="211" x2="211" y1="92" y2="137" class="net_5"/>
  <circle cx="211" cy="137" r="2" style="fill:#000" class="net_5"/>
  <line x1="211" x2="226" y1="137" y2="137" class="net_5"/>
  <line x1="184" x2="211" y1="92" y2="92" class="net_5"/>
  <line x1="211" x2="211" y1="92" y2="197" class="net_5"/>
  <line x1="211" x2="228" y1="197" y2="197" class="net_5"/>
  <line x1="184" x2="201" y1="112" y2="112" class="net_4"/>
  <line x1="201" x2="201" y1="112" y2="32" class="net_4"/>
  <circle cx="201" cy="112" r="2" style="fill:#000" class="net_4"/>
  <line x1="201" x2="229" y1="32" y2="32" class="net_4"/>
  <line x1="184" x2="201" y1="112" y2="112" class="net_4"/>
  <line x1="201" x2="201" y1="112" y2="77" class="net_4"/>
  <circle cx="201" cy="77" r="2" style="fill:#000" class="net_4"/>
  <line x1="201" x2="226" y1="77" y2="77" class="net_4"/>
  <line x1="184" x2="201" y1="112" y2="112" class="net_4"/>
  <line x1="201" x2="201" y1="112" y2="152" class="net_4"/>
  <circle cx="201" cy="152" r="2" style="fill:#000" class="net_4"/>
  <line x1="201" x2="226" y1="152" y2="152" class="net_4"/>
  <line x1="184" x2="201" y1="112" y2="112" class="net_4"/>
  <line x1="201" x2="201" y1="112" y2="212" class="net_4"/>
  <line x1="201" x2="228" y1="212" y2="212" class="net_4"/>
  <line x1="310" x2="345" y1="34.5" y2="34.5" class="net_6,7,8,9"/>
  <line x1="262" x2="304" y1="24.5" y2="24.5" class="net_6"/>
  <line x1="262" x2="272" y1="84.5" y2="84.5" class="net_7"/>
  <line x1="272" x2="272" y1="84.5" y2="44.5" class="net_7"/>
  <line x1="272" x2="304" y1="44.5" y2="44.5" class="net_7"/>
  <line x1="262" x2="282" y1="144.5" y2="144.5" class="net_8"/>
  <line x1="282" x2="282" y1="144.5" y2="64.5" class="net_8"/>
  <line x1="282" x2="304" y1="64.5" y2="64.5" class="net_8"/>
  <line x1="258" x2="304.5" y1="204.5" y2="204.5" class="net_9"/>
  <line x1="304.5" x2="304.5" y1="204.5" y2="85" class="net_9"/>
  <line x1="124" x2="179" y1="102" y2="102" class="net_4,5"/>
</svg>
