<svg xmlns="http://www.w3.org/2000/svg" xmlns:xlink="http://www.w3.org/1999/xlink" xmlns:s="https://github.com/nturley/netlistsvg" width="386" height="268.5">
  <style>svg {
    stroke:#000;
    fill:none;
  }
  text {
    fill:#000;
    stroke:none;
    font-size:10px;
    font-weight: bold;
    font-family: "Courier New", monospace;
  }
  .nodelabel {
    text-anchor: middle;
  }
  .inputPortLabel {
    text-anchor: end;
  }
  .splitjoinBody {
    fill:#000;
  }</style>
  <g s:type="and" transform="translate(207,111.5)" s:width="30" s:height="25" id="cell_$and$generators/generated/verilog_yosys_elaborated/Decoder2to4.v:19$4">
    <s:alias val="$and"/>
    <s:alias val="$logic_and"/>
    <s:alias val="$_AND_"/>
    <path d="M0,0 L0,25 L15,25 A15 12.5 0 0 0 15,0 Z" class="cell_$and$generators/generated/verilog_yosys_elaborated/Decoder2to4.v:19$4"/>
    <g s:x="0" s:y="5" s:pid="A"/>
    <g s:x="0" s:y="20" s:pid="B"/>
    <g s:x="30" s:y="12.5" s:pid="Y"/>
  </g>
  <g s:type="and" transform="translate(207,171.5)" s:width="30" s:height="25" id="cell_$and$generators/generated/verilog_yosys_elaborated/Decoder2to4.v:20$6">
    <s:alias val="$and"/>
    <s:alias val="$logic_and"/>
    <s:alias val="$_AND_"/>
    <path d="M0,0 L0,25 L15,25 A15 12.5 0 0 0 15,0 Z" class="cell_$and$generators/generated/verilog_yosys_elaborated/Decoder2to4.v:20$6"/>
    <g s:x="0" s:y="5" s:pid="A"/>
    <g s:x="0" s:y="20" s:pid="B"/>
    <g s:x="30" s:y="12.5" s:pid="Y"/>
  </g>
  <g s:type="and" transform="translate(207,231.5)" s:width="30" s:height="25" id="cell_$and$generators/generated/verilog_yosys_elaborated/Decoder2to4.v:21$7">
    <s:alias val="$and"/>
    <s:alias val="$logic_and"/>
    <s:alias val="$_AND_"/>
    <path d="M0,0 L0,25 L15,25 A15 12.5 0 0 0 15,0 Z" class="cell_$and$generators/generated/verilog_yosys_elaborated/Decoder2to4.v:21$7"/>
    <g s:x="0" s:y="5" s:pid="A"/>
    <g s:x="0" s:y="20" s:pid="B"/>
    <g s:x="30" s:y="12.5" s:pid="Y"/>
  </g>
  <g s:type="not" transform="translate(207,56.5)" s:width="30" s:height="20" id="cell_$not$generators/generated/verilog_yosys_elaborated/Decoder2to4.v:18$2">
    <s:alias val="$_NOT_"/>
    <s:alias val="$not"/>
    <s:alias val="$logic_not"/>
    <path d="M0,0 L0,20 L20,10 Z" class="cell_$not$generators/generated/verilog_yosys_elaborated/Decoder2to4.v:18$2"/>
    <circle cx="23" cy="10" r="3" class="cell_$not$generators/generated/verilog_yosys_elaborated/Decoder2to4.v:18$2"/>
    <g s:x="0" s:y="10" s:pid="A"/>
    <g s:x="25" s:y="10" s:pid="Y"/>
  </g>
  <g s:type="not" transform="translate(142,127.5)" s:width="30" s:height="20" id="cell_$not$generators/generated/verilog_yosys_elaborated/Decoder2to4.v:19$3">
    <s:alias val="$_NOT_"/>
    <s:alias val="$not"/>
    <s:alias val="$logic_not"/>
    <path d="M0,0 L0,20 L20,10 Z" class="cell_$not$generators/generated/verilog_yosys_elaborated/Decoder2to4.v:19$3"/>
    <circle cx="23" cy="10" r="3" class="cell_$not$generators/generated/verilog_yosys_elaborated/Decoder2to4.v:19$3"/>
    <g s:x="0" s:y="10" s:pid="A"/>
    <g s:x="25" s:y="10" s:pid="Y"/>
  </g>
  <g s:type="not" transform="translate(142,187.5)" s:width="30" s:height="20" id="cell_$not$generators/generated/verilog_yosys_elaborated/Decoder2to4.v:20$5">
    <s:alias val="$_NOT_"/>
    <s:alias val="$not"/>
    <s:alias val="$logic_not"/>
    <path d="M0,0 L0,20 L20,10 Z" class="cell_$not$generators/generated/verilog_yosys_elaborated/Decoder2to4.v:20$5"/>
    <circle cx="23" cy="10" r="3" class="cell_$not$generators/generated/verilog_yosys_elaborated/Decoder2to4.v:20$5"/>
    <g s:x="0" s:y="10" s:pid="A"/>
    <g s:x="25" s:y="10" s:pid="Y"/>
  </g>
  <g s:type="or" transform="translate(142,54)" s:width="30" s:height="25" id="cell_$or$generators/generated/verilog_yosys_elaborated/Decoder2to4.v:18$1">
    <s:alias val="$or"/>
    <s:alias val="$logic_or"/>
    <s:alias val="$_OR_"/>
    <path d="M0,25 L0,25 L15,25 A15 12.5 0 0 0 15,0 L0,0" class="cell_$or$generators/generated/verilog_yosys_elaborated/Decoder2to4.v:18$1"/>
    <path d="M0,0 A30 25 0 0 1 0,25" class="cell_$or$generators/generated/verilog_yosys_elaborated/Decoder2to4.v:18$1"/>
    <g s:x="3" s:y="5" s:pid="A"/>
    <g s:x="3" s:y="20" s:pid="B"/>
    <g s:x="30" s:y="12.5" s:pid="Y"/>
  </g>
  <g s:type="inputExt" transform="translate(12,22)" s:width="30" s:height="20" id="cell_clock">
    <text x="15" y="-4" class="nodelabel cell_clock" s:attribute="ref">clock</text>
    <s:alias val="$_inputExt_"/>
    <path d="M0,0 L0,20 L15,20 L30,10 L15,0 Z" class="cell_clock"/>
    <g s:x="28" s:y="10" s:pid="Y"/>
  </g>
  <g s:type="inputExt" transform="translate(54,22)" s:width="30" s:height="20" id="cell_reset">
    <text x="15" y="-4" class="nodelabel cell_reset" s:attribute="ref">reset</text>
    <s:alias val="$_inputExt_"/>
    <path d="M0,0 L0,20 L15,20 L30,10 L15,0 Z" class="cell_reset"/>
    <g s:x="28" s:y="10" s:pid="Y"/>
  </g>
  <g s:type="inputExt" transform="translate(12,74)" s:width="30" s:height="20" id="cell_io_input">
    <text x="15" y="-4" class="nodelabel cell_io_input" s:attribute="ref">io_input</text>
    <s:alias val="$_inputExt_"/>
    <path d="M0,0 L0,20 L15,20 L30,10 L15,0 Z" class="cell_io_input"/>
    <g s:x="28" s:y="10" s:pid="Y"/>
  </g>
  <g s:type="outputExt" transform="translate(320,104)" s:width="30" s:height="20" id="cell_io_output">
    <text x="15" y="-4" class="nodelabel cell_io_output" s:attribute="ref">io_output</text>
    <s:alias val="$_outputExt_"/>
    <path d="M30,0 L30,20 L15,20 L0,10 L15,0 Z" class="cell_io_output"/>
    <g s:x="0" s:y="10" s:pid="A"/>
  </g>
  <g s:type="join" transform="translate(279,93.5)" s:width="4" s:height="40" id="cell_$join$,6,7,8,9,">
    <rect width="5" height="80" class="splitjoinBody" s:generic="body"/>
    <s:alias val="$_join_"/>
    <g s:x="5" s:y="20" s:pid="out"/>
    <g transform="translate(0,10)" s:x="0" s:y="10" s:pid="in0">
      <text x="-3" y="-4" class="inputPortLabel">0</text>
    </g>
    <g transform="translate(0,30)" s:x="0" s:y="10" s:pid="in0">
      <text x="-3" y="-4" class="inputPortLabel">1</text>
    </g>
    <g transform="translate(0,50)" s:x="0" s:y="10" s:pid="in0">
      <text x="-3" y="-4" class="inputPortLabel">2</text>
    </g>
    <g transform="translate(0,70)" s:x="0" s:y="10" s:pid="in0">
      <text x="-3" y="-4" class="inputPortLabel">3</text>
    </g>
  </g>
  <g s:type="split" transform="translate(95,63.5)" s:width="5" s:height="40" id="cell_$split$,4,5,">
    <rect width="5" height="40" class="splitjoinBody" s:generic="body"/>
    <s:alias val="$_split_"/>
    <g s:x="0" s:y="20" s:pid="in"/>
    <g transform="translate(4,10)" s:x="4" s:y="10" s:pid="out0">
      <text x="5" y="-4">0</text>
    </g>
    <g transform="translate(4,30)" s:x="4" s:y="10" s:pid="out0">
      <text x="5" y="-4">1</text>
    </g>
  </g>
  <line x1="100" x2="127" y1="74" y2="74" class="net_4"/>
  <line x1="127" x2="127" y1="74" y2="116.5" class="net_4"/>
  <circle cx="127" cy="74" r="2" style="fill:#000" class="net_4"/>
  <circle cx="127" cy="116.5" r="2" style="fill:#000" class="net_4"/>
  <line x1="127" x2="207" y1="116.5" y2="116.5" class="net_4"/>
  <line x1="100" x2="127" y1="74" y2="74" class="net_4"/>
  <line x1="127" x2="127" y1="74" y2="247.5" class="net_4"/>
  <line x1="127" x2="182" y1="247.5" y2="247.5" class="net_4"/>
  <line x1="182" x2="182" y1="247.5" y2="251.5" class="net_4"/>
  <line x1="182" x2="207" y1="251.5" y2="251.5" class="net_4"/>
  <line x1="100" x2="127" y1="74" y2="74" class="net_4"/>
  <line x1="127" x2="127" y1="74" y2="197.5" class="net_4"/>
  <circle cx="127" cy="197.5" r="2" style="fill:#000" class="net_4"/>
  <line x1="127" x2="142" y1="197.5" y2="197.5" class="net_4"/>
  <line x1="100" x2="145" y1="74" y2="74" class="net_4"/>
  <line x1="167" x2="182" y1="137.5" y2="137.5" class="net_10"/>
  <line x1="182" x2="182" y1="137.5" y2="131.5" class="net_10"/>
  <line x1="182" x2="207" y1="131.5" y2="131.5" class="net_10"/>
  <line x1="100" x2="117" y1="94" y2="94" class="net_5"/>
  <line x1="117" x2="117" y1="94" y2="176.5" class="net_5"/>
  <circle cx="117" cy="94" r="2" style="fill:#000" class="net_5"/>
  <circle cx="117" cy="176.5" r="2" style="fill:#000" class="net_5"/>
  <line x1="117" x2="207" y1="176.5" y2="176.5" class="net_5"/>
  <line x1="100" x2="117" y1="94" y2="94" class="net_5"/>
  <line x1="117" x2="117" y1="94" y2="236.5" class="net_5"/>
  <line x1="117" x2="207" y1="236.5" y2="236.5" class="net_5"/>
  <line x1="100" x2="117" y1="94" y2="94" class="net_5"/>
  <line x1="117" x2="117" y1="94" y2="137.5" class="net_5"/>
  <circle cx="117" cy="137.5" r="2" style="fill:#000" class="net_5"/>
  <line x1="117" x2="142" y1="137.5" y2="137.5" class="net_5"/>
  <line x1="100" x2="117" y1="94" y2="94" class="net_5"/>
  <line x1="117" x2="117" y1="94" y2="59" class="net_5"/>
  <line x1="117" x2="145" y1="59" y2="59" class="net_5"/>
  <line x1="167" x2="182" y1="197.5" y2="197.5" class="net_11"/>
  <line x1="182" x2="182" y1="197.5" y2="191.5" class="net_11"/>
  <line x1="182" x2="207" y1="191.5" y2="191.5" class="net_11"/>
  <line x1="172" x2="207" y1="66.5" y2="66.5" class="net_12"/>
  <line x1="285" x2="320" y1="114" y2="114" class="net_6,7,8,9"/>
  <line x1="232" x2="247" y1="66.5" y2="66.5" class="net_6"/>
  <line x1="247" x2="247" y1="66.5" y2="104" class="net_6"/>
  <line x1="247" x2="279" y1="104" y2="104" class="net_6"/>
  <line x1="237" x2="279" y1="124" y2="124" class="net_7"/>
  <line x1="237" x2="247" y1="184" y2="184" class="net_8"/>
  <line x1="247" x2="247" y1="184" y2="144" class="net_8"/>
  <line x1="247" x2="279" y1="144" y2="144" class="net_8"/>
  <line x1="237" x2="279.5" y1="244" y2="244" class="net_9"/>
  <line x1="279.5" x2="279.5" y1="244" y2="164.5" class="net_9"/>
  <line x1="40" x2="95" y1="84" y2="84" class="net_4,5"/>
</svg>
