<svg xmlns="http://www.w3.org/2000/svg" xmlns:xlink="http://www.w3.org/1999/xlink" xmlns:s="https://github.com/nturley/netlistsvg" width="788" height="1412">
  <style>svg {
    stroke:#000;
    fill:none;
  }
  text {
    fill:#000;
    stroke:none;
    font-size:10px;
    font-weight: bold;
    font-family: "Courier New", monospace;
  }
  .nodelabel {
    text-anchor: middle;
  }
  .inputPortLabel {
    text-anchor: end;
  }
  .splitjoinBody {
    fill:#000;
  }</style>
  <g s:type="mux" transform="translate(459,246)" s:width="20" s:height="40" id="cell_$flatten\io_output_mux.$abc$246$auto$blifparse.cc:396:parse_blif$248">
    <s:alias val="$pmux"/>
    <s:alias val="$mux"/>
    <s:alias val="$_MUX_"/>
    <path d="M0,0 L20,10 L20,30 L0,40 Z" class="cell_$flatten\io_output_mux.$abc$246$auto$blifparse.cc:396:parse_blif$248"/>
    <g s:x="0" s:y="10" s:pid="A"/>
    <g s:x="0" s:y="30" s:pid="B"/>
    <g s:x="10" s:y="35" s:pid="S"/>
    <g s:x="20" s:y="20" s:pid="Y"/>
  </g>
  <g s:type="mux" transform="translate(459,870)" s:width="20" s:height="40" id="cell_$flatten\io_output_mux.$abc$246$auto$blifparse.cc:396:parse_blif$249">
    <s:alias val="$pmux"/>
    <s:alias val="$mux"/>
    <s:alias val="$_MUX_"/>
    <path d="M0,0 L20,10 L20,30 L0,40 Z" class="cell_$flatten\io_output_mux.$abc$246$auto$blifparse.cc:396:parse_blif$249"/>
    <g s:x="0" s:y="10" s:pid="A"/>
    <g s:x="0" s:y="30" s:pid="B"/>
    <g s:x="10" s:y="35" s:pid="S"/>
    <g s:x="20" s:y="20" s:pid="Y"/>
  </g>
  <g s:type="mux" transform="translate(599,860)" s:width="20" s:height="40" id="cell_$flatten\io_output_mux.$abc$246$auto$blifparse.cc:396:parse_blif$250">
    <s:alias val="$pmux"/>
    <s:alias val="$mux"/>
    <s:alias val="$_MUX_"/>
    <path d="M0,0 L20,10 L20,30 L0,40 Z" class="cell_$flatten\io_output_mux.$abc$246$auto$blifparse.cc:396:parse_blif$250"/>
    <g s:x="0" s:y="10" s:pid="A"/>
    <g s:x="0" s:y="30" s:pid="B"/>
    <g s:x="10" s:y="35" s:pid="S"/>
    <g s:x="20" s:y="20" s:pid="Y"/>
  </g>
  <g s:type="mux" transform="translate(459,306)" s:width="20" s:height="40" id="cell_$flatten\io_output_mux.$abc$246$auto$blifparse.cc:396:parse_blif$251">
    <s:alias val="$pmux"/>
    <s:alias val="$mux"/>
    <s:alias val="$_MUX_"/>
    <path d="M0,0 L20,10 L20,30 L0,40 Z" class="cell_$flatten\io_output_mux.$abc$246$auto$blifparse.cc:396:parse_blif$251"/>
    <g s:x="0" s:y="10" s:pid="A"/>
    <g s:x="0" s:y="30" s:pid="B"/>
    <g s:x="10" s:y="35" s:pid="S"/>
    <g s:x="20" s:y="20" s:pid="Y"/>
  </g>
  <g s:type="mux" transform="translate(459,930)" s:width="20" s:height="40" id="cell_$flatten\io_output_mux.$abc$246$auto$blifparse.cc:396:parse_blif$252">
    <s:alias val="$pmux"/>
    <s:alias val="$mux"/>
    <s:alias val="$_MUX_"/>
    <path d="M0,0 L20,10 L20,30 L0,40 Z" class="cell_$flatten\io_output_mux.$abc$246$auto$blifparse.cc:396:parse_blif$252"/>
    <g s:x="0" s:y="10" s:pid="A"/>
    <g s:x="0" s:y="30" s:pid="B"/>
    <g s:x="10" s:y="35" s:pid="S"/>
    <g s:x="20" s:y="20" s:pid="Y"/>
  </g>
  <g s:type="mux" transform="translate(599,920)" s:width="20" s:height="40" id="cell_$flatten\io_output_mux.$abc$246$auto$blifparse.cc:396:parse_blif$253">
    <s:alias val="$pmux"/>
    <s:alias val="$mux"/>
    <s:alias val="$_MUX_"/>
    <path d="M0,0 L20,10 L20,30 L0,40 Z" class="cell_$flatten\io_output_mux.$abc$246$auto$blifparse.cc:396:parse_blif$253"/>
    <g s:x="0" s:y="10" s:pid="A"/>
    <g s:x="0" s:y="30" s:pid="B"/>
    <g s:x="10" s:y="35" s:pid="S"/>
    <g s:x="20" s:y="20" s:pid="Y"/>
  </g>
  <g s:type="mux" transform="translate(459,366)" s:width="20" s:height="40" id="cell_$flatten\io_output_mux.$abc$246$auto$blifparse.cc:396:parse_blif$254">
    <s:alias val="$pmux"/>
    <s:alias val="$mux"/>
    <s:alias val="$_MUX_"/>
    <path d="M0,0 L20,10 L20,30 L0,40 Z" class="cell_$flatten\io_output_mux.$abc$246$auto$blifparse.cc:396:parse_blif$254"/>
    <g s:x="0" s:y="10" s:pid="A"/>
    <g s:x="0" s:y="30" s:pid="B"/>
    <g s:x="10" s:y="35" s:pid="S"/>
    <g s:x="20" s:y="20" s:pid="Y"/>
  </g>
  <g s:type="mux" transform="translate(459,990)" s:width="20" s:height="40" id="cell_$flatten\io_output_mux.$abc$246$auto$blifparse.cc:396:parse_blif$255">
    <s:alias val="$pmux"/>
    <s:alias val="$mux"/>
    <s:alias val="$_MUX_"/>
    <path d="M0,0 L20,10 L20,30 L0,40 Z" class="cell_$flatten\io_output_mux.$abc$246$auto$blifparse.cc:396:parse_blif$255"/>
    <g s:x="0" s:y="10" s:pid="A"/>
    <g s:x="0" s:y="30" s:pid="B"/>
    <g s:x="10" s:y="35" s:pid="S"/>
    <g s:x="20" s:y="20" s:pid="Y"/>
  </g>
  <g s:type="mux" transform="translate(599,980)" s:width="20" s:height="40" id="cell_$flatten\io_output_mux.$abc$246$auto$blifparse.cc:396:parse_blif$256">
    <s:alias val="$pmux"/>
    <s:alias val="$mux"/>
    <s:alias val="$_MUX_"/>
    <path d="M0,0 L20,10 L20,30 L0,40 Z" class="cell_$flatten\io_output_mux.$abc$246$auto$blifparse.cc:396:parse_blif$256"/>
    <g s:x="0" s:y="10" s:pid="A"/>
    <g s:x="0" s:y="30" s:pid="B"/>
    <g s:x="10" s:y="35" s:pid="S"/>
    <g s:x="20" s:y="20" s:pid="Y"/>
  </g>
  <g s:type="mux" transform="translate(459,426)" s:width="20" s:height="40" id="cell_$flatten\io_output_mux.$abc$246$auto$blifparse.cc:396:parse_blif$257">
    <s:alias val="$pmux"/>
    <s:alias val="$mux"/>
    <s:alias val="$_MUX_"/>
    <path d="M0,0 L20,10 L20,30 L0,40 Z" class="cell_$flatten\io_output_mux.$abc$246$auto$blifparse.cc:396:parse_blif$257"/>
    <g s:x="0" s:y="10" s:pid="A"/>
    <g s:x="0" s:y="30" s:pid="B"/>
    <g s:x="10" s:y="35" s:pid="S"/>
    <g s:x="20" s:y="20" s:pid="Y"/>
  </g>
  <g s:type="mux" transform="translate(459,1050)" s:width="20" s:height="40" id="cell_$flatten\io_output_mux.$abc$246$auto$blifparse.cc:396:parse_blif$258">
    <s:alias val="$pmux"/>
    <s:alias val="$mux"/>
    <s:alias val="$_MUX_"/>
    <path d="M0,0 L20,10 L20,30 L0,40 Z" class="cell_$flatten\io_output_mux.$abc$246$auto$blifparse.cc:396:parse_blif$258"/>
    <g s:x="0" s:y="10" s:pid="A"/>
    <g s:x="0" s:y="30" s:pid="B"/>
    <g s:x="10" s:y="35" s:pid="S"/>
    <g s:x="20" s:y="20" s:pid="Y"/>
  </g>
  <g s:type="mux" transform="translate(599,1160)" s:width="20" s:height="40" id="cell_$flatten\io_output_mux.$abc$246$auto$blifparse.cc:396:parse_blif$259">
    <s:alias val="$pmux"/>
    <s:alias val="$mux"/>
    <s:alias val="$_MUX_"/>
    <path d="M0,0 L20,10 L20,30 L0,40 Z" class="cell_$flatten\io_output_mux.$abc$246$auto$blifparse.cc:396:parse_blif$259"/>
    <g s:x="0" s:y="10" s:pid="A"/>
    <g s:x="0" s:y="30" s:pid="B"/>
    <g s:x="10" s:y="35" s:pid="S"/>
    <g s:x="20" s:y="20" s:pid="Y"/>
  </g>
  <g s:type="mux" transform="translate(459,486)" s:width="20" s:height="40" id="cell_$flatten\io_output_mux.$abc$246$auto$blifparse.cc:396:parse_blif$260">
    <s:alias val="$pmux"/>
    <s:alias val="$mux"/>
    <s:alias val="$_MUX_"/>
    <path d="M0,0 L20,10 L20,30 L0,40 Z" class="cell_$flatten\io_output_mux.$abc$246$auto$blifparse.cc:396:parse_blif$260"/>
    <g s:x="0" s:y="10" s:pid="A"/>
    <g s:x="0" s:y="30" s:pid="B"/>
    <g s:x="10" s:y="35" s:pid="S"/>
    <g s:x="20" s:y="20" s:pid="Y"/>
  </g>
  <g s:type="mux" transform="translate(459,1110)" s:width="20" s:height="40" id="cell_$flatten\io_output_mux.$abc$246$auto$blifparse.cc:396:parse_blif$261">
    <s:alias val="$pmux"/>
    <s:alias val="$mux"/>
    <s:alias val="$_MUX_"/>
    <path d="M0,0 L20,10 L20,30 L0,40 Z" class="cell_$flatten\io_output_mux.$abc$246$auto$blifparse.cc:396:parse_blif$261"/>
    <g s:x="0" s:y="10" s:pid="A"/>
    <g s:x="0" s:y="30" s:pid="B"/>
    <g s:x="10" s:y="35" s:pid="S"/>
    <g s:x="20" s:y="20" s:pid="Y"/>
  </g>
  <g s:type="mux" transform="translate(599,1100)" s:width="20" s:height="40" id="cell_$flatten\io_output_mux.$abc$246$auto$blifparse.cc:396:parse_blif$262">
    <s:alias val="$pmux"/>
    <s:alias val="$mux"/>
    <s:alias val="$_MUX_"/>
    <path d="M0,0 L20,10 L20,30 L0,40 Z" class="cell_$flatten\io_output_mux.$abc$246$auto$blifparse.cc:396:parse_blif$262"/>
    <g s:x="0" s:y="10" s:pid="A"/>
    <g s:x="0" s:y="30" s:pid="B"/>
    <g s:x="10" s:y="35" s:pid="S"/>
    <g s:x="20" s:y="20" s:pid="Y"/>
  </g>
  <g s:type="mux" transform="translate(459,546)" s:width="20" s:height="40" id="cell_$flatten\io_output_mux.$abc$246$auto$blifparse.cc:396:parse_blif$263">
    <s:alias val="$pmux"/>
    <s:alias val="$mux"/>
    <s:alias val="$_MUX_"/>
    <path d="M0,0 L20,10 L20,30 L0,40 Z" class="cell_$flatten\io_output_mux.$abc$246$auto$blifparse.cc:396:parse_blif$263"/>
    <g s:x="0" s:y="10" s:pid="A"/>
    <g s:x="0" s:y="30" s:pid="B"/>
    <g s:x="10" s:y="35" s:pid="S"/>
    <g s:x="20" s:y="20" s:pid="Y"/>
  </g>
  <g s:type="mux" transform="translate(459,1230)" s:width="20" s:height="40" id="cell_$flatten\io_output_mux.$abc$246$auto$blifparse.cc:396:parse_blif$264">
    <s:alias val="$pmux"/>
    <s:alias val="$mux"/>
    <s:alias val="$_MUX_"/>
    <path d="M0,0 L20,10 L20,30 L0,40 Z" class="cell_$flatten\io_output_mux.$abc$246$auto$blifparse.cc:396:parse_blif$264"/>
    <g s:x="0" s:y="10" s:pid="A"/>
    <g s:x="0" s:y="30" s:pid="B"/>
    <g s:x="10" s:y="35" s:pid="S"/>
    <g s:x="20" s:y="20" s:pid="Y"/>
  </g>
  <g s:type="mux" transform="translate(599,1220)" s:width="20" s:height="40" id="cell_$flatten\io_output_mux.$abc$246$auto$blifparse.cc:396:parse_blif$265">
    <s:alias val="$pmux"/>
    <s:alias val="$mux"/>
    <s:alias val="$_MUX_"/>
    <path d="M0,0 L20,10 L20,30 L0,40 Z" class="cell_$flatten\io_output_mux.$abc$246$auto$blifparse.cc:396:parse_blif$265"/>
    <g s:x="0" s:y="10" s:pid="A"/>
    <g s:x="0" s:y="30" s:pid="B"/>
    <g s:x="10" s:y="35" s:pid="S"/>
    <g s:x="20" s:y="20" s:pid="Y"/>
  </g>
  <g s:type="mux" transform="translate(459,617)" s:width="20" s:height="40" id="cell_$flatten\io_output_mux.$abc$246$auto$blifparse.cc:396:parse_blif$266">
    <s:alias val="$pmux"/>
    <s:alias val="$mux"/>
    <s:alias val="$_MUX_"/>
    <path d="M0,0 L20,10 L20,30 L0,40 Z" class="cell_$flatten\io_output_mux.$abc$246$auto$blifparse.cc:396:parse_blif$266"/>
    <g s:x="0" s:y="10" s:pid="A"/>
    <g s:x="0" s:y="30" s:pid="B"/>
    <g s:x="10" s:y="35" s:pid="S"/>
    <g s:x="20" s:y="20" s:pid="Y"/>
  </g>
  <g s:type="mux" transform="translate(459,1290)" s:width="20" s:height="40" id="cell_$flatten\io_output_mux.$abc$246$auto$blifparse.cc:396:parse_blif$267">
    <s:alias val="$pmux"/>
    <s:alias val="$mux"/>
    <s:alias val="$_MUX_"/>
    <path d="M0,0 L20,10 L20,30 L0,40 Z" class="cell_$flatten\io_output_mux.$abc$246$auto$blifparse.cc:396:parse_blif$267"/>
    <g s:x="0" s:y="10" s:pid="A"/>
    <g s:x="0" s:y="30" s:pid="B"/>
    <g s:x="10" s:y="35" s:pid="S"/>
    <g s:x="20" s:y="20" s:pid="Y"/>
  </g>
  <g s:type="mux" transform="translate(599,1280)" s:width="20" s:height="40" id="cell_$flatten\io_output_mux.$abc$246$auto$blifparse.cc:396:parse_blif$268">
    <s:alias val="$pmux"/>
    <s:alias val="$mux"/>
    <s:alias val="$_MUX_"/>
    <path d="M0,0 L20,10 L20,30 L0,40 Z" class="cell_$flatten\io_output_mux.$abc$246$auto$blifparse.cc:396:parse_blif$268"/>
    <g s:x="0" s:y="10" s:pid="A"/>
    <g s:x="0" s:y="30" s:pid="B"/>
    <g s:x="10" s:y="35" s:pid="S"/>
    <g s:x="20" s:y="20" s:pid="Y"/>
  </g>
  <g s:type="mux" transform="translate(459,688)" s:width="20" s:height="40" id="cell_$flatten\io_output_mux.$abc$246$auto$blifparse.cc:396:parse_blif$269">
    <s:alias val="$pmux"/>
    <s:alias val="$mux"/>
    <s:alias val="$_MUX_"/>
    <path d="M0,0 L20,10 L20,30 L0,40 Z" class="cell_$flatten\io_output_mux.$abc$246$auto$blifparse.cc:396:parse_blif$269"/>
    <g s:x="0" s:y="10" s:pid="A"/>
    <g s:x="0" s:y="30" s:pid="B"/>
    <g s:x="10" s:y="35" s:pid="S"/>
    <g s:x="20" s:y="20" s:pid="Y"/>
  </g>
  <g s:type="mux" transform="translate(459,1350)" s:width="20" s:height="40" id="cell_$flatten\io_output_mux.$abc$246$auto$blifparse.cc:396:parse_blif$270">
    <s:alias val="$pmux"/>
    <s:alias val="$mux"/>
    <s:alias val="$_MUX_"/>
    <path d="M0,0 L20,10 L20,30 L0,40 Z" class="cell_$flatten\io_output_mux.$abc$246$auto$blifparse.cc:396:parse_blif$270"/>
    <g s:x="0" s:y="10" s:pid="A"/>
    <g s:x="0" s:y="30" s:pid="B"/>
    <g s:x="10" s:y="35" s:pid="S"/>
    <g s:x="20" s:y="20" s:pid="Y"/>
  </g>
  <g s:type="mux" transform="translate(599,1340)" s:width="20" s:height="40" id="cell_$flatten\io_output_mux.$abc$246$auto$blifparse.cc:396:parse_blif$271">
    <s:alias val="$pmux"/>
    <s:alias val="$mux"/>
    <s:alias val="$_MUX_"/>
    <path d="M0,0 L20,10 L20,30 L0,40 Z" class="cell_$flatten\io_output_mux.$abc$246$auto$blifparse.cc:396:parse_blif$271"/>
    <g s:x="0" s:y="10" s:pid="A"/>
    <g s:x="0" s:y="30" s:pid="B"/>
    <g s:x="10" s:y="35" s:pid="S"/>
    <g s:x="20" s:y="20" s:pid="Y"/>
  </g>
  <g s:type="inputExt" transform="translate(12,22)" s:width="30" s:height="20" id="cell_clock">
    <text x="15" y="-4" class="nodelabel cell_clock" s:attribute="ref">clock</text>
    <s:alias val="$_inputExt_"/>
    <path d="M0,0 L0,20 L15,20 L30,10 L15,0 Z" class="cell_clock"/>
    <g s:x="28" s:y="10" s:pid="Y"/>
  </g>
  <g s:type="inputExt" transform="translate(54,22)" s:width="30" s:height="20" id="cell_reset">
    <text x="15" y="-4" class="nodelabel cell_reset" s:attribute="ref">reset</text>
    <s:alias val="$_inputExt_"/>
    <path d="M0,0 L0,20 L15,20 L30,10 L15,0 Z" class="cell_reset"/>
    <g s:x="28" s:y="10" s:pid="Y"/>
  </g>
  <g s:type="inputExt" transform="translate(96,416)" s:width="30" s:height="20" id="cell_io_inputs_0">
    <text x="15" y="-4" class="nodelabel cell_io_inputs_0" s:attribute="ref">io_inputs_0</text>
    <s:alias val="$_inputExt_"/>
    <path d="M0,0 L0,20 L15,20 L30,10 L15,0 Z" class="cell_io_inputs_0"/>
    <g s:x="28" s:y="10" s:pid="Y"/>
  </g>
  <g s:type="inputExt" transform="translate(96,34.5)" s:width="30" s:height="20" id="cell_io_inputs_1">
    <text x="15" y="-4" class="nodelabel cell_io_inputs_1" s:attribute="ref">io_inputs_1</text>
    <s:alias val="$_inputExt_"/>
    <path d="M0,0 L0,20 L15,20 L30,10 L15,0 Z" class="cell_io_inputs_1"/>
    <g s:x="28" s:y="10" s:pid="Y"/>
  </g>
  <g s:type="inputExt" transform="translate(96,730.5)" s:width="30" s:height="20" id="cell_io_inputs_2">
    <text x="15" y="-4" class="nodelabel cell_io_inputs_2" s:attribute="ref">io_inputs_2</text>
    <s:alias val="$_inputExt_"/>
    <path d="M0,0 L0,20 L15,20 L30,10 L15,0 Z" class="cell_io_inputs_2"/>
    <g s:x="28" s:y="10" s:pid="Y"/>
  </g>
  <g s:type="inputExt" transform="translate(96,1060)" s:width="30" s:height="20" id="cell_io_inputs_3">
    <text x="15" y="-4" class="nodelabel cell_io_inputs_3" s:attribute="ref">io_inputs_3</text>
    <s:alias val="$_inputExt_"/>
    <path d="M0,0 L0,20 L15,20 L30,10 L15,0 Z" class="cell_io_inputs_3"/>
    <g s:x="28" s:y="10" s:pid="Y"/>
  </g>
  <g s:type="inputExt" transform="translate(96,216.5)" s:width="30" s:height="20" id="cell_io_select">
    <text x="15" y="-4" class="nodelabel cell_io_select" s:attribute="ref">io_select</text>
    <s:alias val="$_inputExt_"/>
    <path d="M0,0 L0,20 L15,20 L30,10 L15,0 Z" class="cell_io_select"/>
    <g s:x="28" s:y="10" s:pid="Y"/>
  </g>
  <g s:type="outputExt" transform="translate(722,1180)" s:width="30" s:height="20" id="cell_io_output">
    <text x="15" y="-4" class="nodelabel cell_io_output" s:attribute="ref">io_output</text>
    <s:alias val="$_outputExt_"/>
    <path d="M30,0 L30,20 L15,20 L0,10 L15,0 Z" class="cell_io_output"/>
    <g s:x="0" s:y="10" s:pid="A"/>
  </g>
  <g s:type="join" transform="translate(679,1169.5)" s:width="4" s:height="40" id="cell_$join$,38,39,40,41,42,43,44,45,">
    <rect width="5" height="160" class="splitjoinBody" s:generic="body"/>
    <s:alias val="$_join_"/>
    <g s:x="5" s:y="20" s:pid="out"/>
    <g transform="translate(0,10)" s:x="0" s:y="10" s:pid="in0">
      <text x="-3" y="-4" class="inputPortLabel">0</text>
    </g>
    <g transform="translate(0,30)" s:x="0" s:y="10" s:pid="in0">
      <text x="-3" y="-4" class="inputPortLabel">1</text>
    </g>
    <g transform="translate(0,50)" s:x="0" s:y="10" s:pid="in0">
      <text x="-3" y="-4" class="inputPortLabel">2</text>
    </g>
    <g transform="translate(0,70)" s:x="0" s:y="10" s:pid="in0">
      <text x="-3" y="-4" class="inputPortLabel">3</text>
    </g>
    <g transform="translate(0,90)" s:x="0" s:y="10" s:pid="in0">
      <text x="-3" y="-4" class="inputPortLabel">4</text>
    </g>
    <g transform="translate(0,110)" s:x="0" s:y="10" s:pid="in0">
      <text x="-3" y="-4" class="inputPortLabel">5</text>
    </g>
    <g transform="translate(0,130)" s:x="0" s:y="10" s:pid="in0">
      <text x="-3" y="-4" class="inputPortLabel">6</text>
    </g>
    <g transform="translate(0,150)" s:x="0" s:y="10" s:pid="in0">
      <text x="-3" y="-4" class="inputPortLabel">7</text>
    </g>
  </g>
  <g s:type="split" transform="translate(197,405.5)" s:width="5" s:height="40" id="cell_$split$,4,5,6,7,8,9,10,11,">
    <rect width="5" height="160" class="splitjoinBody" s:generic="body"/>
    <s:alias val="$_split_"/>
    <g s:x="0" s:y="20" s:pid="in"/>
    <g transform="translate(4,10)" s:x="4" s:y="10" s:pid="out0">
      <text x="5" y="-4">0</text>
    </g>
    <g transform="translate(4,30)" s:x="4" s:y="10" s:pid="out0">
      <text x="5" y="-4">1</text>
    </g>
    <g transform="translate(4,50)" s:x="4" s:y="10" s:pid="out0">
      <text x="5" y="-4">2</text>
    </g>
    <g transform="translate(4,70)" s:x="4" s:y="10" s:pid="out0">
      <text x="5" y="-4">3</text>
    </g>
    <g transform="translate(4,90)" s:x="4" s:y="10" s:pid="out0">
      <text x="5" y="-4">4</text>
    </g>
    <g transform="translate(4,110)" s:x="4" s:y="10" s:pid="out0">
      <text x="5" y="-4">5</text>
    </g>
    <g transform="translate(4,130)" s:x="4" s:y="10" s:pid="out0">
      <text x="5" y="-4">6</text>
    </g>
    <g transform="translate(4,150)" s:x="4" s:y="10" s:pid="out0">
      <text x="5" y="-4">7</text>
    </g>
  </g>
  <g s:type="split" transform="translate(197,24)" s:width="5" s:height="40" id="cell_$split$,12,13,14,15,16,17,18,19,">
    <rect width="5" height="160" class="splitjoinBody" s:generic="body"/>
    <s:alias val="$_split_"/>
    <g s:x="0" s:y="20" s:pid="in"/>
    <g transform="translate(4,10)" s:x="4" s:y="10" s:pid="out0">
      <text x="5" y="-4">0</text>
    </g>
    <g transform="translate(4,30)" s:x="4" s:y="10" s:pid="out0">
      <text x="5" y="-4">1</text>
    </g>
    <g transform="translate(4,50)" s:x="4" s:y="10" s:pid="out0">
      <text x="5" y="-4">2</text>
    </g>
    <g transform="translate(4,70)" s:x="4" s:y="10" s:pid="out0">
      <text x="5" y="-4">3</text>
    </g>
    <g transform="translate(4,90)" s:x="4" s:y="10" s:pid="out0">
      <text x="5" y="-4">4</text>
    </g>
    <g transform="translate(4,110)" s:x="4" s:y="10" s:pid="out0">
      <text x="5" y="-4">5</text>
    </g>
    <g transform="translate(4,130)" s:x="4" s:y="10" s:pid="out0">
      <text x="5" y="-4">6</text>
    </g>
    <g transform="translate(4,150)" s:x="4" s:y="10" s:pid="out0">
      <text x="5" y="-4">7</text>
    </g>
  </g>
  <g s:type="split" transform="translate(197,206)" s:width="5" s:height="40" id="cell_$split$,36,37,">
    <rect width="5" height="40" class="splitjoinBody" s:generic="body"/>
    <s:alias val="$_split_"/>
    <g s:x="0" s:y="20" s:pid="in"/>
    <g transform="translate(4,10)" s:x="4" s:y="10" s:pid="out0">
      <text x="5" y="-4">0</text>
    </g>
    <g transform="translate(4,30)" s:x="4" s:y="10" s:pid="out0">
      <text x="5" y="-4">1</text>
    </g>
  </g>
  <g s:type="split" transform="translate(197,720)" s:width="5" s:height="40" id="cell_$split$,20,21,22,23,24,25,26,27,">
    <rect width="5" height="160" class="splitjoinBody" s:generic="body"/>
    <s:alias val="$_split_"/>
    <g s:x="0" s:y="20" s:pid="in"/>
    <g transform="translate(4,10)" s:x="4" s:y="10" s:pid="out0">
      <text x="5" y="-4">0</text>
    </g>
    <g transform="translate(4,30)" s:x="4" s:y="10" s:pid="out0">
      <text x="5" y="-4">1</text>
    </g>
    <g transform="translate(4,50)" s:x="4" s:y="10" s:pid="out0">
      <text x="5" y="-4">2</text>
    </g>
    <g transform="translate(4,70)" s:x="4" s:y="10" s:pid="out0">
      <text x="5" y="-4">3</text>
    </g>
    <g transform="translate(4,90)" s:x="4" s:y="10" s:pid="out0">
      <text x="5" y="-4">4</text>
    </g>
    <g transform="translate(4,110)" s:x="4" s:y="10" s:pid="out0">
      <text x="5" y="-4">5</text>
    </g>
    <g transform="translate(4,130)" s:x="4" s:y="10" s:pid="out0">
      <text x="5" y="-4">6</text>
    </g>
    <g transform="translate(4,150)" s:x="4" s:y="10" s:pid="out0">
      <text x="5" y="-4">7</text>
    </g>
  </g>
  <g s:type="split" transform="translate(197,1049.5)" s:width="5" s:height="40" id="cell_$split$,28,29,30,31,32,33,34,35,">
    <rect width="5" height="160" class="splitjoinBody" s:generic="body"/>
    <s:alias val="$_split_"/>
    <g s:x="0" s:y="20" s:pid="in"/>
    <g transform="translate(4,10)" s:x="4" s:y="10" s:pid="out0">
      <text x="5" y="-4">0</text>
    </g>
    <g transform="translate(4,30)" s:x="4" s:y="10" s:pid="out0">
      <text x="5" y="-4">1</text>
    </g>
    <g transform="translate(4,50)" s:x="4" s:y="10" s:pid="out0">
      <text x="5" y="-4">2</text>
    </g>
    <g transform="translate(4,70)" s:x="4" s:y="10" s:pid="out0">
      <text x="5" y="-4">3</text>
    </g>
    <g transform="translate(4,90)" s:x="4" s:y="10" s:pid="out0">
      <text x="5" y="-4">4</text>
    </g>
    <g transform="translate(4,110)" s:x="4" s:y="10" s:pid="out0">
      <text x="5" y="-4">5</text>
    </g>
    <g transform="translate(4,130)" s:x="4" s:y="10" s:pid="out0">
      <text x="5" y="-4">6</text>
    </g>
    <g transform="translate(4,150)" s:x="4" s:y="10" s:pid="out0">
      <text x="5" y="-4">7</text>
    </g>
  </g>
  <line x1="201.5" x2="201.5" y1="415.5" y2="256" class="net_4"/>
  <line x1="201.5" x2="459" y1="256" y2="256" class="net_4"/>
  <line x1="201.5" x2="201.5" y1="34" y2="12" class="net_12"/>
  <line x1="201.5" x2="449" y1="12" y2="12" class="net_12"/>
  <line x1="449" x2="449" y1="12" y2="276" class="net_12"/>
  <line x1="449" x2="459" y1="276" y2="276" class="net_12"/>
  <line x1="202" x2="419" y1="216.5" y2="216.5" class="net_36"/>
  <line x1="419" x2="419" y1="216.5" y2="296" class="net_36"/>
  <line x1="419" x2="469" y1="296" y2="296" class="net_36"/>
  <circle cx="419" cy="296" r="2" style="fill:#000" class="net_36"/>
  <line x1="469" x2="469" y1="296" y2="281" class="net_36"/>
  <line x1="202" x2="419" y1="216.5" y2="216.5" class="net_36"/>
  <line x1="419" x2="419" y1="216.5" y2="920" class="net_36"/>
  <line x1="419" x2="469" y1="920" y2="920" class="net_36"/>
  <circle cx="419" cy="920" r="2" style="fill:#000" class="net_36"/>
  <line x1="469" x2="469" y1="920" y2="905" class="net_36"/>
  <line x1="202" x2="419" y1="216.5" y2="216.5" class="net_36"/>
  <line x1="419" x2="419" y1="216.5" y2="356" class="net_36"/>
  <line x1="419" x2="469" y1="356" y2="356" class="net_36"/>
  <circle cx="419" cy="356" r="2" style="fill:#000" class="net_36"/>
  <line x1="469" x2="469" y1="356" y2="341" class="net_36"/>
  <line x1="202" x2="419" y1="216.5" y2="216.5" class="net_36"/>
  <line x1="419" x2="419" y1="216.5" y2="980" class="net_36"/>
  <line x1="419" x2="469" y1="980" y2="980" class="net_36"/>
  <circle cx="419" cy="980" r="2" style="fill:#000" class="net_36"/>
  <line x1="469" x2="469" y1="980" y2="965" class="net_36"/>
  <line x1="202" x2="419" y1="216.5" y2="216.5" class="net_36"/>
  <line x1="419" x2="419" y1="216.5" y2="416" class="net_36"/>
  <line x1="419" x2="469" y1="416" y2="416" class="net_36"/>
  <circle cx="419" cy="416" r="2" style="fill:#000" class="net_36"/>
  <line x1="469" x2="469" y1="416" y2="401" class="net_36"/>
  <line x1="202" x2="419" y1="216.5" y2="216.5" class="net_36"/>
  <line x1="419" x2="419" y1="216.5" y2="1040" class="net_36"/>
  <line x1="419" x2="469" y1="1040" y2="1040" class="net_36"/>
  <circle cx="419" cy="1040" r="2" style="fill:#000" class="net_36"/>
  <line x1="469" x2="469" y1="1040" y2="1025" class="net_36"/>
  <line x1="202" x2="419" y1="216.5" y2="216.5" class="net_36"/>
  <line x1="419" x2="419" y1="216.5" y2="476" class="net_36"/>
  <line x1="419" x2="469" y1="476" y2="476" class="net_36"/>
  <circle cx="419" cy="476" r="2" style="fill:#000" class="net_36"/>
  <line x1="469" x2="469" y1="476" y2="461" class="net_36"/>
  <line x1="202" x2="419" y1="216.5" y2="216.5" class="net_36"/>
  <line x1="419" x2="419" y1="216.5" y2="1100" class="net_36"/>
  <line x1="419" x2="469" y1="1100" y2="1100" class="net_36"/>
  <circle cx="419" cy="1100" r="2" style="fill:#000" class="net_36"/>
  <line x1="469" x2="469" y1="1100" y2="1085" class="net_36"/>
  <line x1="202" x2="419" y1="216.5" y2="216.5" class="net_36"/>
  <line x1="419" x2="419" y1="216.5" y2="536" class="net_36"/>
  <line x1="419" x2="469" y1="536" y2="536" class="net_36"/>
  <circle cx="419" cy="536" r="2" style="fill:#000" class="net_36"/>
  <line x1="469" x2="469" y1="536" y2="521" class="net_36"/>
  <line x1="202" x2="419" y1="216.5" y2="216.5" class="net_36"/>
  <line x1="419" x2="419" y1="216.5" y2="1160" class="net_36"/>
  <line x1="419" x2="469" y1="1160" y2="1160" class="net_36"/>
  <circle cx="419" cy="1160" r="2" style="fill:#000" class="net_36"/>
  <line x1="469" x2="469" y1="1160" y2="1145" class="net_36"/>
  <line x1="202" x2="419" y1="216.5" y2="216.5" class="net_36"/>
  <line x1="419" x2="419" y1="216.5" y2="596" class="net_36"/>
  <line x1="419" x2="469" y1="596" y2="596" class="net_36"/>
  <circle cx="419" cy="596" r="2" style="fill:#000" class="net_36"/>
  <line x1="469" x2="469" y1="596" y2="581" class="net_36"/>
  <line x1="202" x2="419" y1="216.5" y2="216.5" class="net_36"/>
  <line x1="419" x2="419" y1="216.5" y2="1280" class="net_36"/>
  <line x1="419" x2="469" y1="1280" y2="1280" class="net_36"/>
  <circle cx="419" cy="1280" r="2" style="fill:#000" class="net_36"/>
  <line x1="469" x2="469" y1="1280" y2="1265" class="net_36"/>
  <line x1="202" x2="419" y1="216.5" y2="216.5" class="net_36"/>
  <line x1="419" x2="419" y1="216.5" y2="667" class="net_36"/>
  <line x1="419" x2="469" y1="667" y2="667" class="net_36"/>
  <circle cx="419" cy="667" r="2" style="fill:#000" class="net_36"/>
  <line x1="469" x2="469" y1="667" y2="652" class="net_36"/>
  <line x1="202" x2="419" y1="216.5" y2="216.5" class="net_36"/>
  <line x1="419" x2="419" y1="216.5" y2="1340" class="net_36"/>
  <line x1="419" x2="469" y1="1340" y2="1340" class="net_36"/>
  <circle cx="419" cy="1340" r="2" style="fill:#000" class="net_36"/>
  <line x1="469" x2="469" y1="1340" y2="1325" class="net_36"/>
  <line x1="202" x2="419" y1="216.5" y2="216.5" class="net_36"/>
  <line x1="419" x2="419" y1="216.5" y2="738" class="net_36"/>
  <line x1="419" x2="469" y1="738" y2="738" class="net_36"/>
  <circle cx="419" cy="738" r="2" style="fill:#000" class="net_36"/>
  <line x1="469" x2="469" y1="738" y2="723" class="net_36"/>
  <line x1="202" x2="419" y1="216.5" y2="216.5" class="net_36"/>
  <line x1="419" x2="419" y1="216.5" y2="1400" class="net_36"/>
  <line x1="419" x2="469" y1="1400" y2="1400" class="net_36"/>
  <line x1="469" x2="469" y1="1400" y2="1385" class="net_36"/>
  <line x1="201.5" x2="201.5" y1="730" y2="708" class="net_20"/>
  <line x1="201.5" x2="319" y1="708" y2="708" class="net_20"/>
  <line x1="319" x2="319" y1="708" y2="880" class="net_20"/>
  <line x1="319" x2="459" y1="880" y2="880" class="net_20"/>
  <line x1="201.5" x2="201.5" y1="1059.5" y2="900" class="net_28"/>
  <line x1="201.5" x2="459" y1="900" y2="900" class="net_28"/>
  <line x1="479" x2="589" y1="266" y2="266" class="net_46"/>
  <line x1="589" x2="589" y1="266" y2="870" class="net_46"/>
  <line x1="589" x2="599" y1="870" y2="870" class="net_46"/>
  <line x1="479" x2="599" y1="890" y2="890" class="net_47"/>
  <line x1="202" x2="339" y1="236.5" y2="236.5" class="net_37"/>
  <line x1="339" x2="339" y1="236.5" y2="606" class="net_37"/>
  <line x1="339" x2="559" y1="606" y2="606" class="net_37"/>
  <line x1="559" x2="559" y1="606" y2="910" class="net_37"/>
  <line x1="559" x2="609" y1="910" y2="910" class="net_37"/>
  <circle cx="339" cy="606" r="2" style="fill:#000" class="net_37"/>
  <circle cx="559" cy="910" r="2" style="fill:#000" class="net_37"/>
  <line x1="609" x2="609" y1="910" y2="895" class="net_37"/>
  <line x1="202" x2="339" y1="236.5" y2="236.5" class="net_37"/>
  <line x1="339" x2="339" y1="236.5" y2="606" class="net_37"/>
  <line x1="339" x2="559" y1="606" y2="606" class="net_37"/>
  <line x1="559" x2="559" y1="606" y2="970" class="net_37"/>
  <line x1="559" x2="609" y1="970" y2="970" class="net_37"/>
  <circle cx="559" cy="970" r="2" style="fill:#000" class="net_37"/>
  <line x1="609" x2="609" y1="970" y2="955" class="net_37"/>
  <line x1="202" x2="339" y1="236.5" y2="236.5" class="net_37"/>
  <line x1="339" x2="339" y1="236.5" y2="606" class="net_37"/>
  <line x1="339" x2="559" y1="606" y2="606" class="net_37"/>
  <line x1="559" x2="559" y1="606" y2="1030" class="net_37"/>
  <line x1="559" x2="609" y1="1030" y2="1030" class="net_37"/>
  <circle cx="559" cy="1030" r="2" style="fill:#000" class="net_37"/>
  <line x1="609" x2="609" y1="1030" y2="1015" class="net_37"/>
  <line x1="202" x2="339" y1="236.5" y2="236.5" class="net_37"/>
  <line x1="339" x2="339" y1="236.5" y2="606" class="net_37"/>
  <line x1="339" x2="559" y1="606" y2="606" class="net_37"/>
  <line x1="559" x2="559" y1="606" y2="1210" class="net_37"/>
  <line x1="559" x2="609" y1="1210" y2="1210" class="net_37"/>
  <circle cx="559" cy="1210" r="2" style="fill:#000" class="net_37"/>
  <line x1="609" x2="609" y1="1210" y2="1195" class="net_37"/>
  <line x1="202" x2="339" y1="236.5" y2="236.5" class="net_37"/>
  <line x1="339" x2="339" y1="236.5" y2="606" class="net_37"/>
  <line x1="339" x2="559" y1="606" y2="606" class="net_37"/>
  <line x1="559" x2="559" y1="606" y2="1150" class="net_37"/>
  <line x1="559" x2="609" y1="1150" y2="1150" class="net_37"/>
  <circle cx="559" cy="1150" r="2" style="fill:#000" class="net_37"/>
  <line x1="609" x2="609" y1="1150" y2="1135" class="net_37"/>
  <line x1="202" x2="339" y1="236.5" y2="236.5" class="net_37"/>
  <line x1="339" x2="339" y1="236.5" y2="677" class="net_37"/>
  <line x1="339" x2="509" y1="677" y2="677" class="net_37"/>
  <line x1="509" x2="509" y1="677" y2="1270" class="net_37"/>
  <line x1="509" x2="609" y1="1270" y2="1270" class="net_37"/>
  <circle cx="509" cy="1270" r="2" style="fill:#000" class="net_37"/>
  <line x1="609" x2="609" y1="1270" y2="1255" class="net_37"/>
  <line x1="202" x2="339" y1="236.5" y2="236.5" class="net_37"/>
  <line x1="339" x2="339" y1="236.5" y2="606" class="net_37"/>
  <line x1="339" x2="559" y1="606" y2="606" class="net_37"/>
  <line x1="559" x2="559" y1="606" y2="1330" class="net_37"/>
  <line x1="559" x2="609" y1="1330" y2="1330" class="net_37"/>
  <line x1="609" x2="609" y1="1330" y2="1315" class="net_37"/>
  <line x1="202" x2="339" y1="236.5" y2="236.5" class="net_37"/>
  <line x1="339" x2="339" y1="236.5" y2="677" class="net_37"/>
  <line x1="339" x2="509" y1="677" y2="677" class="net_37"/>
  <line x1="509" x2="509" y1="677" y2="1390" class="net_37"/>
  <line x1="509" x2="609" y1="1390" y2="1390" class="net_37"/>
  <line x1="609" x2="609" y1="1390" y2="1375" class="net_37"/>
  <line x1="202" x2="219" y1="436" y2="436" class="net_5"/>
  <line x1="219" x2="219" y1="436" y2="316" class="net_5"/>
  <line x1="219" x2="459" y1="316" y2="316" class="net_5"/>
  <line x1="202" x2="439" y1="54.5" y2="54.5" class="net_13"/>
  <line x1="439" x2="439" y1="54.5" y2="336" class="net_13"/>
  <line x1="439" x2="459" y1="336" y2="336" class="net_13"/>
  <line x1="202" x2="309" y1="750.5" y2="750.5" class="net_21"/>
  <line x1="309" x2="309" y1="750.5" y2="940" class="net_21"/>
  <line x1="309" x2="459" y1="940" y2="940" class="net_21"/>
  <line x1="202" x2="229" y1="1080" y2="1080" class="net_29"/>
  <line x1="229" x2="229" y1="1080" y2="960" class="net_29"/>
  <line x1="229" x2="459" y1="960" y2="960" class="net_29"/>
  <line x1="479" x2="579" y1="326" y2="326" class="net_48"/>
  <line x1="579" x2="579" y1="326" y2="930" class="net_48"/>
  <line x1="579" x2="599" y1="930" y2="930" class="net_48"/>
  <line x1="479" x2="599" y1="950" y2="950" class="net_49"/>
  <line x1="202" x2="379" y1="456" y2="456" class="net_6"/>
  <line x1="379" x2="379" y1="456" y2="376" class="net_6"/>
  <line x1="379" x2="459" y1="376" y2="376" class="net_6"/>
  <line x1="202" x2="429" y1="74.5" y2="74.5" class="net_14"/>
  <line x1="429" x2="429" y1="74.5" y2="396" class="net_14"/>
  <line x1="429" x2="459" y1="396" y2="396" class="net_14"/>
  <line x1="202" x2="299" y1="770.5" y2="770.5" class="net_22"/>
  <line x1="299" x2="299" y1="770.5" y2="1000" class="net_22"/>
  <line x1="299" x2="459" y1="1000" y2="1000" class="net_22"/>
  <line x1="202" x2="239" y1="1100" y2="1100" class="net_30"/>
  <line x1="239" x2="239" y1="1100" y2="1020" class="net_30"/>
  <line x1="239" x2="459" y1="1020" y2="1020" class="net_30"/>
  <line x1="479" x2="569" y1="386" y2="386" class="net_50"/>
  <line x1="569" x2="569" y1="386" y2="990" class="net_50"/>
  <line x1="569" x2="599" y1="990" y2="990" class="net_50"/>
  <line x1="479" x2="599" y1="1010" y2="1010" class="net_51"/>
  <line x1="202" x2="399" y1="476" y2="476" class="net_7"/>
  <line x1="399" x2="399" y1="476" y2="436" class="net_7"/>
  <line x1="399" x2="459" y1="436" y2="436" class="net_7"/>
  <line x1="202" x2="409" y1="94.5" y2="94.5" class="net_15"/>
  <line x1="409" x2="409" y1="94.5" y2="456" class="net_15"/>
  <line x1="409" x2="459" y1="456" y2="456" class="net_15"/>
  <line x1="202" x2="289" y1="790.5" y2="790.5" class="net_23"/>
  <line x1="289" x2="289" y1="790.5" y2="1060" class="net_23"/>
  <line x1="289" x2="459" y1="1060" y2="1060" class="net_23"/>
  <line x1="202" x2="259" y1="1120" y2="1120" class="net_31"/>
  <line x1="259" x2="259" y1="1120" y2="1080" class="net_31"/>
  <line x1="259" x2="459" y1="1080" y2="1080" class="net_31"/>
  <line x1="479" x2="549" y1="446" y2="446" class="net_52"/>
  <line x1="549" x2="549" y1="446" y2="1170" class="net_52"/>
  <line x1="549" x2="599" y1="1170" y2="1170" class="net_52"/>
  <line x1="479" x2="499" y1="1070" y2="1070" class="net_53"/>
  <line x1="499" x2="499" y1="1070" y2="1190" class="net_53"/>
  <line x1="499" x2="599" y1="1190" y2="1190" class="net_53"/>
  <line x1="202" x2="459" y1="496" y2="496" class="net_8"/>
  <line x1="202" x2="389" y1="114.5" y2="114.5" class="net_16"/>
  <line x1="389" x2="389" y1="114.5" y2="516" class="net_16"/>
  <line x1="389" x2="459" y1="516" y2="516" class="net_16"/>
  <line x1="202" x2="279" y1="810.5" y2="810.5" class="net_24"/>
  <line x1="279" x2="279" y1="810.5" y2="1120" class="net_24"/>
  <line x1="279" x2="459" y1="1120" y2="1120" class="net_24"/>
  <line x1="202" x2="459" y1="1140" y2="1140" class="net_32"/>
  <line x1="479" x2="539" y1="506" y2="506" class="net_54"/>
  <line x1="539" x2="539" y1="506" y2="1110" class="net_54"/>
  <line x1="539" x2="599" y1="1110" y2="1110" class="net_54"/>
  <line x1="479" x2="599" y1="1130" y2="1130" class="net_55"/>
  <line x1="202" x2="359" y1="516" y2="516" class="net_9"/>
  <line x1="359" x2="359" y1="516" y2="556" class="net_9"/>
  <line x1="359" x2="459" y1="556" y2="556" class="net_9"/>
  <line x1="202" x2="369" y1="134.5" y2="134.5" class="net_17"/>
  <line x1="369" x2="369" y1="134.5" y2="576" class="net_17"/>
  <line x1="369" x2="459" y1="576" y2="576" class="net_17"/>
  <line x1="202" x2="269" y1="830.5" y2="830.5" class="net_25"/>
  <line x1="269" x2="269" y1="830.5" y2="1240" class="net_25"/>
  <line x1="269" x2="459" y1="1240" y2="1240" class="net_25"/>
  <line x1="202" x2="239" y1="1160" y2="1160" class="net_33"/>
  <line x1="239" x2="239" y1="1160" y2="1260" class="net_33"/>
  <line x1="239" x2="459" y1="1260" y2="1260" class="net_33"/>
  <line x1="479" x2="529" y1="566" y2="566" class="net_56"/>
  <line x1="529" x2="529" y1="566" y2="1230" class="net_56"/>
  <line x1="529" x2="599" y1="1230" y2="1230" class="net_56"/>
  <line x1="479" x2="599" y1="1250" y2="1250" class="net_57"/>
  <line x1="202" x2="219" y1="536" y2="536" class="net_10"/>
  <line x1="219" x2="219" y1="536" y2="627" class="net_10"/>
  <line x1="219" x2="459" y1="627" y2="627" class="net_10"/>
  <line x1="202" x2="349" y1="154.5" y2="154.5" class="net_18"/>
  <line x1="349" x2="349" y1="154.5" y2="647" class="net_18"/>
  <line x1="349" x2="459" y1="647" y2="647" class="net_18"/>
  <line x1="202" x2="249" y1="850.5" y2="850.5" class="net_26"/>
  <line x1="249" x2="249" y1="850.5" y2="1300" class="net_26"/>
  <line x1="249" x2="459" y1="1300" y2="1300" class="net_26"/>
  <line x1="202" x2="229" y1="1180" y2="1180" class="net_34"/>
  <line x1="229" x2="229" y1="1180" y2="1320" class="net_34"/>
  <line x1="229" x2="459" y1="1320" y2="1320" class="net_34"/>
  <line x1="479" x2="519" y1="637" y2="637" class="net_58"/>
  <line x1="519" x2="519" y1="637" y2="1290" class="net_58"/>
  <line x1="519" x2="599" y1="1290" y2="1290" class="net_58"/>
  <line x1="479" x2="599" y1="1310" y2="1310" class="net_59"/>
  <line x1="201.5" x2="201.5" y1="556.5" y2="698" class="net_11"/>
  <line x1="201.5" x2="459" y1="698" y2="698" class="net_11"/>
  <line x1="201.5" x2="201.5" y1="175" y2="194" class="net_19"/>
  <line x1="201.5" x2="329" y1="194" y2="194" class="net_19"/>
  <line x1="329" x2="329" y1="194" y2="718" class="net_19"/>
  <line x1="329" x2="459" y1="718" y2="718" class="net_19"/>
  <line x1="201.5" x2="201.5" y1="871" y2="890" class="net_27"/>
  <line x1="201.5" x2="219" y1="890" y2="890" class="net_27"/>
  <line x1="219" x2="219" y1="890" y2="1360" class="net_27"/>
  <line x1="219" x2="459" y1="1360" y2="1360" class="net_27"/>
  <line x1="201.5" x2="201.5" y1="1200.5" y2="1380" class="net_35"/>
  <line x1="201.5" x2="459" y1="1380" y2="1380" class="net_35"/>
  <line x1="479" x2="489" y1="708" y2="708" class="net_60"/>
  <line x1="489" x2="489" y1="708" y2="1350" class="net_60"/>
  <line x1="489" x2="599" y1="1350" y2="1350" class="net_60"/>
  <line x1="479" x2="599" y1="1370" y2="1370" class="net_61"/>
  <line x1="685" x2="722" y1="1190" y2="1190" class="net_38,39,40,41,42,43,44,45"/>
  <line x1="619" x2="679.5" y1="880" y2="880" class="net_38"/>
  <line x1="679.5" x2="679.5" y1="880" y2="1179.5" class="net_38"/>
  <line x1="619" x2="669" y1="940" y2="940" class="net_39"/>
  <line x1="669" x2="669" y1="940" y2="1200" class="net_39"/>
  <line x1="669" x2="679" y1="1200" y2="1200" class="net_39"/>
  <line x1="619" x2="659" y1="1000" y2="1000" class="net_40"/>
  <line x1="659" x2="659" y1="1000" y2="1220" class="net_40"/>
  <line x1="659" x2="679" y1="1220" y2="1220" class="net_40"/>
  <line x1="619" x2="639" y1="1180" y2="1180" class="net_41"/>
  <line x1="639" x2="639" y1="1180" y2="1240" class="net_41"/>
  <line x1="639" x2="679" y1="1240" y2="1240" class="net_41"/>
  <line x1="619" x2="649" y1="1120" y2="1120" class="net_42"/>
  <line x1="649" x2="649" y1="1120" y2="1260" class="net_42"/>
  <line x1="649" x2="679" y1="1260" y2="1260" class="net_42"/>
  <line x1="619" x2="629" y1="1240" y2="1240" class="net_43"/>
  <line x1="629" x2="629" y1="1240" y2="1280" class="net_43"/>
  <line x1="629" x2="679" y1="1280" y2="1280" class="net_43"/>
  <line x1="619" x2="679" y1="1300" y2="1300" class="net_44"/>
  <line x1="619" x2="679.5" y1="1360" y2="1360" class="net_45"/>
  <line x1="679.5" x2="679.5" y1="1360" y2="1320.5" class="net_45"/>
  <line x1="124" x2="197" y1="426" y2="426" class="net_4,5,6,7,8,9,10,11"/>
  <line x1="124" x2="197" y1="44.5" y2="44.5" class="net_12,13,14,15,16,17,18,19"/>
  <line x1="124" x2="197" y1="226.5" y2="226.5" class="net_36,37"/>
  <line x1="124" x2="197" y1="740.5" y2="740.5" class="net_20,21,22,23,24,25,26,27"/>
  <line x1="124" x2="197" y1="1070" y2="1070" class="net_28,29,30,31,32,33,34,35"/>
</svg>
