<svg xmlns="http://www.w3.org/2000/svg" xmlns:xlink="http://www.w3.org/1999/xlink" xmlns:s="https://github.com/nturley/netlistsvg" width="451" height="314">
  <style>svg {
    stroke:#000;
    fill:none;
  }
  text {
    fill:#000;
    stroke:none;
    font-size:10px;
    font-weight: bold;
    font-family: "Courier New", monospace;
  }
  .nodelabel {
    text-anchor: middle;
  }
  .inputPortLabel {
    text-anchor: end;
  }
  .splitjoinBody {
    fill:#000;
  }</style>
  <g s:type="generic" transform="translate(264,111.5)" s:width="30" s:height="40" id="cell_io_output_mux">
    <text x="15" y="-4" class="nodelabel cell_io_output_mux" s:attribute="ref">Multiplexer</text>
    <rect width="30" height="100" s:generic="body" class="cell_io_output_mux"/>
    <g transform="translate(0,10)" s:x="0" s:y="10" s:pid="in0" id="port_io_output_mux~io_inputs_0">
      <text x="-3" y="-4" class="inputPortLabel cell_io_output_mux">io_inputs_0</text>
    </g>
    <g transform="translate(0,30)" s:x="0" s:y="10" s:pid="in0" id="port_io_output_mux~io_inputs_1">
      <text x="-3" y="-4" class="inputPortLabel cell_io_output_mux">io_inputs_1</text>
    </g>
    <g transform="translate(0,50)" s:x="0" s:y="10" s:pid="in0" id="port_io_output_mux~io_inputs_2">
      <text x="-3" y="-4" class="inputPortLabel cell_io_output_mux">io_inputs_2</text>
    </g>
    <g transform="translate(0,70)" s:x="0" s:y="10" s:pid="in0" id="port_io_output_mux~io_inputs_3">
      <text x="-3" y="-4" class="inputPortLabel cell_io_output_mux">io_inputs_3</text>
    </g>
    <g transform="translate(0,90)" s:x="0" s:y="10" s:pid="in0" id="port_io_output_mux~io_select">
      <text x="-3" y="-4" class="inputPortLabel cell_io_output_mux">io_select</text>
    </g>
    <g transform="translate(30,10)" s:x="30" s:y="10" s:pid="out0" id="port_io_output_mux~io_output">
      <text x="5" y="-4" style="fill:#000; stroke:none" class="cell_io_output_mux">io_output</text>
    </g>
  </g>
  <g s:type="inputExt" transform="translate(12,22)" s:width="30" s:height="20" id="cell_clock">
    <text x="15" y="-4" class="nodelabel cell_clock" s:attribute="ref">clock</text>
    <s:alias val="$_inputExt_"/>
    <path d="M0,0 L0,20 L15,20 L30,10 L15,0 Z" class="cell_clock"/>
    <g s:x="28" s:y="10" s:pid="Y"/>
  </g>
  <g s:type="inputExt" transform="translate(54,22)" s:width="30" s:height="20" id="cell_reset">
    <text x="15" y="-4" class="nodelabel cell_reset" s:attribute="ref">reset</text>
    <s:alias val="$_inputExt_"/>
    <path d="M0,0 L0,20 L15,20 L30,10 L15,0 Z" class="cell_reset"/>
    <g s:x="28" s:y="10" s:pid="Y"/>
  </g>
  <g s:type="inputExt" transform="translate(96,22)" s:width="30" s:height="20" id="cell_io_inputs_0">
    <text x="15" y="-4" class="nodelabel cell_io_inputs_0" s:attribute="ref">io_inputs_0</text>
    <s:alias val="$_inputExt_"/>
    <path d="M0,0 L0,20 L15,20 L30,10 L15,0 Z" class="cell_io_inputs_0"/>
    <g s:x="28" s:y="10" s:pid="Y"/>
  </g>
  <g s:type="inputExt" transform="translate(96,87)" s:width="30" s:height="20" id="cell_io_inputs_1">
    <text x="15" y="-4" class="nodelabel cell_io_inputs_1" s:attribute="ref">io_inputs_1</text>
    <s:alias val="$_inputExt_"/>
    <path d="M0,0 L0,20 L15,20 L30,10 L15,0 Z" class="cell_io_inputs_1"/>
    <g s:x="28" s:y="10" s:pid="Y"/>
  </g>
  <g s:type="inputExt" transform="translate(96,152)" s:width="30" s:height="20" id="cell_io_inputs_2">
    <text x="15" y="-4" class="nodelabel cell_io_inputs_2" s:attribute="ref">io_inputs_2</text>
    <s:alias val="$_inputExt_"/>
    <path d="M0,0 L0,20 L15,20 L30,10 L15,0 Z" class="cell_io_inputs_2"/>
    <g s:x="28" s:y="10" s:pid="Y"/>
  </g>
  <g s:type="inputExt" transform="translate(96,217)" s:width="30" s:height="20" id="cell_io_inputs_3">
    <text x="15" y="-4" class="nodelabel cell_io_inputs_3" s:attribute="ref">io_inputs_3</text>
    <s:alias val="$_inputExt_"/>
    <path d="M0,0 L0,20 L15,20 L30,10 L15,0 Z" class="cell_io_inputs_3"/>
    <g s:x="28" s:y="10" s:pid="Y"/>
  </g>
  <g s:type="inputExt" transform="translate(96,282)" s:width="30" s:height="20" id="cell_io_select">
    <text x="15" y="-4" class="nodelabel cell_io_select" s:attribute="ref">io_select</text>
    <s:alias val="$_inputExt_"/>
    <path d="M0,0 L0,20 L15,20 L30,10 L15,0 Z" class="cell_io_select"/>
    <g s:x="28" s:y="10" s:pid="Y"/>
  </g>
  <g s:type="outputExt" transform="translate(385,112)" s:width="30" s:height="20" id="cell_io_output">
    <text x="15" y="-4" class="nodelabel cell_io_output" s:attribute="ref">io_output</text>
    <s:alias val="$_outputExt_"/>
    <path d="M30,0 L30,20 L15,20 L0,10 L15,0 Z" class="cell_io_output"/>
    <g s:x="0" s:y="10" s:pid="A"/>
  </g>
  <line x1="124" x2="182" y1="32" y2="32" class="net_4,5,6,7,8,9,10,11"/>
  <line x1="182" x2="182" y1="32" y2="122" class="net_4,5,6,7,8,9,10,11"/>
  <line x1="182" x2="264" y1="122" y2="122" class="net_4,5,6,7,8,9,10,11"/>
  <line x1="124" x2="172" y1="97" y2="97" class="net_12,13,14,15,16,17,18,19"/>
  <line x1="172" x2="172" y1="97" y2="142" class="net_12,13,14,15,16,17,18,19"/>
  <line x1="172" x2="264" y1="142" y2="142" class="net_12,13,14,15,16,17,18,19"/>
  <line x1="124" x2="264" y1="162" y2="162" class="net_20,21,22,23,24,25,26,27"/>
  <line x1="124" x2="172" y1="227" y2="227" class="net_28,29,30,31,32,33,34,35"/>
  <line x1="172" x2="172" y1="227" y2="182" class="net_28,29,30,31,32,33,34,35"/>
  <line x1="172" x2="264" y1="182" y2="182" class="net_28,29,30,31,32,33,34,35"/>
  <line x1="124" x2="182" y1="292" y2="292" class="net_36,37"/>
  <line x1="182" x2="182" y1="292" y2="202" class="net_36,37"/>
  <line x1="182" x2="264" y1="202" y2="202" class="net_36,37"/>
  <line x1="295" x2="385" y1="122" y2="122" class="net_38,39,40,41,42,43,44,45"/>
</svg>
