<svg xmlns="http://www.w3.org/2000/svg" xmlns:xlink="http://www.w3.org/1999/xlink" xmlns:s="https://github.com/nturley/netlistsvg" width="655" height="746.5">
  <style>svg {
    stroke:#000;
    fill:none;
  }
  text {
    fill:#000;
    stroke:none;
    font-size:10px;
    font-weight: bold;
    font-family: "Courier New", monospace;
  }
  .nodelabel {
    text-anchor: middle;
  }
  .inputPortLabel {
    text-anchor: end;
  }
  .splitjoinBody {
    fill:#000;
  }</style>
  <g s:type="not" transform="translate(321,632.5)" s:width="30" s:height="20" id="cell_$abc$1151$auto$blifparse.cc:396:parse_blif$1152">
    <s:alias val="$_NOT_"/>
    <s:alias val="$not"/>
    <s:alias val="$logic_not"/>
    <path d="M0,0 L0,20 L20,10 Z" class="cell_$abc$1151$auto$blifparse.cc:396:parse_blif$1152"/>
    <circle cx="23" cy="10" r="3" class="cell_$abc$1151$auto$blifparse.cc:396:parse_blif$1152"/>
    <g s:x="0" s:y="10" s:pid="A"/>
    <g s:x="25" s:y="10" s:pid="Y"/>
  </g>
  <g s:type="nand" transform="translate(319,110.5)" s:width="30" s:height="25" id="cell_$abc$1151$auto$blifparse.cc:396:parse_blif$1153">
    <s:alias val="$nand"/>
    <s:alias val="$logic_nand"/>
    <s:alias val="$_NAND_"/>
    <s:alias val="$_ANDNOT_"/>
    <path d="M0,0 L0,25 L15,25 A15 12.5 0 0 0 15,0 Z" class="cell_$abc$1151$auto$blifparse.cc:396:parse_blif$1153"/>
    <circle cx="34" cy="12.5" r="3" class="cell_$abc$1151$auto$blifparse.cc:396:parse_blif$1153"/>
    <g s:x="0" s:y="5" s:pid="A"/>
    <g s:x="0" s:y="20" s:pid="B"/>
    <g s:x="36" s:y="12.5" s:pid="Y"/>
  </g>
  <g s:type="mux" transform="translate(395.3333333333333,12)" s:width="20" s:height="40" id="cell_$abc$1151$auto$blifparse.cc:396:parse_blif$1154">
    <s:alias val="$pmux"/>
    <s:alias val="$mux"/>
    <s:alias val="$_MUX_"/>
    <path d="M0,0 L20,10 L20,30 L0,40 Z" class="cell_$abc$1151$auto$blifparse.cc:396:parse_blif$1154"/>
    <g s:x="0" s:y="10" s:pid="A"/>
    <g s:x="0" s:y="30" s:pid="B"/>
    <g s:x="10" s:y="35" s:pid="S"/>
    <g s:x="20" s:y="20" s:pid="Y"/>
  </g>
  <g s:type="reduce_nor" transform="translate(390,409.5)" s:width="33" s:height="25" id="cell_$abc$1151$auto$blifparse.cc:396:parse_blif$1155">
    <s:alias val="$nor"/>
    <s:alias val="$reduce_nor"/>
    <s:alias val="$_NOR_"/>
    <s:alias val="$_ORNOT_"/>
    <path d="M0,25 L0,25 L15,25 A15 12.5 0 0 0 15,0 L0,0" class="cell_$abc$1151$auto$blifparse.cc:396:parse_blif$1155"/>
    <path d="M0,0 A30 25 0 0 1 0,25" class="cell_$abc$1151$auto$blifparse.cc:396:parse_blif$1155"/>
    <circle cx="34" cy="12.5" r="3" class="cell_$abc$1151$auto$blifparse.cc:396:parse_blif$1155"/>
    <g s:x="3" s:y="5" s:pid="A"/>
    <g s:x="3" s:y="20" s:pid="B"/>
    <g s:x="36" s:y="12.5" s:pid="Y"/>
  </g>
  <g s:type="mux" transform="translate(476,22)" s:width="20" s:height="40" id="cell_$abc$1151$auto$blifparse.cc:396:parse_blif$1156">
    <s:alias val="$pmux"/>
    <s:alias val="$mux"/>
    <s:alias val="$_MUX_"/>
    <path d="M0,0 L20,10 L20,30 L0,40 Z" class="cell_$abc$1151$auto$blifparse.cc:396:parse_blif$1156"/>
    <g s:x="0" s:y="10" s:pid="A"/>
    <g s:x="0" s:y="30" s:pid="B"/>
    <g s:x="10" s:y="35" s:pid="S"/>
    <g s:x="20" s:y="20" s:pid="Y"/>
  </g>
  <g s:type="reduce_nor" transform="translate(241,167.5)" s:width="33" s:height="25" id="cell_$abc$1151$auto$blifparse.cc:396:parse_blif$1157">
    <s:alias val="$nor"/>
    <s:alias val="$reduce_nor"/>
    <s:alias val="$_NOR_"/>
    <s:alias val="$_ORNOT_"/>
    <path d="M0,25 L0,25 L15,25 A15 12.5 0 0 0 15,0 L0,0" class="cell_$abc$1151$auto$blifparse.cc:396:parse_blif$1157"/>
    <path d="M0,0 A30 25 0 0 1 0,25" class="cell_$abc$1151$auto$blifparse.cc:396:parse_blif$1157"/>
    <circle cx="34" cy="12.5" r="3" class="cell_$abc$1151$auto$blifparse.cc:396:parse_blif$1157"/>
    <g s:x="3" s:y="5" s:pid="A"/>
    <g s:x="3" s:y="20" s:pid="B"/>
    <g s:x="36" s:y="12.5" s:pid="Y"/>
  </g>
  <g s:type="mux" transform="translate(395.3333333333333,93)" s:width="20" s:height="40" id="cell_$abc$1151$auto$blifparse.cc:396:parse_blif$1158">
    <s:alias val="$pmux"/>
    <s:alias val="$mux"/>
    <s:alias val="$_MUX_"/>
    <path d="M0,0 L20,10 L20,30 L0,40 Z" class="cell_$abc$1151$auto$blifparse.cc:396:parse_blif$1158"/>
    <g s:x="0" s:y="10" s:pid="A"/>
    <g s:x="0" s:y="30" s:pid="B"/>
    <g s:x="10" s:y="35" s:pid="S"/>
    <g s:x="20" s:y="20" s:pid="Y"/>
  </g>
  <g s:type="mux" transform="translate(476,103)" s:width="20" s:height="40" id="cell_$abc$1151$auto$blifparse.cc:396:parse_blif$1159">
    <s:alias val="$pmux"/>
    <s:alias val="$mux"/>
    <s:alias val="$_MUX_"/>
    <path d="M0,0 L20,10 L20,30 L0,40 Z" class="cell_$abc$1151$auto$blifparse.cc:396:parse_blif$1159"/>
    <g s:x="0" s:y="10" s:pid="A"/>
    <g s:x="0" s:y="30" s:pid="B"/>
    <g s:x="10" s:y="35" s:pid="S"/>
    <g s:x="20" s:y="20" s:pid="Y"/>
  </g>
  <g s:type="nand" transform="translate(390,276)" s:width="30" s:height="25" id="cell_$abc$1151$auto$blifparse.cc:396:parse_blif$1160">
    <s:alias val="$nand"/>
    <s:alias val="$logic_nand"/>
    <s:alias val="$_NAND_"/>
    <s:alias val="$_ANDNOT_"/>
    <path d="M0,0 L0,25 L15,25 A15 12.5 0 0 0 15,0 Z" class="cell_$abc$1151$auto$blifparse.cc:396:parse_blif$1160"/>
    <circle cx="34" cy="12.5" r="3" class="cell_$abc$1151$auto$blifparse.cc:396:parse_blif$1160"/>
    <g s:x="0" s:y="5" s:pid="A"/>
    <g s:x="0" s:y="20" s:pid="B"/>
    <g s:x="36" s:y="12.5" s:pid="Y"/>
  </g>
  <g s:type="nand" transform="translate(241,221)" s:width="30" s:height="25" id="cell_$abc$1151$auto$blifparse.cc:396:parse_blif$1161">
    <s:alias val="$nand"/>
    <s:alias val="$logic_nand"/>
    <s:alias val="$_NAND_"/>
    <s:alias val="$_ANDNOT_"/>
    <path d="M0,0 L0,25 L15,25 A15 12.5 0 0 0 15,0 Z" class="cell_$abc$1151$auto$blifparse.cc:396:parse_blif$1161"/>
    <circle cx="34" cy="12.5" r="3" class="cell_$abc$1151$auto$blifparse.cc:396:parse_blif$1161"/>
    <g s:x="0" s:y="5" s:pid="A"/>
    <g s:x="0" s:y="20" s:pid="B"/>
    <g s:x="36" s:y="12.5" s:pid="Y"/>
  </g>
  <g s:type="or" transform="translate(319.66666666666663,213.5)" s:width="30" s:height="25" id="cell_$abc$1151$auto$blifparse.cc:396:parse_blif$1162">
    <s:alias val="$or"/>
    <s:alias val="$logic_or"/>
    <s:alias val="$_OR_"/>
    <path d="M0,25 L0,25 L15,25 A15 12.5 0 0 0 15,0 L0,0" class="cell_$abc$1151$auto$blifparse.cc:396:parse_blif$1162"/>
    <path d="M0,0 A30 25 0 0 1 0,25" class="cell_$abc$1151$auto$blifparse.cc:396:parse_blif$1162"/>
    <g s:x="3" s:y="5" s:pid="A"/>
    <g s:x="3" s:y="20" s:pid="B"/>
    <g s:x="30" s:y="12.5" s:pid="Y"/>
  </g>
  <g s:type="mux" transform="translate(395.3333333333333,216)" s:width="20" s:height="40" id="cell_$abc$1151$auto$blifparse.cc:396:parse_blif$1163">
    <s:alias val="$pmux"/>
    <s:alias val="$mux"/>
    <s:alias val="$_MUX_"/>
    <path d="M0,0 L20,10 L20,30 L0,40 Z" class="cell_$abc$1151$auto$blifparse.cc:396:parse_blif$1163"/>
    <g s:x="0" s:y="10" s:pid="A"/>
    <g s:x="0" s:y="30" s:pid="B"/>
    <g s:x="10" s:y="35" s:pid="S"/>
    <g s:x="20" s:y="20" s:pid="Y"/>
  </g>
  <g s:type="mux" transform="translate(476,226)" s:width="20" s:height="40" id="cell_$abc$1151$auto$blifparse.cc:396:parse_blif$1164">
    <s:alias val="$pmux"/>
    <s:alias val="$mux"/>
    <s:alias val="$_MUX_"/>
    <path d="M0,0 L20,10 L20,30 L0,40 Z" class="cell_$abc$1151$auto$blifparse.cc:396:parse_blif$1164"/>
    <g s:x="0" s:y="10" s:pid="A"/>
    <g s:x="0" s:y="30" s:pid="B"/>
    <g s:x="10" s:y="35" s:pid="S"/>
    <g s:x="20" s:y="20" s:pid="Y"/>
  </g>
  <g s:type="reduce_nor" transform="translate(318.66666666666663,455.5)" s:width="33" s:height="25" id="cell_$abc$1151$auto$blifparse.cc:396:parse_blif$1165">
    <s:alias val="$nor"/>
    <s:alias val="$reduce_nor"/>
    <s:alias val="$_NOR_"/>
    <s:alias val="$_ORNOT_"/>
    <path d="M0,25 L0,25 L15,25 A15 12.5 0 0 0 15,0 L0,0" class="cell_$abc$1151$auto$blifparse.cc:396:parse_blif$1165"/>
    <path d="M0,0 A30 25 0 0 1 0,25" class="cell_$abc$1151$auto$blifparse.cc:396:parse_blif$1165"/>
    <circle cx="34" cy="12.5" r="3" class="cell_$abc$1151$auto$blifparse.cc:396:parse_blif$1165"/>
    <g s:x="3" s:y="5" s:pid="A"/>
    <g s:x="3" s:y="20" s:pid="B"/>
    <g s:x="36" s:y="12.5" s:pid="Y"/>
  </g>
  <g s:type="reduce_xor" transform="translate(318.66666666666663,339.5)" s:width="33" s:height="25" id="cell_$abc$1151$auto$blifparse.cc:396:parse_blif$1166">
    <s:alias val="$xor"/>
    <s:alias val="$reduce_xor"/>
    <s:alias val="$_XOR_"/>
    <path d="M3,0 A30 25 0 0 1 3,25 A30 25 0 0 0 33,12.5 A30 25 0 0 0 3,0" class="cell_$abc$1151$auto$blifparse.cc:396:parse_blif$1166"/>
    <path d="M0,0 A30 25 0 0 1 0,25" class="cell_$abc$1151$auto$blifparse.cc:396:parse_blif$1166"/>
    <g s:x="3" s:y="5" s:pid="A"/>
    <g s:x="3" s:y="20" s:pid="B"/>
    <g s:x="33" s:y="12.5" s:pid="Y"/>
  </g>
  <g s:type="mux" transform="translate(395.3333333333333,322)" s:width="20" s:height="40" id="cell_$abc$1151$auto$blifparse.cc:396:parse_blif$1167">
    <s:alias val="$pmux"/>
    <s:alias val="$mux"/>
    <s:alias val="$_MUX_"/>
    <path d="M0,0 L20,10 L20,30 L0,40 Z" class="cell_$abc$1151$auto$blifparse.cc:396:parse_blif$1167"/>
    <g s:x="0" s:y="10" s:pid="A"/>
    <g s:x="0" s:y="30" s:pid="B"/>
    <g s:x="10" s:y="35" s:pid="S"/>
    <g s:x="20" s:y="20" s:pid="Y"/>
  </g>
  <g s:type="mux" transform="translate(476,332)" s:width="20" s:height="40" id="cell_$abc$1151$auto$blifparse.cc:396:parse_blif$1168">
    <s:alias val="$pmux"/>
    <s:alias val="$mux"/>
    <s:alias val="$_MUX_"/>
    <path d="M0,0 L20,10 L20,30 L0,40 Z" class="cell_$abc$1151$auto$blifparse.cc:396:parse_blif$1168"/>
    <g s:x="0" s:y="10" s:pid="A"/>
    <g s:x="0" s:y="30" s:pid="B"/>
    <g s:x="10" s:y="35" s:pid="S"/>
    <g s:x="20" s:y="20" s:pid="Y"/>
  </g>
  <g s:type="reduce_nor" transform="translate(318.66666666666663,515.5)" s:width="33" s:height="25" id="cell_$abc$1151$auto$blifparse.cc:396:parse_blif$1169">
    <s:alias val="$nor"/>
    <s:alias val="$reduce_nor"/>
    <s:alias val="$_NOR_"/>
    <s:alias val="$_ORNOT_"/>
    <path d="M0,25 L0,25 L15,25 A15 12.5 0 0 0 15,0 L0,0" class="cell_$abc$1151$auto$blifparse.cc:396:parse_blif$1169"/>
    <path d="M0,0 A30 25 0 0 1 0,25" class="cell_$abc$1151$auto$blifparse.cc:396:parse_blif$1169"/>
    <circle cx="34" cy="12.5" r="3" class="cell_$abc$1151$auto$blifparse.cc:396:parse_blif$1169"/>
    <g s:x="3" s:y="5" s:pid="A"/>
    <g s:x="3" s:y="20" s:pid="B"/>
    <g s:x="36" s:y="12.5" s:pid="Y"/>
  </g>
  <g s:type="or" transform="translate(392,523)" s:width="30" s:height="25" id="cell_$abc$1151$auto$blifparse.cc:396:parse_blif$1170">
    <s:alias val="$or"/>
    <s:alias val="$logic_or"/>
    <s:alias val="$_OR_"/>
    <path d="M0,25 L0,25 L15,25 A15 12.5 0 0 0 15,0 L0,0" class="cell_$abc$1151$auto$blifparse.cc:396:parse_blif$1170"/>
    <path d="M0,0 A30 25 0 0 1 0,25" class="cell_$abc$1151$auto$blifparse.cc:396:parse_blif$1170"/>
    <g s:x="3" s:y="5" s:pid="A"/>
    <g s:x="3" s:y="20" s:pid="B"/>
    <g s:x="30" s:y="12.5" s:pid="Y"/>
  </g>
  <g s:type="mux" transform="translate(476,392)" s:width="20" s:height="40" id="cell_$abc$1151$auto$blifparse.cc:396:parse_blif$1171">
    <s:alias val="$pmux"/>
    <s:alias val="$mux"/>
    <s:alias val="$_MUX_"/>
    <path d="M0,0 L20,10 L20,30 L0,40 Z" class="cell_$abc$1151$auto$blifparse.cc:396:parse_blif$1171"/>
    <g s:x="0" s:y="10" s:pid="A"/>
    <g s:x="0" s:y="30" s:pid="B"/>
    <g s:x="10" s:y="35" s:pid="S"/>
    <g s:x="20" s:y="20" s:pid="Y"/>
  </g>
  <g s:type="reduce_nxor" transform="translate(317,572.5)" s:width="33" s:height="25" id="cell_$abc$1151$auto$blifparse.cc:396:parse_blif$1172">
    <s:alias val="$xnor"/>
    <s:alias val="$reduce_xnor"/>
    <s:alias val="$_XNOR_"/>
    <path d="M3,0 A30 25 0 0 1 3,25 A30 25 0 0 0 33,12.5 A30 25 0 0 0 3,0" class="cell_$abc$1151$auto$blifparse.cc:396:parse_blif$1172"/>
    <path d="M0,0 A30 25 0 0 1 0,25" class="cell_$abc$1151$auto$blifparse.cc:396:parse_blif$1172"/>
    <circle cx="35" cy="12.5" r="3" class="cell_$abc$1151$auto$blifparse.cc:396:parse_blif$1172"/>
    <g s:x="3" s:y="5" s:pid="A"/>
    <g s:x="3" s:y="20" s:pid="B"/>
    <g s:x="38" s:y="12.5" s:pid="Y"/>
  </g>
  <g s:type="or" transform="translate(392,580)" s:width="30" s:height="25" id="cell_$abc$1151$auto$blifparse.cc:396:parse_blif$1173">
    <s:alias val="$or"/>
    <s:alias val="$logic_or"/>
    <s:alias val="$_OR_"/>
    <path d="M0,25 L0,25 L15,25 A15 12.5 0 0 0 15,0 L0,0" class="cell_$abc$1151$auto$blifparse.cc:396:parse_blif$1173"/>
    <path d="M0,0 A30 25 0 0 1 0,25" class="cell_$abc$1151$auto$blifparse.cc:396:parse_blif$1173"/>
    <g s:x="3" s:y="5" s:pid="A"/>
    <g s:x="3" s:y="20" s:pid="B"/>
    <g s:x="30" s:y="12.5" s:pid="Y"/>
  </g>
  <g s:type="mux" transform="translate(476,582.5)" s:width="20" s:height="40" id="cell_$abc$1151$auto$blifparse.cc:396:parse_blif$1174">
    <s:alias val="$pmux"/>
    <s:alias val="$mux"/>
    <s:alias val="$_MUX_"/>
    <path d="M0,0 L20,10 L20,30 L0,40 Z" class="cell_$abc$1151$auto$blifparse.cc:396:parse_blif$1174"/>
    <g s:x="0" s:y="10" s:pid="A"/>
    <g s:x="0" s:y="30" s:pid="B"/>
    <g s:x="10" s:y="35" s:pid="S"/>
    <g s:x="20" s:y="20" s:pid="Y"/>
  </g>
  <g s:type="or" transform="translate(319.66666666666663,687.5)" s:width="30" s:height="25" id="cell_$abc$1151$auto$blifparse.cc:396:parse_blif$1175">
    <s:alias val="$or"/>
    <s:alias val="$logic_or"/>
    <s:alias val="$_OR_"/>
    <path d="M0,25 L0,25 L15,25 A15 12.5 0 0 0 15,0 L0,0" class="cell_$abc$1151$auto$blifparse.cc:396:parse_blif$1175"/>
    <path d="M0,0 A30 25 0 0 1 0,25" class="cell_$abc$1151$auto$blifparse.cc:396:parse_blif$1175"/>
    <g s:x="3" s:y="5" s:pid="A"/>
    <g s:x="3" s:y="20" s:pid="B"/>
    <g s:x="30" s:y="12.5" s:pid="Y"/>
  </g>
  <g s:type="mux" transform="translate(395.3333333333333,670)" s:width="20" s:height="40" id="cell_$abc$1151$auto$blifparse.cc:396:parse_blif$1176">
    <s:alias val="$pmux"/>
    <s:alias val="$mux"/>
    <s:alias val="$_MUX_"/>
    <path d="M0,0 L20,10 L20,30 L0,40 Z" class="cell_$abc$1151$auto$blifparse.cc:396:parse_blif$1176"/>
    <g s:x="0" s:y="10" s:pid="A"/>
    <g s:x="0" s:y="30" s:pid="B"/>
    <g s:x="10" s:y="35" s:pid="S"/>
    <g s:x="20" s:y="20" s:pid="Y"/>
  </g>
  <g s:type="mux" transform="translate(476,680)" s:width="20" s:height="40" id="cell_$abc$1151$auto$blifparse.cc:396:parse_blif$1177">
    <s:alias val="$pmux"/>
    <s:alias val="$mux"/>
    <s:alias val="$_MUX_"/>
    <path d="M0,0 L20,10 L20,30 L0,40 Z" class="cell_$abc$1151$auto$blifparse.cc:396:parse_blif$1177"/>
    <g s:x="0" s:y="10" s:pid="A"/>
    <g s:x="0" s:y="30" s:pid="B"/>
    <g s:x="10" s:y="35" s:pid="S"/>
    <g s:x="20" s:y="20" s:pid="Y"/>
  </g>
  <g s:type="inputExt" transform="translate(12,22)" s:width="30" s:height="20" id="cell_clock">
    <text x="15" y="-4" class="nodelabel cell_clock" s:attribute="ref">clock</text>
    <s:alias val="$_inputExt_"/>
    <path d="M0,0 L0,20 L15,20 L30,10 L15,0 Z" class="cell_clock"/>
    <g s:x="28" s:y="10" s:pid="Y"/>
  </g>
  <g s:type="inputExt" transform="translate(54,22)" s:width="30" s:height="20" id="cell_reset">
    <text x="15" y="-4" class="nodelabel cell_reset" s:attribute="ref">reset</text>
    <s:alias val="$_inputExt_"/>
    <path d="M0,0 L0,20 L15,20 L30,10 L15,0 Z" class="cell_reset"/>
    <g s:x="28" s:y="10" s:pid="Y"/>
  </g>
  <g s:type="inputExt" transform="translate(96,374.5)" s:width="30" s:height="20" id="cell_io_binIn">
    <text x="15" y="-4" class="nodelabel cell_io_binIn" s:attribute="ref">io_binIn</text>
    <s:alias val="$_inputExt_"/>
    <path d="M0,0 L0,20 L15,20 L30,10 L15,0 Z" class="cell_io_binIn"/>
    <g s:x="28" s:y="10" s:pid="Y"/>
  </g>
  <g s:type="outputExt" transform="translate(589,103)" s:width="30" s:height="20" id="cell_io_segOut">
    <text x="15" y="-4" class="nodelabel cell_io_segOut" s:attribute="ref">io_segOut</text>
    <s:alias val="$_outputExt_"/>
    <path d="M30,0 L30,20 L15,20 L0,10 L15,0 Z" class="cell_io_segOut"/>
    <g s:x="0" s:y="10" s:pid="A"/>
  </g>
  <g s:type="join" transform="translate(546,92.5)" s:width="4" s:height="40" id="cell_$join$,8,9,10,11,12,13,14,">
    <rect width="5" height="140" class="splitjoinBody" s:generic="body"/>
    <s:alias val="$_join_"/>
    <g s:x="5" s:y="20" s:pid="out"/>
    <g transform="translate(0,10)" s:x="0" s:y="10" s:pid="in0">
      <text x="-3" y="-4" class="inputPortLabel">0</text>
    </g>
    <g transform="translate(0,30)" s:x="0" s:y="10" s:pid="in0">
      <text x="-3" y="-4" class="inputPortLabel">1</text>
    </g>
    <g transform="translate(0,50)" s:x="0" s:y="10" s:pid="in0">
      <text x="-3" y="-4" class="inputPortLabel">2</text>
    </g>
    <g transform="translate(0,70)" s:x="0" s:y="10" s:pid="in0">
      <text x="-3" y="-4" class="inputPortLabel">3</text>
    </g>
    <g transform="translate(0,90)" s:x="0" s:y="10" s:pid="in0">
      <text x="-3" y="-4" class="inputPortLabel">4</text>
    </g>
    <g transform="translate(0,110)" s:x="0" s:y="10" s:pid="in0">
      <text x="-3" y="-4" class="inputPortLabel">5</text>
    </g>
    <g transform="translate(0,130)" s:x="0" s:y="10" s:pid="in0">
      <text x="-3" y="-4" class="inputPortLabel">6</text>
    </g>
  </g>
  <g s:type="split" transform="translate(179,364)" s:width="5" s:height="40" id="cell_$split$,4,5,6,7,">
    <rect width="5" height="80" class="splitjoinBody" s:generic="body"/>
    <s:alias val="$_split_"/>
    <g s:x="0" s:y="20" s:pid="in"/>
    <g transform="translate(4,10)" s:x="4" s:y="10" s:pid="out0">
      <text x="5" y="-4">2</text>
    </g>
    <g transform="translate(4,30)" s:x="4" s:y="10" s:pid="out0">
      <text x="5" y="-4">0</text>
    </g>
    <g transform="translate(4,50)" s:x="4" s:y="10" s:pid="out0">
      <text x="5" y="-4">1</text>
    </g>
    <g transform="translate(4,70)" s:x="4" s:y="10" s:pid="out0">
      <text x="5" y="-4">3</text>
    </g>
  </g>
  <line x1="184" x2="211" y1="374.5" y2="374.5" class="net_6"/>
  <line x1="211" x2="211" y1="374.5" y2="642.5" class="net_6"/>
  <circle cx="211" cy="374.5" r="2" style="fill:#000" class="net_6"/>
  <circle cx="211" cy="642.5" r="2" style="fill:#000" class="net_6"/>
  <line x1="211" x2="321" y1="642.5" y2="642.5" class="net_6"/>
  <line x1="184" x2="211" y1="374.5" y2="374.5" class="net_6"/>
  <line x1="211" x2="211" y1="374.5" y2="83" class="net_6"/>
  <line x1="211" x2="405.3333333333333" y1="83" y2="83" class="net_6"/>
  <line x1="405.3333333333333" x2="405.3333333333333" y1="83" y2="47" class="net_6"/>
  <line x1="184" x2="375" y1="374.5" y2="374.5" class="net_6"/>
  <line x1="375" x2="375" y1="374.5" y2="414.5" class="net_6"/>
  <circle cx="375" cy="374.5" r="2" style="fill:#000" class="net_6"/>
  <line x1="375" x2="393" y1="414.5" y2="414.5" class="net_6"/>
  <line x1="184" x2="211" y1="374.5" y2="374.5" class="net_6"/>
  <line x1="211" x2="211" y1="374.5" y2="156.5" class="net_6"/>
  <line x1="211" x2="405.3333333333333" y1="156.5" y2="156.5" class="net_6"/>
  <circle cx="211" cy="156.5" r="2" style="fill:#000" class="net_6"/>
  <line x1="405.3333333333333" x2="405.3333333333333" y1="156.5" y2="128" class="net_6"/>
  <line x1="184" x2="211" y1="374.5" y2="374.5" class="net_6"/>
  <line x1="211" x2="211" y1="374.5" y2="266" class="net_6"/>
  <line x1="211" x2="287" y1="266" y2="266" class="net_6"/>
  <line x1="287" x2="287" y1="266" y2="296" class="net_6"/>
  <circle cx="211" cy="266" r="2" style="fill:#000" class="net_6"/>
  <circle cx="287" cy="266" r="2" style="fill:#000" class="net_6"/>
  <line x1="287" x2="390" y1="296" y2="296" class="net_6"/>
  <line x1="184" x2="211" y1="374.5" y2="374.5" class="net_6"/>
  <line x1="211" x2="211" y1="374.5" y2="266" class="net_6"/>
  <line x1="211" x2="405.3333333333333" y1="266" y2="266" class="net_6"/>
  <line x1="405.3333333333333" x2="405.3333333333333" y1="266" y2="251" class="net_6"/>
  <line x1="184" x2="405.3333333333333" y1="374.5" y2="374.5" class="net_6"/>
  <line x1="405.3333333333333" x2="405.3333333333333" y1="374.5" y2="357" class="net_6"/>
  <line x1="184" x2="211" y1="374.5" y2="374.5" class="net_6"/>
  <line x1="211" x2="211" y1="374.5" y2="550.5" class="net_6"/>
  <line x1="211" x2="375" y1="550.5" y2="550.5" class="net_6"/>
  <line x1="375" x2="375" y1="550.5" y2="543" class="net_6"/>
  <circle cx="211" cy="550.5" r="2" style="fill:#000" class="net_6"/>
  <line x1="375" x2="395" y1="543" y2="543" class="net_6"/>
  <line x1="184" x2="211" y1="374.5" y2="374.5" class="net_6"/>
  <line x1="211" x2="211" y1="374.5" y2="722.5" class="net_6"/>
  <line x1="211" x2="405.3333333333333" y1="722.5" y2="722.5" class="net_6"/>
  <line x1="405.3333333333333" x2="405.3333333333333" y1="722.5" y2="705" class="net_6"/>
  <line x1="184" x2="221" y1="394.5" y2="394.5" class="net_4"/>
  <line x1="221" x2="221" y1="394.5" y2="115.5" class="net_4"/>
  <circle cx="221" cy="394.5" r="2" style="fill:#000" class="net_4"/>
  <line x1="221" x2="319" y1="115.5" y2="115.5" class="net_4"/>
  <line x1="184" x2="221" y1="394.5" y2="394.5" class="net_4"/>
  <line x1="221" x2="221" y1="394.5" y2="172.5" class="net_4"/>
  <circle cx="221" cy="172.5" r="2" style="fill:#000" class="net_4"/>
  <line x1="221" x2="244" y1="172.5" y2="172.5" class="net_4"/>
  <line x1="184" x2="221" y1="394.5" y2="394.5" class="net_4"/>
  <line x1="221" x2="221" y1="394.5" y2="241" class="net_4"/>
  <circle cx="221" cy="241" r="2" style="fill:#000" class="net_4"/>
  <line x1="221" x2="241" y1="241" y2="241" class="net_4"/>
  <line x1="184" x2="221" y1="394.5" y2="394.5" class="net_4"/>
  <line x1="221" x2="221" y1="394.5" y2="520.5" class="net_4"/>
  <line x1="221" x2="287" y1="520.5" y2="520.5" class="net_4"/>
  <line x1="287" x2="287" y1="520.5" y2="475.5" class="net_4"/>
  <circle cx="221" cy="520.5" r="2" style="fill:#000" class="net_4"/>
  <circle cx="287" cy="520.5" r="2" style="fill:#000" class="net_4"/>
  <line x1="287" x2="321.66666666666663" y1="475.5" y2="475.5" class="net_4"/>
  <line x1="184" x2="221" y1="394.5" y2="394.5" class="net_4"/>
  <line x1="221" x2="221" y1="394.5" y2="344.5" class="net_4"/>
  <circle cx="221" cy="344.5" r="2" style="fill:#000" class="net_4"/>
  <line x1="221" x2="321.66666666666663" y1="344.5" y2="344.5" class="net_4"/>
  <line x1="184" x2="221" y1="394.5" y2="394.5" class="net_4"/>
  <line x1="221" x2="221" y1="394.5" y2="520.5" class="net_4"/>
  <line x1="221" x2="321.66666666666663" y1="520.5" y2="520.5" class="net_4"/>
  <line x1="184" x2="221" y1="394.5" y2="394.5" class="net_4"/>
  <line x1="221" x2="221" y1="394.5" y2="577.5" class="net_4"/>
  <circle cx="221" cy="577.5" r="2" style="fill:#000" class="net_4"/>
  <line x1="221" x2="320" y1="577.5" y2="577.5" class="net_4"/>
  <line x1="184" x2="221" y1="394.5" y2="394.5" class="net_4"/>
  <line x1="221" x2="221" y1="394.5" y2="692.5" class="net_4"/>
  <line x1="221" x2="322.66666666666663" y1="692.5" y2="692.5" class="net_4"/>
  <line x1="184" x2="231" y1="414.5" y2="414.5" class="net_5"/>
  <line x1="231" x2="231" y1="414.5" y2="130.5" class="net_5"/>
  <circle cx="231" cy="414.5" r="2" style="fill:#000" class="net_5"/>
  <circle cx="231" cy="130.5" r="2" style="fill:#000" class="net_5"/>
  <line x1="231" x2="319" y1="130.5" y2="130.5" class="net_5"/>
  <line x1="184" x2="231" y1="414.5" y2="414.5" class="net_5"/>
  <line x1="231" x2="231" y1="414.5" y2="22" class="net_5"/>
  <line x1="231" x2="395.3333333333333" y1="22" y2="22" class="net_5"/>
  <line x1="184" x2="231" y1="414.5" y2="414.5" class="net_5"/>
  <line x1="231" x2="231" y1="414.5" y2="429.5" class="net_5"/>
  <circle cx="231" cy="429.5" r="2" style="fill:#000" class="net_5"/>
  <line x1="231" x2="393" y1="429.5" y2="429.5" class="net_5"/>
  <line x1="184" x2="231" y1="414.5" y2="414.5" class="net_5"/>
  <line x1="231" x2="231" y1="414.5" y2="187.5" class="net_5"/>
  <circle cx="231" cy="187.5" r="2" style="fill:#000" class="net_5"/>
  <line x1="231" x2="244" y1="187.5" y2="187.5" class="net_5"/>
  <line x1="184" x2="231" y1="414.5" y2="414.5" class="net_5"/>
  <line x1="231" x2="231" y1="414.5" y2="226" class="net_5"/>
  <circle cx="231" cy="226" r="2" style="fill:#000" class="net_5"/>
  <line x1="231" x2="241" y1="226" y2="226" class="net_5"/>
  <line x1="184" x2="231" y1="414.5" y2="414.5" class="net_5"/>
  <line x1="231" x2="231" y1="414.5" y2="460.5" class="net_5"/>
  <circle cx="231" cy="460.5" r="2" style="fill:#000" class="net_5"/>
  <line x1="231" x2="321.66666666666663" y1="460.5" y2="460.5" class="net_5"/>
  <line x1="184" x2="231" y1="414.5" y2="414.5" class="net_5"/>
  <line x1="231" x2="231" y1="414.5" y2="359.5" class="net_5"/>
  <circle cx="231" cy="359.5" r="2" style="fill:#000" class="net_5"/>
  <line x1="231" x2="321.66666666666663" y1="359.5" y2="359.5" class="net_5"/>
  <line x1="184" x2="231" y1="414.5" y2="414.5" class="net_5"/>
  <line x1="231" x2="231" y1="414.5" y2="535.5" class="net_5"/>
  <circle cx="231" cy="535.5" r="2" style="fill:#000" class="net_5"/>
  <line x1="231" x2="321.66666666666663" y1="535.5" y2="535.5" class="net_5"/>
  <line x1="184" x2="231" y1="414.5" y2="414.5" class="net_5"/>
  <line x1="231" x2="231" y1="414.5" y2="592.5" class="net_5"/>
  <circle cx="231" cy="592.5" r="2" style="fill:#000" class="net_5"/>
  <line x1="231" x2="320" y1="592.5" y2="592.5" class="net_5"/>
  <line x1="184" x2="231" y1="414.5" y2="414.5" class="net_5"/>
  <line x1="231" x2="231" y1="414.5" y2="707.5" class="net_5"/>
  <line x1="231" x2="322.66666666666663" y1="707.5" y2="707.5" class="net_5"/>
  <line x1="355" x2="365" y1="123" y2="123" class="net_16"/>
  <line x1="365" x2="365" y1="123" y2="42" class="net_16"/>
  <circle cx="365" cy="123" r="2" style="fill:#000" class="net_16"/>
  <line x1="365" x2="395.3333333333333" y1="42" y2="42" class="net_16"/>
  <line x1="355" x2="395.3333333333333" y1="123" y2="123" class="net_16"/>
  <line x1="415.3333333333333" x2="476" y1="32" y2="32" class="net_17"/>
  <line x1="426" x2="456" y1="422" y2="422" class="net_18"/>
  <line x1="456" x2="456" y1="422" y2="52" class="net_18"/>
  <circle cx="456" cy="422" r="2" style="fill:#000" class="net_18"/>
  <line x1="456" x2="476" y1="52" y2="52" class="net_18"/>
  <line x1="426" x2="456" y1="422" y2="422" class="net_18"/>
  <line x1="456" x2="456" y1="422" y2="133" class="net_18"/>
  <circle cx="456" cy="133" r="2" style="fill:#000" class="net_18"/>
  <line x1="456" x2="476" y1="133" y2="133" class="net_18"/>
  <line x1="426" x2="456" y1="422" y2="422" class="net_18"/>
  <line x1="456" x2="456" y1="422" y2="362" class="net_18"/>
  <circle cx="456" cy="362" r="2" style="fill:#000" class="net_18"/>
  <line x1="456" x2="476" y1="362" y2="362" class="net_18"/>
  <line x1="426" x2="476" y1="422" y2="422" class="net_18"/>
  <line x1="426" x2="456" y1="422" y2="422" class="net_18"/>
  <line x1="456" x2="456" y1="422" y2="612.5" class="net_18"/>
  <circle cx="456" cy="612.5" r="2" style="fill:#000" class="net_18"/>
  <line x1="456" x2="476" y1="612.5" y2="612.5" class="net_18"/>
  <line x1="426" x2="456" y1="422" y2="422" class="net_18"/>
  <line x1="456" x2="456" y1="422" y2="710" class="net_18"/>
  <line x1="456" x2="476" y1="710" y2="710" class="net_18"/>
  <line x1="184" x2="201" y1="434.5" y2="434.5" class="net_7"/>
  <line x1="201" x2="201" y1="434.5" y2="72" class="net_7"/>
  <line x1="201" x2="486" y1="72" y2="72" class="net_7"/>
  <circle cx="201" cy="434.5" r="2" style="fill:#000" class="net_7"/>
  <line x1="486" x2="486" y1="72" y2="57" class="net_7"/>
  <line x1="184" x2="201" y1="434.5" y2="434.5" class="net_7"/>
  <line x1="201" x2="201" y1="434.5" y2="202.5" class="net_7"/>
  <line x1="201" x2="486" y1="202.5" y2="202.5" class="net_7"/>
  <circle cx="201" cy="202.5" r="2" style="fill:#000" class="net_7"/>
  <line x1="486" x2="486" y1="202.5" y2="138" class="net_7"/>
  <line x1="184" x2="201" y1="434.5" y2="434.5" class="net_7"/>
  <line x1="201" x2="201" y1="434.5" y2="311" class="net_7"/>
  <line x1="201" x2="486" y1="311" y2="311" class="net_7"/>
  <circle cx="201" cy="311" r="2" style="fill:#000" class="net_7"/>
  <line x1="486" x2="486" y1="311" y2="261" class="net_7"/>
  <line x1="184" x2="201" y1="434.5" y2="434.5" class="net_7"/>
  <line x1="201" x2="201" y1="434.5" y2="444.5" class="net_7"/>
  <line x1="201" x2="436" y1="444.5" y2="444.5" class="net_7"/>
  <line x1="436" x2="436" y1="444.5" y2="382" class="net_7"/>
  <line x1="436" x2="486" y1="382" y2="382" class="net_7"/>
  <circle cx="201" cy="444.5" r="2" style="fill:#000" class="net_7"/>
  <line x1="486" x2="486" y1="382" y2="367" class="net_7"/>
  <line x1="184" x2="201" y1="434.5" y2="434.5" class="net_7"/>
  <line x1="201" x2="201" y1="434.5" y2="561.5" class="net_7"/>
  <line x1="201" x2="486" y1="561.5" y2="561.5" class="net_7"/>
  <circle cx="201" cy="561.5" r="2" style="fill:#000" class="net_7"/>
  <line x1="486" x2="486" y1="561.5" y2="427" class="net_7"/>
  <line x1="184" x2="201" y1="434.5" y2="434.5" class="net_7"/>
  <line x1="201" x2="201" y1="434.5" y2="733.5" class="net_7"/>
  <line x1="201" x2="436" y1="733.5" y2="733.5" class="net_7"/>
  <line x1="436" x2="436" y1="733.5" y2="670" class="net_7"/>
  <line x1="436" x2="486" y1="670" y2="670" class="net_7"/>
  <circle cx="436" cy="733.5" r="2" style="fill:#000" class="net_7"/>
  <line x1="486" x2="486" y1="670" y2="617.5" class="net_7"/>
  <line x1="184" x2="201" y1="434.5" y2="434.5" class="net_7"/>
  <line x1="201" x2="201" y1="434.5" y2="733.5" class="net_7"/>
  <line x1="201" x2="486" y1="733.5" y2="733.5" class="net_7"/>
  <line x1="486" x2="486" y1="733.5" y2="715" class="net_7"/>
  <line x1="277" x2="297" y1="180" y2="180" class="net_19"/>
  <line x1="297" x2="297" y1="180" y2="145.5" class="net_19"/>
  <line x1="297" x2="375" y1="145.5" y2="145.5" class="net_19"/>
  <line x1="375" x2="375" y1="145.5" y2="103" class="net_19"/>
  <circle cx="297" cy="180" r="2" style="fill:#000" class="net_19"/>
  <line x1="375" x2="395.3333333333333" y1="103" y2="103" class="net_19"/>
  <line x1="277" x2="297" y1="180" y2="180" class="net_19"/>
  <line x1="297" x2="297" y1="180" y2="281" class="net_19"/>
  <line x1="297" x2="390" y1="281" y2="281" class="net_19"/>
  <line x1="277" x2="297" y1="180" y2="180" class="net_19"/>
  <line x1="297" x2="297" y1="180" y2="218.5" class="net_19"/>
  <circle cx="297" cy="218.5" r="2" style="fill:#000" class="net_19"/>
  <line x1="297" x2="322.66666666666663" y1="218.5" y2="218.5" class="net_19"/>
  <line x1="415.3333333333333" x2="476" y1="113" y2="113" class="net_20"/>
  <line x1="277" x2="322.66666666666663" y1="233.5" y2="233.5" class="net_22"/>
  <line x1="277" x2="307" y1="233.5" y2="233.5" class="net_22"/>
  <line x1="307" x2="307" y1="233.5" y2="248.5" class="net_22"/>
  <line x1="307" x2="365" y1="248.5" y2="248.5" class="net_22"/>
  <line x1="365" x2="365" y1="248.5" y2="246" class="net_22"/>
  <circle cx="307" cy="233.5" r="2" style="fill:#000" class="net_22"/>
  <line x1="365" x2="395.3333333333333" y1="246" y2="246" class="net_22"/>
  <line x1="349.66666666666663" x2="395.3333333333333" y1="226" y2="226" class="net_23"/>
  <line x1="415.3333333333333" x2="476" y1="236" y2="236" class="net_24"/>
  <line x1="426" x2="466" y1="288.5" y2="288.5" class="net_21"/>
  <line x1="466" x2="466" y1="288.5" y2="256" class="net_21"/>
  <line x1="466" x2="476" y1="256" y2="256" class="net_21"/>
  <line x1="354.66666666666663" x2="365" y1="468" y2="468" class="net_25"/>
  <line x1="365" x2="365" y1="468" y2="332" class="net_25"/>
  <circle cx="365" cy="468" r="2" style="fill:#000" class="net_25"/>
  <line x1="365" x2="395.3333333333333" y1="332" y2="332" class="net_25"/>
  <line x1="354.66666666666663" x2="365" y1="468" y2="468" class="net_25"/>
  <line x1="365" x2="365" y1="468" y2="680" class="net_25"/>
  <line x1="365" x2="395.3333333333333" y1="680" y2="680" class="net_25"/>
  <line x1="351.66666666666663" x2="395.3333333333333" y1="352" y2="352" class="net_26"/>
  <line x1="415.3333333333333" x2="476" y1="342" y2="342" class="net_27"/>
  <line x1="354.66666666666663" x2="395" y1="528" y2="528" class="net_28"/>
  <line x1="422" x2="446" y1="535.5" y2="535.5" class="net_29"/>
  <line x1="446" x2="446" y1="535.5" y2="402" class="net_29"/>
  <line x1="446" x2="476" y1="402" y2="402" class="net_29"/>
  <line x1="355" x2="395" y1="585" y2="585" class="net_30"/>
  <line x1="346" x2="375" y1="642.5" y2="642.5" class="net_15"/>
  <line x1="375" x2="375" y1="642.5" y2="600" class="net_15"/>
  <line x1="375" x2="395" y1="600" y2="600" class="net_15"/>
  <line x1="422" x2="476" y1="592.5" y2="592.5" class="net_31"/>
  <line x1="349.66666666666663" x2="395.3333333333333" y1="700" y2="700" class="net_32"/>
  <line x1="415.3333333333333" x2="476" y1="690" y2="690" class="net_33"/>
  <line x1="552" x2="589" y1="113" y2="113" class="net_8,9,10,11,12,13,14"/>
  <line x1="496" x2="546.5" y1="42" y2="42" class="net_8"/>
  <line x1="546.5" x2="546.5" y1="42" y2="102.5" class="net_8"/>
  <line x1="496" x2="546" y1="123" y2="123" class="net_9"/>
  <line x1="496" x2="506" y1="246" y2="246" class="net_10"/>
  <line x1="506" x2="506" y1="246" y2="143" class="net_10"/>
  <line x1="506" x2="546" y1="143" y2="143" class="net_10"/>
  <line x1="496" x2="516" y1="352" y2="352" class="net_11"/>
  <line x1="516" x2="516" y1="352" y2="163" class="net_11"/>
  <line x1="516" x2="546" y1="163" y2="163" class="net_11"/>
  <line x1="496" x2="526" y1="412" y2="412" class="net_12"/>
  <line x1="526" x2="526" y1="412" y2="183" class="net_12"/>
  <line x1="526" x2="546" y1="183" y2="183" class="net_12"/>
  <line x1="496" x2="536" y1="602.5" y2="602.5" class="net_13"/>
  <line x1="536" x2="536" y1="602.5" y2="203" class="net_13"/>
  <line x1="536" x2="546" y1="203" y2="203" class="net_13"/>
  <line x1="496" x2="546.5" y1="700" y2="700" class="net_14"/>
  <line x1="546.5" x2="546.5" y1="700" y2="223.5" class="net_14"/>
  <line x1="124" x2="179" y1="384.5" y2="384.5" class="net_4,5,6,7"/>
</svg>
