<svg xmlns="http://www.w3.org/2000/svg" xmlns:xlink="http://www.w3.org/1999/xlink" xmlns:s="https://github.com/nturley/netlistsvg" width="711" height="807">
  <style>svg {
    stroke:#000;
    fill:none;
  }
  text {
    fill:#000;
    stroke:none;
    font-size:10px;
    font-weight: bold;
    font-family: "Courier New", monospace;
  }
  .nodelabel {
    text-anchor: middle;
  }
  .inputPortLabel {
    text-anchor: end;
  }
  .splitjoinBody {
    fill:#000;
  }</style>
  <g s:type="and" transform="translate(307,110.5)" s:width="30" s:height="25" id="cell_$and$generators/generated/verilog_yosys_elaborated/SevenSegmentDisplay.v:40$2">
    <s:alias val="$and"/>
    <s:alias val="$logic_and"/>
    <s:alias val="$_AND_"/>
    <path d="M0,0 L0,25 L15,25 A15 12.5 0 0 0 15,0 Z" class="cell_$and$generators/generated/verilog_yosys_elaborated/SevenSegmentDisplay.v:40$2"/>
    <g s:x="0" s:y="5" s:pid="A"/>
    <g s:x="0" s:y="20" s:pid="B"/>
    <g s:x="30" s:y="12.5" s:pid="Y"/>
  </g>
  <g s:type="and" transform="translate(452,314)" s:width="30" s:height="25" id="cell_$and$generators/generated/verilog_yosys_elaborated/SevenSegmentDisplay.v:47$13">
    <s:alias val="$and"/>
    <s:alias val="$logic_and"/>
    <s:alias val="$_AND_"/>
    <path d="M0,0 L0,25 L15,25 A15 12.5 0 0 0 15,0 Z" class="cell_$and$generators/generated/verilog_yosys_elaborated/SevenSegmentDisplay.v:47$13"/>
    <g s:x="0" s:y="5" s:pid="A"/>
    <g s:x="0" s:y="20" s:pid="B"/>
    <g s:x="30" s:y="12.5" s:pid="Y"/>
  </g>
  <g s:type="and" transform="translate(307,247)" s:width="30" s:height="25" id="cell_$and$generators/generated/verilog_yosys_elaborated/SevenSegmentDisplay.v:48$15">
    <s:alias val="$and"/>
    <s:alias val="$logic_and"/>
    <s:alias val="$_AND_"/>
    <path d="M0,0 L0,25 L15,25 A15 12.5 0 0 0 15,0 Z" class="cell_$and$generators/generated/verilog_yosys_elaborated/SevenSegmentDisplay.v:48$15"/>
    <g s:x="0" s:y="5" s:pid="A"/>
    <g s:x="0" s:y="20" s:pid="B"/>
    <g s:x="30" s:y="12.5" s:pid="Y"/>
  </g>
  <g s:type="not" transform="translate(380.5,693)" s:width="30" s:height="20" id="cell_$not$generators/generated/verilog_yosys_elaborated/SevenSegmentDisplay.v:39$1">
    <s:alias val="$_NOT_"/>
    <s:alias val="$not"/>
    <s:alias val="$logic_not"/>
    <path d="M0,0 L0,20 L20,10 Z" class="cell_$not$generators/generated/verilog_yosys_elaborated/SevenSegmentDisplay.v:39$1"/>
    <circle cx="23" cy="10" r="3" class="cell_$not$generators/generated/verilog_yosys_elaborated/SevenSegmentDisplay.v:39$1"/>
    <g s:x="0" s:y="10" s:pid="A"/>
    <g s:x="25" s:y="10" s:pid="Y"/>
  </g>
  <g s:type="not" transform="translate(380.5,113)" s:width="30" s:height="20" id="cell_$not$generators/generated/verilog_yosys_elaborated/SevenSegmentDisplay.v:40$3">
    <s:alias val="$_NOT_"/>
    <s:alias val="$not"/>
    <s:alias val="$logic_not"/>
    <path d="M0,0 L0,20 L20,10 Z" class="cell_$not$generators/generated/verilog_yosys_elaborated/SevenSegmentDisplay.v:40$3"/>
    <circle cx="23" cy="10" r="3" class="cell_$not$generators/generated/verilog_yosys_elaborated/SevenSegmentDisplay.v:40$3"/>
    <g s:x="0" s:y="10" s:pid="A"/>
    <g s:x="25" s:y="10" s:pid="Y"/>
  </g>
  <g s:type="not" transform="translate(452,464)" s:width="30" s:height="20" id="cell_$not$generators/generated/verilog_yosys_elaborated/SevenSegmentDisplay.v:42$6">
    <s:alias val="$_NOT_"/>
    <s:alias val="$not"/>
    <s:alias val="$logic_not"/>
    <path d="M0,0 L0,20 L20,10 Z" class="cell_$not$generators/generated/verilog_yosys_elaborated/SevenSegmentDisplay.v:42$6"/>
    <circle cx="23" cy="10" r="3" class="cell_$not$generators/generated/verilog_yosys_elaborated/SevenSegmentDisplay.v:42$6"/>
    <g s:x="0" s:y="10" s:pid="A"/>
    <g s:x="25" s:y="10" s:pid="Y"/>
  </g>
  <g s:type="not" transform="translate(307.5,192)" s:width="30" s:height="20" id="cell_$not$generators/generated/verilog_yosys_elaborated/SevenSegmentDisplay.v:44$9">
    <s:alias val="$_NOT_"/>
    <s:alias val="$not"/>
    <s:alias val="$logic_not"/>
    <path d="M0,0 L0,20 L20,10 Z" class="cell_$not$generators/generated/verilog_yosys_elaborated/SevenSegmentDisplay.v:44$9"/>
    <circle cx="23" cy="10" r="3" class="cell_$not$generators/generated/verilog_yosys_elaborated/SevenSegmentDisplay.v:44$9"/>
    <g s:x="0" s:y="10" s:pid="A"/>
    <g s:x="25" s:y="10" s:pid="Y"/>
  </g>
  <g s:type="not" transform="translate(380.5,330)" s:width="30" s:height="20" id="cell_$not$generators/generated/verilog_yosys_elaborated/SevenSegmentDisplay.v:47$12">
    <s:alias val="$_NOT_"/>
    <s:alias val="$not"/>
    <s:alias val="$logic_not"/>
    <path d="M0,0 L0,20 L20,10 Z" class="cell_$not$generators/generated/verilog_yosys_elaborated/SevenSegmentDisplay.v:47$12"/>
    <circle cx="23" cy="10" r="3" class="cell_$not$generators/generated/verilog_yosys_elaborated/SevenSegmentDisplay.v:47$12"/>
    <g s:x="0" s:y="10" s:pid="A"/>
    <g s:x="25" s:y="10" s:pid="Y"/>
  </g>
  <g s:type="not" transform="translate(241,263)" s:width="30" s:height="20" id="cell_$not$generators/generated/verilog_yosys_elaborated/SevenSegmentDisplay.v:48$14">
    <s:alias val="$_NOT_"/>
    <s:alias val="$not"/>
    <s:alias val="$logic_not"/>
    <path d="M0,0 L0,20 L20,10 Z" class="cell_$not$generators/generated/verilog_yosys_elaborated/SevenSegmentDisplay.v:48$14"/>
    <circle cx="23" cy="10" r="3" class="cell_$not$generators/generated/verilog_yosys_elaborated/SevenSegmentDisplay.v:48$14"/>
    <g s:x="0" s:y="10" s:pid="A"/>
    <g s:x="25" s:y="10" s:pid="Y"/>
  </g>
  <g s:type="not" transform="translate(307.5,523.5)" s:width="30" s:height="20" id="cell_$not$generators/generated/verilog_yosys_elaborated/SevenSegmentDisplay.v:52$19">
    <s:alias val="$_NOT_"/>
    <s:alias val="$not"/>
    <s:alias val="$logic_not"/>
    <path d="M0,0 L0,20 L20,10 Z" class="cell_$not$generators/generated/verilog_yosys_elaborated/SevenSegmentDisplay.v:52$19"/>
    <circle cx="23" cy="10" r="3" class="cell_$not$generators/generated/verilog_yosys_elaborated/SevenSegmentDisplay.v:52$19"/>
    <g s:x="0" s:y="10" s:pid="A"/>
    <g s:x="25" s:y="10" s:pid="Y"/>
  </g>
  <g s:type="not" transform="translate(307.5,583.5)" s:width="30" s:height="20" id="cell_$not$generators/generated/verilog_yosys_elaborated/SevenSegmentDisplay.v:56$24">
    <s:alias val="$_NOT_"/>
    <s:alias val="$not"/>
    <s:alias val="$logic_not"/>
    <path d="M0,0 L0,20 L20,10 Z" class="cell_$not$generators/generated/verilog_yosys_elaborated/SevenSegmentDisplay.v:56$24"/>
    <circle cx="23" cy="10" r="3" class="cell_$not$generators/generated/verilog_yosys_elaborated/SevenSegmentDisplay.v:56$24"/>
    <g s:x="0" s:y="10" s:pid="A"/>
    <g s:x="25" s:y="10" s:pid="Y"/>
  </g>
  <g s:type="not" transform="translate(380.5,638)" s:width="30" s:height="20" id="cell_$not$generators/generated/verilog_yosys_elaborated/SevenSegmentDisplay.v:59$29">
    <s:alias val="$_NOT_"/>
    <s:alias val="$not"/>
    <s:alias val="$logic_not"/>
    <path d="M0,0 L0,20 L20,10 Z" class="cell_$not$generators/generated/verilog_yosys_elaborated/SevenSegmentDisplay.v:59$29"/>
    <circle cx="23" cy="10" r="3" class="cell_$not$generators/generated/verilog_yosys_elaborated/SevenSegmentDisplay.v:59$29"/>
    <g s:x="0" s:y="10" s:pid="A"/>
    <g s:x="25" s:y="10" s:pid="Y"/>
  </g>
  <g s:type="or" transform="translate(380,461.5)" s:width="30" s:height="25" id="cell_$or$generators/generated/verilog_yosys_elaborated/SevenSegmentDisplay.v:42$5">
    <s:alias val="$or"/>
    <s:alias val="$logic_or"/>
    <s:alias val="$_OR_"/>
    <path d="M0,25 L0,25 L15,25 A15 12.5 0 0 0 15,0 L0,0" class="cell_$or$generators/generated/verilog_yosys_elaborated/SevenSegmentDisplay.v:42$5"/>
    <path d="M0,0 A30 25 0 0 1 0,25" class="cell_$or$generators/generated/verilog_yosys_elaborated/SevenSegmentDisplay.v:42$5"/>
    <g s:x="3" s:y="5" s:pid="A"/>
    <g s:x="3" s:y="20" s:pid="B"/>
    <g s:x="30" s:y="12.5" s:pid="Y"/>
  </g>
  <g s:type="or" transform="translate(241,189.5)" s:width="30" s:height="25" id="cell_$or$generators/generated/verilog_yosys_elaborated/SevenSegmentDisplay.v:44$8">
    <s:alias val="$or"/>
    <s:alias val="$logic_or"/>
    <s:alias val="$_OR_"/>
    <path d="M0,25 L0,25 L15,25 A15 12.5 0 0 0 15,0 L0,0" class="cell_$or$generators/generated/verilog_yosys_elaborated/SevenSegmentDisplay.v:44$8"/>
    <path d="M0,0 A30 25 0 0 1 0,25" class="cell_$or$generators/generated/verilog_yosys_elaborated/SevenSegmentDisplay.v:44$8"/>
    <g s:x="3" s:y="5" s:pid="A"/>
    <g s:x="3" s:y="20" s:pid="B"/>
    <g s:x="30" s:y="12.5" s:pid="Y"/>
  </g>
  <g s:type="or" transform="translate(380,197)" s:width="30" s:height="25" id="cell_$or$generators/generated/verilog_yosys_elaborated/SevenSegmentDisplay.v:49$16">
    <s:alias val="$or"/>
    <s:alias val="$logic_or"/>
    <s:alias val="$_OR_"/>
    <path d="M0,25 L0,25 L15,25 A15 12.5 0 0 0 15,0 L0,0" class="cell_$or$generators/generated/verilog_yosys_elaborated/SevenSegmentDisplay.v:49$16"/>
    <path d="M0,0 A30 25 0 0 1 0,25" class="cell_$or$generators/generated/verilog_yosys_elaborated/SevenSegmentDisplay.v:49$16"/>
    <g s:x="3" s:y="5" s:pid="A"/>
    <g s:x="3" s:y="20" s:pid="B"/>
    <g s:x="30" s:y="12.5" s:pid="Y"/>
  </g>
  <g s:type="or" transform="translate(380,507.5)" s:width="30" s:height="25" id="cell_$or$generators/generated/verilog_yosys_elaborated/SevenSegmentDisplay.v:52$20">
    <s:alias val="$or"/>
    <s:alias val="$logic_or"/>
    <s:alias val="$_OR_"/>
    <path d="M0,25 L0,25 L15,25 A15 12.5 0 0 0 15,0 L0,0" class="cell_$or$generators/generated/verilog_yosys_elaborated/SevenSegmentDisplay.v:52$20"/>
    <path d="M0,0 A30 25 0 0 1 0,25" class="cell_$or$generators/generated/verilog_yosys_elaborated/SevenSegmentDisplay.v:52$20"/>
    <g s:x="3" s:y="5" s:pid="A"/>
    <g s:x="3" s:y="20" s:pid="B"/>
    <g s:x="30" s:y="12.5" s:pid="Y"/>
  </g>
  <g s:type="or" transform="translate(380,567.5)" s:width="30" s:height="25" id="cell_$or$generators/generated/verilog_yosys_elaborated/SevenSegmentDisplay.v:56$25">
    <s:alias val="$or"/>
    <s:alias val="$logic_or"/>
    <s:alias val="$_OR_"/>
    <path d="M0,25 L0,25 L15,25 A15 12.5 0 0 0 15,0 L0,0" class="cell_$or$generators/generated/verilog_yosys_elaborated/SevenSegmentDisplay.v:56$25"/>
    <path d="M0,0 A30 25 0 0 1 0,25" class="cell_$or$generators/generated/verilog_yosys_elaborated/SevenSegmentDisplay.v:56$25"/>
    <g s:x="3" s:y="5" s:pid="A"/>
    <g s:x="3" s:y="20" s:pid="B"/>
    <g s:x="30" s:y="12.5" s:pid="Y"/>
  </g>
  <g s:type="or" transform="translate(452,575)" s:width="30" s:height="25" id="cell_$or$generators/generated/verilog_yosys_elaborated/SevenSegmentDisplay.v:57$26">
    <s:alias val="$or"/>
    <s:alias val="$logic_or"/>
    <s:alias val="$_OR_"/>
    <path d="M0,25 L0,25 L15,25 A15 12.5 0 0 0 15,0 L0,0" class="cell_$or$generators/generated/verilog_yosys_elaborated/SevenSegmentDisplay.v:57$26"/>
    <path d="M0,0 A30 25 0 0 1 0,25" class="cell_$or$generators/generated/verilog_yosys_elaborated/SevenSegmentDisplay.v:57$26"/>
    <g s:x="3" s:y="5" s:pid="A"/>
    <g s:x="3" s:y="20" s:pid="B"/>
    <g s:x="30" s:y="12.5" s:pid="Y"/>
  </g>
  <g s:type="or" transform="translate(452,643)" s:width="30" s:height="25" id="cell_$or$generators/generated/verilog_yosys_elaborated/SevenSegmentDisplay.v:60$30">
    <s:alias val="$or"/>
    <s:alias val="$logic_or"/>
    <s:alias val="$_OR_"/>
    <path d="M0,25 L0,25 L15,25 A15 12.5 0 0 0 15,0 L0,0" class="cell_$or$generators/generated/verilog_yosys_elaborated/SevenSegmentDisplay.v:60$30"/>
    <path d="M0,0 A30 25 0 0 1 0,25" class="cell_$or$generators/generated/verilog_yosys_elaborated/SevenSegmentDisplay.v:60$30"/>
    <g s:x="3" s:y="5" s:pid="A"/>
    <g s:x="3" s:y="20" s:pid="B"/>
    <g s:x="30" s:y="12.5" s:pid="Y"/>
  </g>
  <g s:type="or" transform="translate(380,748)" s:width="30" s:height="25" id="cell_$or$generators/generated/verilog_yosys_elaborated/SevenSegmentDisplay.v:62$32">
    <s:alias val="$or"/>
    <s:alias val="$logic_or"/>
    <s:alias val="$_OR_"/>
    <path d="M0,25 L0,25 L15,25 A15 12.5 0 0 0 15,0 L0,0" class="cell_$or$generators/generated/verilog_yosys_elaborated/SevenSegmentDisplay.v:62$32"/>
    <path d="M0,0 A30 25 0 0 1 0,25" class="cell_$or$generators/generated/verilog_yosys_elaborated/SevenSegmentDisplay.v:62$32"/>
    <g s:x="3" s:y="5" s:pid="A"/>
    <g s:x="3" s:y="20" s:pid="B"/>
    <g s:x="30" s:y="12.5" s:pid="Y"/>
  </g>
  <g s:type="mux" transform="translate(455.3333333333333,12)" s:width="20" s:height="40" id="cell_$ternary$generators/generated/verilog_yosys_elaborated/SevenSegmentDisplay.v:41$4">
    <s:alias val="$pmux"/>
    <s:alias val="$mux"/>
    <s:alias val="$_MUX_"/>
    <path d="M0,0 L20,10 L20,30 L0,40 Z" class="cell_$ternary$generators/generated/verilog_yosys_elaborated/SevenSegmentDisplay.v:41$4"/>
    <g s:x="0" s:y="10" s:pid="A"/>
    <g s:x="0" s:y="30" s:pid="B"/>
    <g s:x="10" s:y="35" s:pid="S"/>
    <g s:x="20" s:y="20" s:pid="Y"/>
  </g>
  <g s:type="mux" transform="translate(532,22)" s:width="20" s:height="40" id="cell_$ternary$generators/generated/verilog_yosys_elaborated/SevenSegmentDisplay.v:43$7">
    <s:alias val="$pmux"/>
    <s:alias val="$mux"/>
    <s:alias val="$_MUX_"/>
    <path d="M0,0 L20,10 L20,30 L0,40 Z" class="cell_$ternary$generators/generated/verilog_yosys_elaborated/SevenSegmentDisplay.v:43$7"/>
    <g s:x="0" s:y="10" s:pid="A"/>
    <g s:x="0" s:y="30" s:pid="B"/>
    <g s:x="10" s:y="35" s:pid="S"/>
    <g s:x="20" s:y="20" s:pid="Y"/>
  </g>
  <g s:type="mux" transform="translate(455.3333333333333,93)" s:width="20" s:height="40" id="cell_$ternary$generators/generated/verilog_yosys_elaborated/SevenSegmentDisplay.v:45$10">
    <s:alias val="$pmux"/>
    <s:alias val="$mux"/>
    <s:alias val="$_MUX_"/>
    <path d="M0,0 L20,10 L20,30 L0,40 Z" class="cell_$ternary$generators/generated/verilog_yosys_elaborated/SevenSegmentDisplay.v:45$10"/>
    <g s:x="0" s:y="10" s:pid="A"/>
    <g s:x="0" s:y="30" s:pid="B"/>
    <g s:x="10" s:y="35" s:pid="S"/>
    <g s:x="20" s:y="20" s:pid="Y"/>
  </g>
  <g s:type="mux" transform="translate(532,103)" s:width="20" s:height="40" id="cell_$ternary$generators/generated/verilog_yosys_elaborated/SevenSegmentDisplay.v:46$11">
    <s:alias val="$pmux"/>
    <s:alias val="$mux"/>
    <s:alias val="$_MUX_"/>
    <path d="M0,0 L20,10 L20,30 L0,40 Z" class="cell_$ternary$generators/generated/verilog_yosys_elaborated/SevenSegmentDisplay.v:46$11"/>
    <g s:x="0" s:y="10" s:pid="A"/>
    <g s:x="0" s:y="30" s:pid="B"/>
    <g s:x="10" s:y="35" s:pid="S"/>
    <g s:x="20" s:y="20" s:pid="Y"/>
  </g>
  <g s:type="mux" transform="translate(455.3333333333333,199.5)" s:width="20" s:height="40" id="cell_$ternary$generators/generated/verilog_yosys_elaborated/SevenSegmentDisplay.v:50$17">
    <s:alias val="$pmux"/>
    <s:alias val="$mux"/>
    <s:alias val="$_MUX_"/>
    <path d="M0,0 L20,10 L20,30 L0,40 Z" class="cell_$ternary$generators/generated/verilog_yosys_elaborated/SevenSegmentDisplay.v:50$17"/>
    <g s:x="0" s:y="10" s:pid="A"/>
    <g s:x="0" s:y="30" s:pid="B"/>
    <g s:x="10" s:y="35" s:pid="S"/>
    <g s:x="20" s:y="20" s:pid="Y"/>
  </g>
  <g s:type="mux" transform="translate(532,209.5)" s:width="20" s:height="40" id="cell_$ternary$generators/generated/verilog_yosys_elaborated/SevenSegmentDisplay.v:51$18">
    <s:alias val="$pmux"/>
    <s:alias val="$mux"/>
    <s:alias val="$_MUX_"/>
    <path d="M0,0 L20,10 L20,30 L0,40 Z" class="cell_$ternary$generators/generated/verilog_yosys_elaborated/SevenSegmentDisplay.v:51$18"/>
    <g s:x="0" s:y="10" s:pid="A"/>
    <g s:x="0" s:y="30" s:pid="B"/>
    <g s:x="10" s:y="35" s:pid="S"/>
    <g s:x="20" s:y="20" s:pid="Y"/>
  </g>
  <g s:type="mux" transform="translate(455.3333333333333,374)" s:width="20" s:height="40" id="cell_$ternary$generators/generated/verilog_yosys_elaborated/SevenSegmentDisplay.v:54$22">
    <s:alias val="$pmux"/>
    <s:alias val="$mux"/>
    <s:alias val="$_MUX_"/>
    <path d="M0,0 L20,10 L20,30 L0,40 Z" class="cell_$ternary$generators/generated/verilog_yosys_elaborated/SevenSegmentDisplay.v:54$22"/>
    <g s:x="0" s:y="10" s:pid="A"/>
    <g s:x="0" s:y="30" s:pid="B"/>
    <g s:x="10" s:y="35" s:pid="S"/>
    <g s:x="20" s:y="20" s:pid="Y"/>
  </g>
  <g s:type="mux" transform="translate(532,384)" s:width="20" s:height="40" id="cell_$ternary$generators/generated/verilog_yosys_elaborated/SevenSegmentDisplay.v:55$23">
    <s:alias val="$pmux"/>
    <s:alias val="$mux"/>
    <s:alias val="$_MUX_"/>
    <path d="M0,0 L20,10 L20,30 L0,40 Z" class="cell_$ternary$generators/generated/verilog_yosys_elaborated/SevenSegmentDisplay.v:55$23"/>
    <g s:x="0" s:y="10" s:pid="A"/>
    <g s:x="0" s:y="30" s:pid="B"/>
    <g s:x="10" s:y="35" s:pid="S"/>
    <g s:x="20" s:y="20" s:pid="Y"/>
  </g>
  <g s:type="mux" transform="translate(532,444)" s:width="20" s:height="40" id="cell_$ternary$generators/generated/verilog_yosys_elaborated/SevenSegmentDisplay.v:58$27">
    <s:alias val="$pmux"/>
    <s:alias val="$mux"/>
    <s:alias val="$_MUX_"/>
    <path d="M0,0 L20,10 L20,30 L0,40 Z" class="cell_$ternary$generators/generated/verilog_yosys_elaborated/SevenSegmentDisplay.v:58$27"/>
    <g s:x="0" s:y="10" s:pid="A"/>
    <g s:x="0" s:y="30" s:pid="B"/>
    <g s:x="10" s:y="35" s:pid="S"/>
    <g s:x="20" s:y="20" s:pid="Y"/>
  </g>
  <g s:type="mux" transform="translate(532,645.5)" s:width="20" s:height="40" id="cell_$ternary$generators/generated/verilog_yosys_elaborated/SevenSegmentDisplay.v:61$31">
    <s:alias val="$pmux"/>
    <s:alias val="$mux"/>
    <s:alias val="$_MUX_"/>
    <path d="M0,0 L20,10 L20,30 L0,40 Z" class="cell_$ternary$generators/generated/verilog_yosys_elaborated/SevenSegmentDisplay.v:61$31"/>
    <g s:x="0" s:y="10" s:pid="A"/>
    <g s:x="0" s:y="30" s:pid="B"/>
    <g s:x="10" s:y="35" s:pid="S"/>
    <g s:x="20" s:y="20" s:pid="Y"/>
  </g>
  <g s:type="mux" transform="translate(455.3333333333333,730.5)" s:width="20" s:height="40" id="cell_$ternary$generators/generated/verilog_yosys_elaborated/SevenSegmentDisplay.v:63$33">
    <s:alias val="$pmux"/>
    <s:alias val="$mux"/>
    <s:alias val="$_MUX_"/>
    <path d="M0,0 L20,10 L20,30 L0,40 Z" class="cell_$ternary$generators/generated/verilog_yosys_elaborated/SevenSegmentDisplay.v:63$33"/>
    <g s:x="0" s:y="10" s:pid="A"/>
    <g s:x="0" s:y="30" s:pid="B"/>
    <g s:x="10" s:y="35" s:pid="S"/>
    <g s:x="20" s:y="20" s:pid="Y"/>
  </g>
  <g s:type="mux" transform="translate(532,740.5)" s:width="20" s:height="40" id="cell_$ternary$generators/generated/verilog_yosys_elaborated/SevenSegmentDisplay.v:64$34">
    <s:alias val="$pmux"/>
    <s:alias val="$mux"/>
    <s:alias val="$_MUX_"/>
    <path d="M0,0 L20,10 L20,30 L0,40 Z" class="cell_$ternary$generators/generated/verilog_yosys_elaborated/SevenSegmentDisplay.v:64$34"/>
    <g s:x="0" s:y="10" s:pid="A"/>
    <g s:x="0" s:y="30" s:pid="B"/>
    <g s:x="10" s:y="35" s:pid="S"/>
    <g s:x="20" s:y="20" s:pid="Y"/>
  </g>
  <g s:type="reduce_xor" transform="translate(379,391.5)" s:width="33" s:height="25" id="cell_$xor$generators/generated/verilog_yosys_elaborated/SevenSegmentDisplay.v:53$21">
    <s:alias val="$xor"/>
    <s:alias val="$reduce_xor"/>
    <s:alias val="$_XOR_"/>
    <path d="M3,0 A30 25 0 0 1 3,25 A30 25 0 0 0 33,12.5 A30 25 0 0 0 3,0" class="cell_$xor$generators/generated/verilog_yosys_elaborated/SevenSegmentDisplay.v:53$21"/>
    <path d="M0,0 A30 25 0 0 1 0,25" class="cell_$xor$generators/generated/verilog_yosys_elaborated/SevenSegmentDisplay.v:53$21"/>
    <g s:x="3" s:y="5" s:pid="A"/>
    <g s:x="3" s:y="20" s:pid="B"/>
    <g s:x="33" s:y="12.5" s:pid="Y"/>
  </g>
  <g s:type="reduce_xor" transform="translate(306,635.5)" s:width="33" s:height="25" id="cell_$xor$generators/generated/verilog_yosys_elaborated/SevenSegmentDisplay.v:59$28">
    <s:alias val="$xor"/>
    <s:alias val="$reduce_xor"/>
    <s:alias val="$_XOR_"/>
    <path d="M3,0 A30 25 0 0 1 3,25 A30 25 0 0 0 33,12.5 A30 25 0 0 0 3,0" class="cell_$xor$generators/generated/verilog_yosys_elaborated/SevenSegmentDisplay.v:59$28"/>
    <path d="M0,0 A30 25 0 0 1 0,25" class="cell_$xor$generators/generated/verilog_yosys_elaborated/SevenSegmentDisplay.v:59$28"/>
    <g s:x="3" s:y="5" s:pid="A"/>
    <g s:x="3" s:y="20" s:pid="B"/>
    <g s:x="33" s:y="12.5" s:pid="Y"/>
  </g>
  <g s:type="inputExt" transform="translate(12,22)" s:width="30" s:height="20" id="cell_clock">
    <text x="15" y="-4" class="nodelabel cell_clock" s:attribute="ref">clock</text>
    <s:alias val="$_inputExt_"/>
    <path d="M0,0 L0,20 L15,20 L30,10 L15,0 Z" class="cell_clock"/>
    <g s:x="28" s:y="10" s:pid="Y"/>
  </g>
  <g s:type="inputExt" transform="translate(54,22)" s:width="30" s:height="20" id="cell_reset">
    <text x="15" y="-4" class="nodelabel cell_reset" s:attribute="ref">reset</text>
    <s:alias val="$_inputExt_"/>
    <path d="M0,0 L0,20 L15,20 L30,10 L15,0 Z" class="cell_reset"/>
    <g s:x="28" s:y="10" s:pid="Y"/>
  </g>
  <g s:type="inputExt" transform="translate(96,386.5)" s:width="30" s:height="20" id="cell_io_binIn">
    <text x="15" y="-4" class="nodelabel cell_io_binIn" s:attribute="ref">io_binIn</text>
    <s:alias val="$_inputExt_"/>
    <path d="M0,0 L0,20 L15,20 L30,10 L15,0 Z" class="cell_io_binIn"/>
    <g s:x="28" s:y="10" s:pid="Y"/>
  </g>
  <g s:type="outputExt" transform="translate(645,103)" s:width="30" s:height="20" id="cell_io_segOut">
    <text x="15" y="-4" class="nodelabel cell_io_segOut" s:attribute="ref">io_segOut</text>
    <s:alias val="$_outputExt_"/>
    <path d="M30,0 L30,20 L15,20 L0,10 L15,0 Z" class="cell_io_segOut"/>
    <g s:x="0" s:y="10" s:pid="A"/>
  </g>
  <g s:type="join" transform="translate(602,92.5)" s:width="4" s:height="40" id="cell_$join$,8,9,10,11,12,13,14,">
    <rect width="5" height="140" class="splitjoinBody" s:generic="body"/>
    <s:alias val="$_join_"/>
    <g s:x="5" s:y="20" s:pid="out"/>
    <g transform="translate(0,10)" s:x="0" s:y="10" s:pid="in0">
      <text x="-3" y="-4" class="inputPortLabel">0</text>
    </g>
    <g transform="translate(0,30)" s:x="0" s:y="10" s:pid="in0">
      <text x="-3" y="-4" class="inputPortLabel">1</text>
    </g>
    <g transform="translate(0,50)" s:x="0" s:y="10" s:pid="in0">
      <text x="-3" y="-4" class="inputPortLabel">2</text>
    </g>
    <g transform="translate(0,70)" s:x="0" s:y="10" s:pid="in0">
      <text x="-3" y="-4" class="inputPortLabel">3</text>
    </g>
    <g transform="translate(0,90)" s:x="0" s:y="10" s:pid="in0">
      <text x="-3" y="-4" class="inputPortLabel">4</text>
    </g>
    <g transform="translate(0,110)" s:x="0" s:y="10" s:pid="in0">
      <text x="-3" y="-4" class="inputPortLabel">5</text>
    </g>
    <g transform="translate(0,130)" s:x="0" s:y="10" s:pid="in0">
      <text x="-3" y="-4" class="inputPortLabel">6</text>
    </g>
  </g>
  <g s:type="split" transform="translate(179,376)" s:width="5" s:height="40" id="cell_$split$,4,5,6,7,">
    <rect width="5" height="80" class="splitjoinBody" s:generic="body"/>
    <s:alias val="$_split_"/>
    <g s:x="0" s:y="20" s:pid="in"/>
    <g transform="translate(4,10)" s:x="4" s:y="10" s:pid="out0">
      <text x="5" y="-4">0</text>
    </g>
    <g transform="translate(4,30)" s:x="4" s:y="10" s:pid="out0">
      <text x="5" y="-4">1</text>
    </g>
    <g transform="translate(4,50)" s:x="4" s:y="10" s:pid="out0">
      <text x="5" y="-4">2</text>
    </g>
    <g transform="translate(4,70)" s:x="4" s:y="10" s:pid="out0">
      <text x="5" y="-4">3</text>
    </g>
  </g>
  <line x1="184" x2="221" y1="386.5" y2="386.5" class="net_4"/>
  <line x1="221" x2="221" y1="386.5" y2="115.5" class="net_4"/>
  <circle cx="221" cy="386.5" r="2" style="fill:#000" class="net_4"/>
  <line x1="221" x2="307" y1="115.5" y2="115.5" class="net_4"/>
  <line x1="184" x2="221" y1="386.5" y2="386.5" class="net_4"/>
  <line x1="221" x2="221" y1="386.5" y2="273" class="net_4"/>
  <circle cx="221" cy="273" r="2" style="fill:#000" class="net_4"/>
  <line x1="221" x2="241" y1="273" y2="273" class="net_4"/>
  <line x1="184" x2="221" y1="386.5" y2="386.5" class="net_4"/>
  <line x1="221" x2="221" y1="386.5" y2="533.5" class="net_4"/>
  <circle cx="221" cy="533.5" r="2" style="fill:#000" class="net_4"/>
  <line x1="221" x2="307.5" y1="533.5" y2="533.5" class="net_4"/>
  <line x1="184" x2="221" y1="386.5" y2="386.5" class="net_4"/>
  <line x1="221" x2="221" y1="386.5" y2="194.5" class="net_4"/>
  <circle cx="221" cy="194.5" r="2" style="fill:#000" class="net_4"/>
  <line x1="221" x2="244" y1="194.5" y2="194.5" class="net_4"/>
  <line x1="184" x2="221" y1="386.5" y2="386.5" class="net_4"/>
  <line x1="221" x2="221" y1="386.5" y2="533.5" class="net_4"/>
  <line x1="221" x2="281" y1="533.5" y2="533.5" class="net_4"/>
  <line x1="281" x2="281" y1="533.5" y2="572.5" class="net_4"/>
  <circle cx="281" cy="533.5" r="2" style="fill:#000" class="net_4"/>
  <line x1="281" x2="383" y1="572.5" y2="572.5" class="net_4"/>
  <line x1="184" x2="221" y1="386.5" y2="386.5" class="net_4"/>
  <line x1="221" x2="221" y1="386.5" y2="753" class="net_4"/>
  <line x1="221" x2="383" y1="753" y2="753" class="net_4"/>
  <line x1="184" x2="221" y1="386.5" y2="386.5" class="net_4"/>
  <line x1="221" x2="221" y1="386.5" y2="396.5" class="net_4"/>
  <circle cx="221" cy="396.5" r="2" style="fill:#000" class="net_4"/>
  <line x1="221" x2="382" y1="396.5" y2="396.5" class="net_4"/>
  <line x1="184" x2="221" y1="386.5" y2="386.5" class="net_4"/>
  <line x1="221" x2="221" y1="386.5" y2="640.5" class="net_4"/>
  <circle cx="221" cy="640.5" r="2" style="fill:#000" class="net_4"/>
  <line x1="221" x2="309" y1="640.5" y2="640.5" class="net_4"/>
  <line x1="184" x2="231" y1="406.5" y2="406.5" class="net_5"/>
  <line x1="231" x2="231" y1="406.5" y2="130.5" class="net_5"/>
  <circle cx="231" cy="406.5" r="2" style="fill:#000" class="net_5"/>
  <circle cx="231" cy="130.5" r="2" style="fill:#000" class="net_5"/>
  <line x1="231" x2="307" y1="130.5" y2="130.5" class="net_5"/>
  <line x1="184" x2="231" y1="406.5" y2="406.5" class="net_5"/>
  <line x1="231" x2="231" y1="406.5" y2="252" class="net_5"/>
  <circle cx="231" cy="252" r="2" style="fill:#000" class="net_5"/>
  <line x1="231" x2="307" y1="252" y2="252" class="net_5"/>
  <line x1="184" x2="231" y1="406.5" y2="406.5" class="net_5"/>
  <line x1="231" x2="231" y1="406.5" y2="593.5" class="net_5"/>
  <circle cx="231" cy="593.5" r="2" style="fill:#000" class="net_5"/>
  <line x1="231" x2="307.5" y1="593.5" y2="593.5" class="net_5"/>
  <line x1="184" x2="231" y1="406.5" y2="406.5" class="net_5"/>
  <line x1="231" x2="231" y1="406.5" y2="481.5" class="net_5"/>
  <circle cx="231" cy="481.5" r="2" style="fill:#000" class="net_5"/>
  <line x1="231" x2="383" y1="481.5" y2="481.5" class="net_5"/>
  <line x1="184" x2="231" y1="406.5" y2="406.5" class="net_5"/>
  <line x1="231" x2="231" y1="406.5" y2="209.5" class="net_5"/>
  <circle cx="231" cy="209.5" r="2" style="fill:#000" class="net_5"/>
  <line x1="231" x2="244" y1="209.5" y2="209.5" class="net_5"/>
  <line x1="184" x2="231" y1="406.5" y2="406.5" class="net_5"/>
  <line x1="231" x2="231" y1="406.5" y2="512.5" class="net_5"/>
  <circle cx="231" cy="512.5" r="2" style="fill:#000" class="net_5"/>
  <line x1="231" x2="383" y1="512.5" y2="512.5" class="net_5"/>
  <line x1="184" x2="231" y1="406.5" y2="406.5" class="net_5"/>
  <line x1="231" x2="231" y1="406.5" y2="768" class="net_5"/>
  <line x1="231" x2="383" y1="768" y2="768" class="net_5"/>
  <line x1="184" x2="231" y1="406.5" y2="406.5" class="net_5"/>
  <line x1="231" x2="231" y1="406.5" y2="22" class="net_5"/>
  <line x1="231" x2="455.3333333333333" y1="22" y2="22" class="net_5"/>
  <line x1="184" x2="231" y1="406.5" y2="406.5" class="net_5"/>
  <line x1="231" x2="231" y1="406.5" y2="411.5" class="net_5"/>
  <circle cx="231" cy="411.5" r="2" style="fill:#000" class="net_5"/>
  <line x1="231" x2="382" y1="411.5" y2="411.5" class="net_5"/>
  <line x1="184" x2="231" y1="406.5" y2="406.5" class="net_5"/>
  <line x1="231" x2="231" y1="406.5" y2="655.5" class="net_5"/>
  <circle cx="231" cy="655.5" r="2" style="fill:#000" class="net_5"/>
  <line x1="231" x2="309" y1="655.5" y2="655.5" class="net_5"/>
  <line x1="332.5" x2="359" y1="202" y2="202" class="net_16"/>
  <line x1="359" x2="359" y1="202" y2="319" class="net_16"/>
  <circle cx="359" cy="202" r="2" style="fill:#000" class="net_16"/>
  <line x1="359" x2="452" y1="319" y2="319" class="net_16"/>
  <line x1="332.5" x2="383" y1="202" y2="202" class="net_16"/>
  <line x1="332.5" x2="359" y1="202" y2="202" class="net_16"/>
  <line x1="359" x2="359" y1="202" y2="156.5" class="net_16"/>
  <line x1="359" x2="442" y1="156.5" y2="156.5" class="net_16"/>
  <line x1="442" x2="442" y1="156.5" y2="103" class="net_16"/>
  <line x1="442" x2="455.3333333333333" y1="103" y2="103" class="net_16"/>
  <line x1="405.5" x2="422" y1="340" y2="340" class="net_17"/>
  <line x1="422" x2="422" y1="340" y2="334" class="net_17"/>
  <line x1="422" x2="452" y1="334" y2="334" class="net_17"/>
  <line x1="266" x2="281" y1="273" y2="273" class="net_19"/>
  <line x1="281" x2="281" y1="273" y2="267" class="net_19"/>
  <line x1="281" x2="307" y1="267" y2="267" class="net_19"/>
  <line x1="184" x2="211" y1="426.5" y2="426.5" class="net_6"/>
  <line x1="211" x2="211" y1="426.5" y2="703" class="net_6"/>
  <circle cx="211" cy="426.5" r="2" style="fill:#000" class="net_6"/>
  <circle cx="211" cy="703" r="2" style="fill:#000" class="net_6"/>
  <line x1="211" x2="380.5" y1="703" y2="703" class="net_6"/>
  <line x1="184" x2="211" y1="426.5" y2="426.5" class="net_6"/>
  <line x1="211" x2="211" y1="426.5" y2="304" class="net_6"/>
  <line x1="211" x2="349" y1="304" y2="304" class="net_6"/>
  <line x1="349" x2="349" y1="304" y2="340" class="net_6"/>
  <circle cx="211" cy="304" r="2" style="fill:#000" class="net_6"/>
  <circle cx="349" cy="304" r="2" style="fill:#000" class="net_6"/>
  <line x1="349" x2="380.5" y1="340" y2="340" class="net_6"/>
  <line x1="184" x2="349" y1="426.5" y2="426.5" class="net_6"/>
  <line x1="349" x2="349" y1="426.5" y2="466.5" class="net_6"/>
  <circle cx="349" cy="426.5" r="2" style="fill:#000" class="net_6"/>
  <line x1="349" x2="383" y1="466.5" y2="466.5" class="net_6"/>
  <line x1="184" x2="211" y1="426.5" y2="426.5" class="net_6"/>
  <line x1="211" x2="211" y1="426.5" y2="613.5" class="net_6"/>
  <line x1="211" x2="422" y1="613.5" y2="613.5" class="net_6"/>
  <line x1="422" x2="422" y1="613.5" y2="595" class="net_6"/>
  <circle cx="211" cy="613.5" r="2" style="fill:#000" class="net_6"/>
  <line x1="422" x2="455" y1="595" y2="595" class="net_6"/>
  <line x1="184" x2="211" y1="426.5" y2="426.5" class="net_6"/>
  <line x1="211" x2="211" y1="426.5" y2="145.5" class="net_6"/>
  <line x1="211" x2="432" y1="145.5" y2="145.5" class="net_6"/>
  <line x1="432" x2="432" y1="145.5" y2="83" class="net_6"/>
  <line x1="432" x2="465.3333333333333" y1="83" y2="83" class="net_6"/>
  <line x1="465.3333333333333" x2="465.3333333333333" y1="83" y2="47" class="net_6"/>
  <line x1="184" x2="211" y1="426.5" y2="426.5" class="net_6"/>
  <line x1="211" x2="211" y1="426.5" y2="145.5" class="net_6"/>
  <line x1="211" x2="369" y1="145.5" y2="145.5" class="net_6"/>
  <line x1="369" x2="369" y1="145.5" y2="167.5" class="net_6"/>
  <line x1="369" x2="465.3333333333333" y1="167.5" y2="167.5" class="net_6"/>
  <circle cx="369" cy="145.5" r="2" style="fill:#000" class="net_6"/>
  <line x1="465.3333333333333" x2="465.3333333333333" y1="167.5" y2="128" class="net_6"/>
  <line x1="184" x2="211" y1="426.5" y2="426.5" class="net_6"/>
  <line x1="211" x2="211" y1="426.5" y2="304" class="net_6"/>
  <line x1="211" x2="465.3333333333333" y1="304" y2="304" class="net_6"/>
  <line x1="465.3333333333333" x2="465.3333333333333" y1="304" y2="234.5" class="net_6"/>
  <line x1="184" x2="465.3333333333333" y1="426.5" y2="426.5" class="net_6"/>
  <line x1="465.3333333333333" x2="465.3333333333333" y1="426.5" y2="409" class="net_6"/>
  <line x1="184" x2="211" y1="426.5" y2="426.5" class="net_6"/>
  <line x1="211" x2="211" y1="426.5" y2="783" class="net_6"/>
  <line x1="211" x2="465.3333333333333" y1="783" y2="783" class="net_6"/>
  <line x1="465.3333333333333" x2="465.3333333333333" y1="783" y2="765.5" class="net_6"/>
  <line x1="337" x2="380.5" y1="123" y2="123" class="net_15"/>
  <line x1="410" x2="452" y1="474" y2="474" class="net_23"/>
  <line x1="271" x2="307.5" y1="202" y2="202" class="net_25"/>
  <line x1="339" x2="380.5" y1="648" y2="648" class="net_28"/>
  <line x1="337" x2="369" y1="259.5" y2="259.5" class="net_20"/>
  <line x1="369" x2="369" y1="259.5" y2="217" class="net_20"/>
  <circle cx="369" cy="259.5" r="2" style="fill:#000" class="net_20"/>
  <line x1="369" x2="383" y1="217" y2="217" class="net_20"/>
  <line x1="337" x2="422" y1="259.5" y2="259.5" class="net_20"/>
  <line x1="422" x2="422" y1="259.5" y2="229.5" class="net_20"/>
  <line x1="422" x2="455.3333333333333" y1="229.5" y2="229.5" class="net_20"/>
  <line x1="332.5" x2="349" y1="533.5" y2="533.5" class="net_26"/>
  <line x1="349" x2="349" y1="533.5" y2="527.5" class="net_26"/>
  <line x1="349" x2="383" y1="527.5" y2="527.5" class="net_26"/>
  <line x1="332.5" x2="349" y1="593.5" y2="593.5" class="net_27"/>
  <line x1="349" x2="349" y1="593.5" y2="587.5" class="net_27"/>
  <line x1="349" x2="383" y1="587.5" y2="587.5" class="net_27"/>
  <line x1="410" x2="455" y1="580" y2="580" class="net_32"/>
  <line x1="405.5" x2="455" y1="648" y2="648" class="net_29"/>
  <line x1="405.5" x2="422" y1="703" y2="703" class="net_21"/>
  <line x1="422" x2="422" y1="703" y2="663" class="net_21"/>
  <line x1="422" x2="455" y1="663" y2="663" class="net_21"/>
  <line x1="405.5" x2="422" y1="123" y2="123" class="net_22"/>
  <line x1="422" x2="422" y1="123" y2="42" class="net_22"/>
  <circle cx="422" cy="123" r="2" style="fill:#000" class="net_22"/>
  <line x1="422" x2="455.3333333333333" y1="42" y2="42" class="net_22"/>
  <line x1="405.5" x2="455.3333333333333" y1="123" y2="123" class="net_22"/>
  <line x1="475.3333333333333" x2="532" y1="32" y2="32" class="net_36"/>
  <line x1="477" x2="512" y1="474" y2="474" class="net_24"/>
  <line x1="512" x2="512" y1="474" y2="52" class="net_24"/>
  <circle cx="512" cy="474" r="2" style="fill:#000" class="net_24"/>
  <line x1="512" x2="532" y1="52" y2="52" class="net_24"/>
  <line x1="477" x2="512" y1="474" y2="474" class="net_24"/>
  <line x1="512" x2="512" y1="474" y2="133" class="net_24"/>
  <circle cx="512" cy="133" r="2" style="fill:#000" class="net_24"/>
  <line x1="512" x2="532" y1="133" y2="133" class="net_24"/>
  <line x1="477" x2="512" y1="474" y2="474" class="net_24"/>
  <line x1="512" x2="512" y1="474" y2="414" class="net_24"/>
  <circle cx="512" cy="414" r="2" style="fill:#000" class="net_24"/>
  <line x1="512" x2="532" y1="414" y2="414" class="net_24"/>
  <line x1="477" x2="532" y1="474" y2="474" class="net_24"/>
  <line x1="477" x2="512" y1="474" y2="474" class="net_24"/>
  <line x1="512" x2="512" y1="474" y2="675.5" class="net_24"/>
  <circle cx="512" cy="675.5" r="2" style="fill:#000" class="net_24"/>
  <line x1="512" x2="532" y1="675.5" y2="675.5" class="net_24"/>
  <line x1="477" x2="512" y1="474" y2="474" class="net_24"/>
  <line x1="512" x2="512" y1="474" y2="770.5" class="net_24"/>
  <line x1="512" x2="532" y1="770.5" y2="770.5" class="net_24"/>
  <line x1="184" x2="201" y1="446.5" y2="446.5" class="net_7"/>
  <line x1="201" x2="201" y1="446.5" y2="72" class="net_7"/>
  <line x1="201" x2="542" y1="72" y2="72" class="net_7"/>
  <circle cx="201" cy="446.5" r="2" style="fill:#000" class="net_7"/>
  <line x1="542" x2="542" y1="72" y2="57" class="net_7"/>
  <line x1="184" x2="201" y1="446.5" y2="446.5" class="net_7"/>
  <line x1="201" x2="201" y1="446.5" y2="178.5" class="net_7"/>
  <line x1="201" x2="542" y1="178.5" y2="178.5" class="net_7"/>
  <circle cx="201" cy="178.5" r="2" style="fill:#000" class="net_7"/>
  <line x1="542" x2="542" y1="178.5" y2="138" class="net_7"/>
  <line x1="184" x2="201" y1="446.5" y2="446.5" class="net_7"/>
  <line x1="201" x2="201" y1="446.5" y2="293" class="net_7"/>
  <line x1="201" x2="542" y1="293" y2="293" class="net_7"/>
  <circle cx="201" cy="293" r="2" style="fill:#000" class="net_7"/>
  <line x1="542" x2="542" y1="293" y2="244.5" class="net_7"/>
  <line x1="184" x2="201" y1="446.5" y2="446.5" class="net_7"/>
  <line x1="201" x2="201" y1="446.5" y2="496.5" class="net_7"/>
  <line x1="201" x2="492" y1="496.5" y2="496.5" class="net_7"/>
  <line x1="492" x2="492" y1="496.5" y2="434" class="net_7"/>
  <line x1="492" x2="542" y1="434" y2="434" class="net_7"/>
  <circle cx="201" cy="496.5" r="2" style="fill:#000" class="net_7"/>
  <line x1="542" x2="542" y1="434" y2="419" class="net_7"/>
  <line x1="184" x2="201" y1="446.5" y2="446.5" class="net_7"/>
  <line x1="201" x2="201" y1="446.5" y2="624.5" class="net_7"/>
  <line x1="201" x2="542" y1="624.5" y2="624.5" class="net_7"/>
  <circle cx="201" cy="624.5" r="2" style="fill:#000" class="net_7"/>
  <line x1="542" x2="542" y1="624.5" y2="479" class="net_7"/>
  <line x1="184" x2="201" y1="446.5" y2="446.5" class="net_7"/>
  <line x1="201" x2="201" y1="446.5" y2="794" class="net_7"/>
  <line x1="201" x2="492" y1="794" y2="794" class="net_7"/>
  <line x1="492" x2="492" y1="794" y2="730.5" class="net_7"/>
  <line x1="492" x2="542" y1="730.5" y2="730.5" class="net_7"/>
  <circle cx="492" cy="794" r="2" style="fill:#000" class="net_7"/>
  <line x1="542" x2="542" y1="730.5" y2="680.5" class="net_7"/>
  <line x1="184" x2="201" y1="446.5" y2="446.5" class="net_7"/>
  <line x1="201" x2="201" y1="446.5" y2="794" class="net_7"/>
  <line x1="201" x2="542" y1="794" y2="794" class="net_7"/>
  <line x1="542" x2="542" y1="794" y2="775.5" class="net_7"/>
  <line x1="475.3333333333333" x2="532" y1="113" y2="113" class="net_37"/>
  <line x1="410" x2="455.3333333333333" y1="209.5" y2="209.5" class="net_30"/>
  <line x1="475.3333333333333" x2="532" y1="219.5" y2="219.5" class="net_38"/>
  <line x1="482" x2="522" y1="326.5" y2="326.5" class="net_18"/>
  <line x1="522" x2="522" y1="326.5" y2="239.5" class="net_18"/>
  <line x1="522" x2="532" y1="239.5" y2="239.5" class="net_18"/>
  <line x1="410" x2="432" y1="520" y2="520" class="net_31"/>
  <line x1="432" x2="432" y1="520" y2="384" class="net_31"/>
  <circle cx="432" cy="520" r="2" style="fill:#000" class="net_31"/>
  <line x1="432" x2="455.3333333333333" y1="384" y2="384" class="net_31"/>
  <line x1="410" x2="432" y1="520" y2="520" class="net_31"/>
  <line x1="432" x2="432" y1="520" y2="740.5" class="net_31"/>
  <line x1="432" x2="455.3333333333333" y1="740.5" y2="740.5" class="net_31"/>
  <line x1="412" x2="455.3333333333333" y1="404" y2="404" class="net_39"/>
  <line x1="475.3333333333333" x2="532" y1="394" y2="394" class="net_40"/>
  <line x1="482" x2="502" y1="587.5" y2="587.5" class="net_33"/>
  <line x1="502" x2="502" y1="587.5" y2="454" class="net_33"/>
  <line x1="502" x2="532" y1="454" y2="454" class="net_33"/>
  <line x1="482" x2="532" y1="655.5" y2="655.5" class="net_34"/>
  <line x1="410" x2="455.3333333333333" y1="760.5" y2="760.5" class="net_35"/>
  <line x1="475.3333333333333" x2="532" y1="750.5" y2="750.5" class="net_41"/>
  <line x1="608" x2="645" y1="113" y2="113" class="net_8,9,10,11,12,13,14"/>
  <line x1="552" x2="602.5" y1="42" y2="42" class="net_8"/>
  <line x1="602.5" x2="602.5" y1="42" y2="102.5" class="net_8"/>
  <line x1="552" x2="602" y1="123" y2="123" class="net_9"/>
  <line x1="552" x2="562" y1="229.5" y2="229.5" class="net_10"/>
  <line x1="562" x2="562" y1="229.5" y2="143" class="net_10"/>
  <line x1="562" x2="602" y1="143" y2="143" class="net_10"/>
  <line x1="552" x2="572" y1="404" y2="404" class="net_11"/>
  <line x1="572" x2="572" y1="404" y2="163" class="net_11"/>
  <line x1="572" x2="602" y1="163" y2="163" class="net_11"/>
  <line x1="552" x2="582" y1="464" y2="464" class="net_12"/>
  <line x1="582" x2="582" y1="464" y2="183" class="net_12"/>
  <line x1="582" x2="602" y1="183" y2="183" class="net_12"/>
  <line x1="552" x2="592" y1="665.5" y2="665.5" class="net_13"/>
  <line x1="592" x2="592" y1="665.5" y2="203" class="net_13"/>
  <line x1="592" x2="602" y1="203" y2="203" class="net_13"/>
  <line x1="552" x2="602.5" y1="760.5" y2="760.5" class="net_14"/>
  <line x1="602.5" x2="602.5" y1="760.5" y2="223.5" class="net_14"/>
  <line x1="124" x2="179" y1="396.5" y2="396.5" class="net_4,5,6,7"/>
</svg>
