<svg xmlns="http://www.w3.org/2000/svg" xmlns:xlink="http://www.w3.org/1999/xlink" xmlns:s="https://github.com/nturley/netlistsvg" width="646" height="512.5">
  <style>svg {
    stroke:#000;
    fill:none;
  }
  text {
    fill:#000;
    stroke:none;
    font-size:10px;
    font-weight: bold;
    font-family: "Courier New", monospace;
  }
  .nodelabel {
    text-anchor: middle;
  }
  .inputPortLabel {
    text-anchor: end;
  }
  .splitjoinBody {
    fill:#000;
  }</style>
  <g s:type="not" transform="translate(536,217.5)" s:width="30" s:height="20" id="cell_$abc$209$auto$blifparse.cc:396:parse_blif$210">
    <s:alias val="$_NOT_"/>
    <s:alias val="$not"/>
    <s:alias val="$logic_not"/>
    <path d="M0,0 L0,20 L20,10 Z" class="cell_$abc$209$auto$blifparse.cc:396:parse_blif$210"/>
    <circle cx="23" cy="10" r="3" class="cell_$abc$209$auto$blifparse.cc:396:parse_blif$210"/>
    <g s:x="0" s:y="10" s:pid="A"/>
    <g s:x="25" s:y="10" s:pid="Y"/>
  </g>
  <g s:type="or" transform="translate(388.6666666666667,238.5)" s:width="30" s:height="25" id="cell_$abc$209$auto$blifparse.cc:396:parse_blif$211">
    <s:alias val="$or"/>
    <s:alias val="$logic_or"/>
    <s:alias val="$_OR_"/>
    <path d="M0,25 L0,25 L15,25 A15 12.5 0 0 0 15,0 L0,0" class="cell_$abc$209$auto$blifparse.cc:396:parse_blif$211"/>
    <path d="M0,0 A30 25 0 0 1 0,25" class="cell_$abc$209$auto$blifparse.cc:396:parse_blif$211"/>
    <g s:x="3" s:y="5" s:pid="A"/>
    <g s:x="3" s:y="20" s:pid="B"/>
    <g s:x="30" s:y="12.5" s:pid="Y"/>
  </g>
  <g s:type="nand" transform="translate(536,328.5)" s:width="30" s:height="25" id="cell_$abc$209$auto$blifparse.cc:396:parse_blif$212">
    <s:alias val="$nand"/>
    <s:alias val="$logic_nand"/>
    <s:alias val="$_NAND_"/>
    <s:alias val="$_ANDNOT_"/>
    <path d="M0,0 L0,25 L15,25 A15 12.5 0 0 0 15,0 Z" class="cell_$abc$209$auto$blifparse.cc:396:parse_blif$212"/>
    <circle cx="34" cy="12.5" r="3" class="cell_$abc$209$auto$blifparse.cc:396:parse_blif$212"/>
    <g s:x="0" s:y="5" s:pid="A"/>
    <g s:x="0" s:y="20" s:pid="B"/>
    <g s:x="36" s:y="12.5" s:pid="Y"/>
  </g>
  <g s:type="or" transform="translate(77,286)" s:width="30" s:height="25" id="cell_$abc$209$auto$blifparse.cc:396:parse_blif$213">
    <s:alias val="$or"/>
    <s:alias val="$logic_or"/>
    <s:alias val="$_OR_"/>
    <path d="M0,25 L0,25 L15,25 A15 12.5 0 0 0 15,0 L0,0" class="cell_$abc$209$auto$blifparse.cc:396:parse_blif$213"/>
    <path d="M0,0 A30 25 0 0 1 0,25" class="cell_$abc$209$auto$blifparse.cc:396:parse_blif$213"/>
    <g s:x="3" s:y="5" s:pid="A"/>
    <g s:x="3" s:y="20" s:pid="B"/>
    <g s:x="30" s:y="12.5" s:pid="Y"/>
  </g>
  <g s:type="nand" transform="translate(388.6666666666667,396)" s:width="30" s:height="25" id="cell_$abc$209$auto$blifparse.cc:396:parse_blif$214">
    <s:alias val="$nand"/>
    <s:alias val="$logic_nand"/>
    <s:alias val="$_NAND_"/>
    <s:alias val="$_ANDNOT_"/>
    <path d="M0,0 L0,25 L15,25 A15 12.5 0 0 0 15,0 Z" class="cell_$abc$209$auto$blifparse.cc:396:parse_blif$214"/>
    <circle cx="34" cy="12.5" r="3" class="cell_$abc$209$auto$blifparse.cc:396:parse_blif$214"/>
    <g s:x="0" s:y="5" s:pid="A"/>
    <g s:x="0" s:y="20" s:pid="B"/>
    <g s:x="36" s:y="12.5" s:pid="Y"/>
  </g>
  <g s:type="not" transform="translate(154,22)" s:width="30" s:height="20" id="cell_$abc$209$auto$blifparse.cc:396:parse_blif$215">
    <s:alias val="$_NOT_"/>
    <s:alias val="$not"/>
    <s:alias val="$logic_not"/>
    <path d="M0,0 L0,20 L20,10 Z" class="cell_$abc$209$auto$blifparse.cc:396:parse_blif$215"/>
    <circle cx="23" cy="10" r="3" class="cell_$abc$209$auto$blifparse.cc:396:parse_blif$215"/>
    <g s:x="0" s:y="10" s:pid="A"/>
    <g s:x="25" s:y="10" s:pid="Y"/>
  </g>
  <g s:type="reduce_xor" transform="translate(536,172.5)" s:width="33" s:height="25" id="cell_$abc$209$auto$blifparse.cc:396:parse_blif$216">
    <s:alias val="$xor"/>
    <s:alias val="$reduce_xor"/>
    <s:alias val="$_XOR_"/>
    <path d="M3,0 A30 25 0 0 1 3,25 A30 25 0 0 0 33,12.5 A30 25 0 0 0 3,0" class="cell_$abc$209$auto$blifparse.cc:396:parse_blif$216"/>
    <path d="M0,0 A30 25 0 0 1 0,25" class="cell_$abc$209$auto$blifparse.cc:396:parse_blif$216"/>
    <g s:x="3" s:y="5" s:pid="A"/>
    <g s:x="3" s:y="20" s:pid="B"/>
    <g s:x="33" s:y="12.5" s:pid="Y"/>
  </g>
  <g s:type="and" transform="translate(388.6666666666667,298.5)" s:width="30" s:height="25" id="cell_$abc$209$auto$blifparse.cc:396:parse_blif$217">
    <s:alias val="$and"/>
    <s:alias val="$logic_and"/>
    <s:alias val="$_AND_"/>
    <path d="M0,0 L0,25 L15,25 A15 12.5 0 0 0 15,0 Z" class="cell_$abc$209$auto$blifparse.cc:396:parse_blif$217"/>
    <g s:x="0" s:y="5" s:pid="A"/>
    <g s:x="0" s:y="20" s:pid="B"/>
    <g s:x="30" s:y="12.5" s:pid="Y"/>
  </g>
  <g s:type="reduce_xor" transform="translate(536,453.5)" s:width="33" s:height="25" id="cell_$abc$209$auto$blifparse.cc:396:parse_blif$218">
    <s:alias val="$xor"/>
    <s:alias val="$reduce_xor"/>
    <s:alias val="$_XOR_"/>
    <path d="M3,0 A30 25 0 0 1 3,25 A30 25 0 0 0 33,12.5 A30 25 0 0 0 3,0" class="cell_$abc$209$auto$blifparse.cc:396:parse_blif$218"/>
    <path d="M0,0 A30 25 0 0 1 0,25" class="cell_$abc$209$auto$blifparse.cc:396:parse_blif$218"/>
    <g s:x="3" s:y="5" s:pid="A"/>
    <g s:x="3" s:y="20" s:pid="B"/>
    <g s:x="33" s:y="12.5" s:pid="Y"/>
  </g>
  <g s:type="generic" transform="translate(351,41.5)" s:width="30" s:height="40" id="cell_$auto$ff.cc:266:slice$146">
    <text x="15" y="-4" class="nodelabel cell_$auto$ff.cc:266:slice$146" s:attribute="ref">$_SDFF_PP0_</text>
    <rect width="30" height="60" s:generic="body" class="cell_$auto$ff.cc:266:slice$146"/>
    <g transform="translate(0,10)" s:x="0" s:y="10" s:pid="in0" id="port_$auto$ff.cc:266:slice$146~C">
      <text x="-3" y="-4" class="inputPortLabel cell_$auto$ff.cc:266:slice$146">C</text>
    </g>
    <g transform="translate(0,30)" s:x="0" s:y="10" s:pid="in0" id="port_$auto$ff.cc:266:slice$146~D">
      <text x="-3" y="-4" class="inputPortLabel cell_$auto$ff.cc:266:slice$146">D</text>
    </g>
    <g transform="translate(0,50)" s:x="0" s:y="10" s:pid="in0" id="port_$auto$ff.cc:266:slice$146~R">
      <text x="-3" y="-4" class="inputPortLabel cell_$auto$ff.cc:266:slice$146">R</text>
    </g>
    <g transform="translate(30,10)" s:x="30" s:y="10" s:pid="out0" id="port_$auto$ff.cc:266:slice$146~Q">
      <text x="5" y="-4" style="fill:#000; stroke:none" class="cell_$auto$ff.cc:266:slice$146">Q</text>
    </g>
  </g>
  <g s:type="generic" transform="translate(154,248)" s:width="30" s:height="40" id="cell_$auto$ff.cc:266:slice$147">
    <text x="15" y="-4" class="nodelabel cell_$auto$ff.cc:266:slice$147" s:attribute="ref">$_SDFF_PP0_</text>
    <rect width="30" height="60" s:generic="body" class="cell_$auto$ff.cc:266:slice$147"/>
    <g transform="translate(0,10)" s:x="0" s:y="10" s:pid="in0" id="port_$auto$ff.cc:266:slice$147~C">
      <text x="-3" y="-4" class="inputPortLabel cell_$auto$ff.cc:266:slice$147">C</text>
    </g>
    <g transform="translate(0,30)" s:x="0" s:y="10" s:pid="in0" id="port_$auto$ff.cc:266:slice$147~D">
      <text x="-3" y="-4" class="inputPortLabel cell_$auto$ff.cc:266:slice$147">D</text>
    </g>
    <g transform="translate(0,50)" s:x="0" s:y="10" s:pid="in0" id="port_$auto$ff.cc:266:slice$147~R">
      <text x="-3" y="-4" class="inputPortLabel cell_$auto$ff.cc:266:slice$147">R</text>
    </g>
    <g transform="translate(30,10)" s:x="30" s:y="10" s:pid="out0" id="port_$auto$ff.cc:266:slice$147~Q">
      <text x="5" y="-4" style="fill:#000; stroke:none" class="cell_$auto$ff.cc:266:slice$147">Q</text>
    </g>
  </g>
  <g s:type="generic" transform="translate(154,134.5)" s:width="30" s:height="40" id="cell_$auto$ff.cc:266:slice$148">
    <text x="15" y="-4" class="nodelabel cell_$auto$ff.cc:266:slice$148" s:attribute="ref">$_SDFF_PP0_</text>
    <rect width="30" height="60" s:generic="body" class="cell_$auto$ff.cc:266:slice$148"/>
    <g transform="translate(0,10)" s:x="0" s:y="10" s:pid="in0" id="port_$auto$ff.cc:266:slice$148~C">
      <text x="-3" y="-4" class="inputPortLabel cell_$auto$ff.cc:266:slice$148">C</text>
    </g>
    <g transform="translate(0,30)" s:x="0" s:y="10" s:pid="in0" id="port_$auto$ff.cc:266:slice$148~D">
      <text x="-3" y="-4" class="inputPortLabel cell_$auto$ff.cc:266:slice$148">D</text>
    </g>
    <g transform="translate(0,50)" s:x="0" s:y="10" s:pid="in0" id="port_$auto$ff.cc:266:slice$148~R">
      <text x="-3" y="-4" class="inputPortLabel cell_$auto$ff.cc:266:slice$148">R</text>
    </g>
    <g transform="translate(30,10)" s:x="30" s:y="10" s:pid="out0" id="port_$auto$ff.cc:266:slice$148~Q">
      <text x="5" y="-4" style="fill:#000; stroke:none" class="cell_$auto$ff.cc:266:slice$148">Q</text>
    </g>
  </g>
  <g s:type="generic" transform="translate(154,405.5)" s:width="30" s:height="40" id="cell_$auto$ff.cc:266:slice$149">
    <text x="15" y="-4" class="nodelabel cell_$auto$ff.cc:266:slice$149" s:attribute="ref">$_SDFF_PP0_</text>
    <rect width="30" height="60" s:generic="body" class="cell_$auto$ff.cc:266:slice$149"/>
    <g transform="translate(0,10)" s:x="0" s:y="10" s:pid="in0" id="port_$auto$ff.cc:266:slice$149~C">
      <text x="-3" y="-4" class="inputPortLabel cell_$auto$ff.cc:266:slice$149">C</text>
    </g>
    <g transform="translate(0,30)" s:x="0" s:y="10" s:pid="in0" id="port_$auto$ff.cc:266:slice$149~D">
      <text x="-3" y="-4" class="inputPortLabel cell_$auto$ff.cc:266:slice$149">D</text>
    </g>
    <g transform="translate(0,50)" s:x="0" s:y="10" s:pid="in0" id="port_$auto$ff.cc:266:slice$149~R">
      <text x="-3" y="-4" class="inputPortLabel cell_$auto$ff.cc:266:slice$149">R</text>
    </g>
    <g transform="translate(30,10)" s:x="30" s:y="10" s:pid="out0" id="port_$auto$ff.cc:266:slice$149~Q">
      <text x="5" y="-4" style="fill:#000; stroke:none" class="cell_$auto$ff.cc:266:slice$149">Q</text>
    </g>
  </g>
  <g s:type="inputExt" transform="translate(77,135)" s:width="30" s:height="20" id="cell_clock">
    <text x="15" y="-4" class="nodelabel cell_clock" s:attribute="ref">clock</text>
    <s:alias val="$_inputExt_"/>
    <path d="M0,0 L0,20 L15,20 L30,10 L15,0 Z" class="cell_clock"/>
    <g s:x="28" s:y="10" s:pid="Y"/>
  </g>
  <g s:type="inputExt" transform="translate(12,296)" s:width="30" s:height="20" id="cell_reset">
    <text x="15" y="-4" class="nodelabel cell_reset" s:attribute="ref">reset</text>
    <s:alias val="$_inputExt_"/>
    <path d="M0,0 L0,20 L15,20 L30,10 L15,0 Z" class="cell_reset"/>
    <g s:x="28" s:y="10" s:pid="Y"/>
  </g>
  <g s:type="outputExt" transform="translate(536,398.5)" s:width="30" s:height="20" id="cell_io_randomWave">
    <text x="15" y="-4" class="nodelabel cell_io_randomWave" s:attribute="ref">io_randomWave</text>
    <s:alias val="$_outputExt_"/>
    <path d="M30,0 L30,20 L15,20 L0,10 L15,0 Z" class="cell_io_randomWave"/>
    <g s:x="0" s:y="10" s:pid="A"/>
  </g>
  <g s:type="outputExt" transform="translate(536,42)" s:width="30" s:height="20" id="cell_io_clockWave">
    <text x="15" y="-4" class="nodelabel cell_io_clockWave" s:attribute="ref">io_clockWave</text>
    <s:alias val="$_outputExt_"/>
    <path d="M30,0 L30,20 L15,20 L0,10 L15,0 Z" class="cell_io_clockWave"/>
    <g s:x="0" s:y="10" s:pid="A"/>
  </g>
  <line x1="185" x2="324" y1="258.5" y2="258.5" class="net_6"/>
  <line x1="324" x2="324" y1="258.5" y2="227.5" class="net_6"/>
  <circle cx="324" cy="258.5" r="2" style="fill:#000" class="net_6"/>
  <circle cx="324" cy="227.5" r="2" style="fill:#000" class="net_6"/>
  <line x1="324" x2="536" y1="227.5" y2="227.5" class="net_6"/>
  <line x1="185" x2="391.6666666666667" y1="258.5" y2="258.5" class="net_6"/>
  <line x1="185" x2="324" y1="258.5" y2="258.5" class="net_6"/>
  <line x1="324" x2="324" y1="258.5" y2="401" class="net_6"/>
  <line x1="324" x2="388.6666666666667" y1="401" y2="401" class="net_6"/>
  <line x1="185" x2="324" y1="258.5" y2="258.5" class="net_6"/>
  <line x1="324" x2="324" y1="258.5" y2="192.5" class="net_6"/>
  <line x1="324" x2="539" y1="192.5" y2="192.5" class="net_6"/>
  <line x1="185" x2="324" y1="258.5" y2="258.5" class="net_6"/>
  <line x1="324" x2="324" y1="258.5" y2="318.5" class="net_6"/>
  <circle cx="324" cy="318.5" r="2" style="fill:#000" class="net_6"/>
  <line x1="324" x2="388.6666666666667" y1="318.5" y2="318.5" class="net_6"/>
  <line x1="185" x2="334" y1="145" y2="145" class="net_8"/>
  <line x1="334" x2="334" y1="145" y2="243.5" class="net_8"/>
  <circle cx="334" cy="243.5" r="2" style="fill:#000" class="net_8"/>
  <line x1="334" x2="391.6666666666667" y1="243.5" y2="243.5" class="net_8"/>
  <line x1="185" x2="334" y1="145" y2="145" class="net_8"/>
  <line x1="334" x2="334" y1="145" y2="177.5" class="net_8"/>
  <circle cx="334" cy="177.5" r="2" style="fill:#000" class="net_8"/>
  <line x1="334" x2="539" y1="177.5" y2="177.5" class="net_8"/>
  <line x1="185" x2="334" y1="145" y2="145" class="net_8"/>
  <line x1="334" x2="334" y1="145" y2="303.5" class="net_8"/>
  <line x1="334" x2="388.6666666666667" y1="303.5" y2="303.5" class="net_8"/>
  <line x1="185" x2="314" y1="416" y2="416" class="net_10"/>
  <line x1="314" x2="314" y1="416" y2="333.5" class="net_10"/>
  <circle cx="314" cy="416" r="2" style="fill:#000" class="net_10"/>
  <line x1="314" x2="536" y1="333.5" y2="333.5" class="net_10"/>
  <line x1="185" x2="388.6666666666667" y1="416" y2="416" class="net_10"/>
  <line x1="185" x2="314" y1="416" y2="416" class="net_10"/>
  <line x1="314" x2="314" y1="416" y2="473.5" class="net_10"/>
  <line x1="314" x2="539" y1="473.5" y2="473.5" class="net_10"/>
  <line x1="418.6666666666667" x2="521" y1="251" y2="251" class="net_9"/>
  <line x1="521" x2="521" y1="251" y2="348.5" class="net_9"/>
  <line x1="521" x2="536" y1="348.5" y2="348.5" class="net_9"/>
  <line x1="572" x2="634" y1="341" y2="341" class="net_11"/>
  <line x1="634" x2="634" y1="341" y2="499.5" class="net_11"/>
  <line x1="634" x2="62" y1="499.5" y2="499.5" class="net_11"/>
  <line x1="62" x2="62" y1="499.5" y2="291" class="net_11"/>
  <line x1="62" x2="80" y1="291" y2="291" class="net_11"/>
  <line x1="40" x2="80" y1="306" y2="306" class="net_3"/>
  <line x1="40" x2="52" y1="306" y2="306" class="net_3"/>
  <line x1="52" x2="52" y1="306" y2="92" class="net_3"/>
  <circle cx="52" cy="306" r="2" style="fill:#000" class="net_3"/>
  <line x1="52" x2="351" y1="92" y2="92" class="net_3"/>
  <line x1="382" x2="511" y1="52" y2="52" class="net_5"/>
  <line x1="511" x2="511" y1="52" y2="12" class="net_5"/>
  <line x1="511" x2="137" y1="12" y2="12" class="net_5"/>
  <line x1="137" x2="137" y1="12" y2="32" class="net_5"/>
  <circle cx="511" cy="52" r="2" style="fill:#000" class="net_5"/>
  <line x1="137" x2="154" y1="32" y2="32" class="net_5"/>
  <line x1="382" x2="536" y1="52" y2="52" class="net_5"/>
  <line x1="418.6666666666667" x2="511" y1="311" y2="311" class="net_15"/>
  <line x1="511" x2="511" y1="311" y2="458.5" class="net_15"/>
  <line x1="511" x2="539" y1="458.5" y2="458.5" class="net_15"/>
  <line x1="105" x2="127" y1="145" y2="145" class="net_2"/>
  <line x1="127" x2="127" y1="145" y2="52" class="net_2"/>
  <circle cx="127" cy="145" r="2" style="fill:#000" class="net_2"/>
  <line x1="127" x2="351" y1="52" y2="52" class="net_2"/>
  <line x1="105" x2="127" y1="145" y2="145" class="net_2"/>
  <line x1="127" x2="127" y1="145" y2="258.5" class="net_2"/>
  <circle cx="127" cy="258.5" r="2" style="fill:#000" class="net_2"/>
  <line x1="127" x2="154" y1="258.5" y2="258.5" class="net_2"/>
  <line x1="105" x2="154" y1="145" y2="145" class="net_2"/>
  <line x1="105" x2="127" y1="145" y2="145" class="net_2"/>
  <line x1="127" x2="127" y1="145" y2="416" class="net_2"/>
  <line x1="127" x2="154" y1="416" y2="416" class="net_2"/>
  <line x1="179" x2="314" y1="32" y2="32" class="net_13"/>
  <line x1="314" x2="314" y1="32" y2="72" class="net_13"/>
  <line x1="314" x2="351" y1="72" y2="72" class="net_13"/>
  <line x1="561" x2="624" y1="227.5" y2="227.5" class="net_7"/>
  <line x1="624" x2="624" y1="227.5" y2="207.5" class="net_7"/>
  <line x1="624" x2="137" y1="207.5" y2="207.5" class="net_7"/>
  <line x1="137" x2="137" y1="207.5" y2="278.5" class="net_7"/>
  <line x1="137" x2="154" y1="278.5" y2="278.5" class="net_7"/>
  <line x1="107" x2="154" y1="298.5" y2="298.5" class="net_12"/>
  <line x1="107" x2="117" y1="298.5" y2="298.5" class="net_12"/>
  <line x1="117" x2="117" y1="298.5" y2="185" class="net_12"/>
  <circle cx="117" cy="298.5" r="2" style="fill:#000" class="net_12"/>
  <line x1="117" x2="154" y1="185" y2="185" class="net_12"/>
  <line x1="107" x2="117" y1="298.5" y2="298.5" class="net_12"/>
  <line x1="117" x2="117" y1="298.5" y2="456" class="net_12"/>
  <line x1="117" x2="154" y1="456" y2="456" class="net_12"/>
  <line x1="569" x2="624" y1="185" y2="185" class="net_14"/>
  <line x1="624" x2="624" y1="185" y2="114.5" class="net_14"/>
  <line x1="624" x2="137" y1="114.5" y2="114.5" class="net_14"/>
  <line x1="137" x2="137" y1="114.5" y2="165" class="net_14"/>
  <line x1="137" x2="154" y1="165" y2="165" class="net_14"/>
  <line x1="569" x2="624" y1="466" y2="466" class="net_16"/>
  <line x1="624" x2="624" y1="466" y2="488.5" class="net_16"/>
  <line x1="624" x2="137" y1="488.5" y2="488.5" class="net_16"/>
  <line x1="137" x2="137" y1="488.5" y2="436" class="net_16"/>
  <line x1="137" x2="154" y1="436" y2="436" class="net_16"/>
  <line x1="424.6666666666667" x2="536" y1="408.5" y2="408.5" class="net_4"/>
</svg>
